GentiumPlus-Regular.ufo
<glyph name="NumSgn" format="1">
  <advance width="961"/>
  <unicode hex="0023"/>
  <outline>
    <contour>
      <point x="982" y="936" type="curve"/>
      <point x="957" y="961" type="line"/>
      <point x="224" y="961" type="line"/>
      <point x="214" y="934"/>
      <point x="199" y="899"/>
      <point x="193" y="870" type="curve"/>
      <point x="218" y="846" type="line"/>
      <point x="951" y="846" type="line"/>
      <point x="961" y="868"/>
      <point x="976" y="907"/>
    </contour>
    <contour>
      <point x="894" y="1270" type="line"/>
      <point x="867" y="1292" type="line"/>
      <point x="836" y="1280"/>
      <point x="806" y="1272"/>
      <point x="777" y="1251" type="curve"/>
      <point x="462" y="147" type="line"/>
      <point x="488" y="127" type="line"/>
      <point x="523" y="139"/>
      <point x="556" y="152"/>
      <point x="580" y="170" type="curve"/>
    </contour>
    <contour>
      <point x="595" y="1270" type="line"/>
      <point x="566" y="1292" type="line"/>
      <point x="537" y="1280"/>
      <point x="507" y="1272"/>
      <point x="478" y="1251" type="curve"/>
      <point x="163" y="147" type="line"/>
      <point x="189" y="127" type="line"/>
      <point x="224" y="139"/>
      <point x="255" y="152"/>
      <point x="279" y="170" type="curve"/>
    </contour>
    <contour>
      <point x="873" y="563" type="curve"/>
      <point x="851" y="590" type="line"/>
      <point x="117" y="590" type="line"/>
      <point x="105" y="563"/>
      <point x="93" y="526"/>
      <point x="87" y="500" type="curve"/>
      <point x="109" y="475" type="line"/>
      <point x="845" y="475" type="line"/>
      <point x="855" y="498"/>
      <point x="867" y="537"/>
    </contour>
  </outline>
</glyph>
<glyph name="DigitZero" format="1">
  <advance width="961"/>
  <unicode hex="0030"/>
  <outline>
    <contour>
      <point x="885" y="602" type="curve"/>
      <point x="885" y="950"/>
      <point x="754" y="1235"/>
      <point x="500" y="1235" type="curve" smooth="yes"/>
      <point x="248" y="1235"/>
      <point x="76" y="946"/>
      <point x="76" y="602" type="curve" smooth="yes"/>
      <point x="76" y="258"/>
      <point x="207" y="-30"/>
      <point x="461" y="-30" type="curve" smooth="yes"/>
      <point x="715" y="-30"/>
      <point x="885" y="258"/>
    </contour>
    <contour>
      <point x="721" y="565" type="curve"/>
      <point x="721" y="227"/>
      <point x="639" y="85"/>
      <point x="500" y="85" type="curve" smooth="yes"/>
      <point x="352" y="85"/>
      <point x="240" y="279"/>
      <point x="240" y="645" type="curve" smooth="yes"/>
      <point x="240" y="979"/>
      <point x="324" y="1120"/>
      <point x="461" y="1120" type="curve" smooth="yes"/>
      <point x="596" y="1120"/>
      <point x="721" y="930"/>
    </contour>
    <contour>
      <point x="480" y="-100" type="move" name="L"/>
    </contour>
    <contour>
      <point x="480" y="1370" type="move" name="U"/>
    </contour>
  </outline>
</glyph>
<glyph name="DigitOne" format="1">
  <advance width="961"/>
  <unicode hex="0031"/>
  <outline>
    <contour>
      <point x="840" y="0" type="line"/>
      <point x="840" y="53" type="line"/>
      <point x="639" y="78"/>
      <point x="590" y="117"/>
      <point x="590" y="143" type="curve" smooth="yes"/>
      <point x="590" y="1210" type="line"/>
      <point x="553" y="1245" type="line"/>
      <point x="465" y="1196"/>
      <point x="250" y="1106"/>
      <point x="139" y="1075" type="curve"/>
      <point x="160" y="1024" type="line"/>
      <point x="336" y="1061"/>
      <point x="406" y="1055"/>
      <point x="422" y="1038" type="curve" smooth="yes"/>
      <point x="438" y="1020"/>
      <point x="440" y="993"/>
      <point x="440" y="940" type="curve" smooth="yes"/>
      <point x="440" y="143" type="line" smooth="yes"/>
      <point x="440" y="115"/>
      <point x="379" y="78"/>
      <point x="170" y="53" type="curve"/>
      <point x="170" y="0" type="line"/>
    </contour>
    <contour>
      <point x="480" y="-100" type="move" name="L"/>
    </contour>
    <contour>
      <point x="480" y="1370" type="move" name="U"/>
    </contour>
  </outline>
</glyph>
<glyph name="LtnCapI" format="1">
  <advance width="610"/>
  <unicode hex="0049"/>
  <outline>
    <contour>
      <point x="520" y="0" type="line"/>
      <point x="520" y="43" type="line"/>
      <point x="424" y="61"/>
      <point x="375" y="88"/>
      <point x="375" y="104" type="curve" smooth="yes"/>
      <point x="375" y="1155" type="line" smooth="yes"/>
      <point x="375" y="1174"/>
      <point x="430" y="1198"/>
      <point x="520" y="1217" type="curve"/>
      <point x="520" y="1260" type="line"/>
      <point x="70" y="1260" type="line"/>
      <point x="70" y="1217" type="line"/>
      <point x="166" y="1198"/>
      <point x="215" y="1171"/>
      <point x="215" y="1155" type="curve" smooth="yes"/>
      <point x="215" y="104" type="line" smooth="yes"/>
      <point x="215" y="86"/>
      <point x="160" y="61"/>
      <point x="70" y="43" type="curve"/>
      <point x="70" y="0" type="line"/>
    </contour>
    <contour>
      <point x="295" y="0" type="move" name="H"/>
    </contour>
    <contour>
      <point x="295" y="-100" type="move" name="L"/>
    </contour>
    <contour>
      <point x="345" y="0" type="move" name="O"/>
    </contour>
    <contour>
      <point x="580" y="1100" type="move" name="R"/>
    </contour>
    <contour>
      <point x="295" y="1370" type="move" name="U"/>
    </contour>
  </outline>
</glyph>
<glyph name="LtnCapU" format="1">
  <advance width="1339"/>
  <unicode hex="0055"/>
  <outline>
    <contour>
      <point x="1185" y="1198"/>
      <point x="1275" y="1217" type="curve"/>
      <point x="1275" y="1260" type="line"/>
      <point x="855" y="1260" type="line"/>
      <point x="855" y="1217" type="line"/>
      <point x="951" y="1198"/>
      <point x="1000" y="1171"/>
      <point x="1000" y="1155" type="curve" smooth="yes"/>
      <point x="1000" y="483" type="line" smooth="yes"/>
      <point x="1000" y="285"/>
      <point x="895" y="85"/>
      <point x="705" y="85" type="curve" smooth="yes"/>
      <point x="477" y="85"/>
      <point x="355" y="238"/>
      <point x="355" y="494" type="curve" smooth="yes"/>
      <point x="355" y="1155" type="line" smooth="yes"/>
      <point x="355" y="1174"/>
      <point x="410" y="1198"/>
      <point x="500" y="1217" type="curve"/>
      <point x="500" y="1260" type="line"/>
      <point x="50" y="1260" type="line"/>
      <point x="50" y="1217" type="line"/>
      <point x="146" y="1198"/>
      <point x="195" y="1171"/>
      <point x="195" y="1155" type="curve" smooth="yes"/>
      <point x="195" y="444" type="line" smooth="yes"/>
      <point x="195" y="119"/>
      <point x="391" y="-30"/>
      <point x="666" y="-30" type="curve" smooth="yes"/>
      <point x="954" y="-30"/>
      <point x="1130" y="174"/>
      <point x="1130" y="524" type="curve" smooth="yes"/>
      <point x="1130" y="1155" type="line" smooth="yes"/>
      <point x="1130" y="1174"/>
    </contour>
    <contour>
      <point x="677" y="0" type="move" name="H"/>
    </contour>
    <contour>
      <point x="677" y="-100" type="move" name="L"/>
    </contour>
    <contour>
      <point x="760" y="0" type="move" name="O"/>
    </contour>
    <contour>
      <point x="1330" y="1100" type="move" name="R"/>
    </contour>
    <contour>
      <point x="677" y="1370" type="move" name="U"/>
    </contour>
  </outline>
</glyph>
<glyph name="LtnSmY" format="1">
  <advance width="1010"/>
  <unicode hex="0079"/>
  <outline>
    <contour>
      <point x="989" y="887" type="curve"/>
      <point x="989" y="930" type="line"/>
      <point x="655" y="930" type="line"/>
      <point x="655" y="887" type="line"/>
      <point x="754" y="872"/>
      <point x="784" y="860"/>
      <point x="770" y="819" type="curve"/>
      <point x="539" y="182" type="line"/>
      <point x="293" y="819" type="line"/>
      <point x="276" y="862"/>
      <point x="303" y="874"/>
      <point x="406" y="887" type="curve"/>
      <point x="406" y="930" type="line"/>
      <point x="20" y="930" type="line"/>
      <point x="20" y="887" type="line"/>
      <point x="86" y="872"/>
      <point x="119" y="856"/>
      <point x="131" y="819" type="curve"/>
      <point x="459" y="-23" type="line"/>
      <point x="430" y="-92" type="line" smooth="yes"/>
      <point x="383" y="-207"/>
      <point x="299" y="-314"/>
      <point x="250" y="-330" type="curve"/>
      <point x="201" y="-349"/>
      <point x="133" y="-349"/>
      <point x="70" y="-312" type="curve" smooth="yes"/>
      <point x="27" y="-338"/>
      <point x="-47" y="-431"/>
      <point x="-47" y="-447" type="curve" smooth="yes"/>
      <point x="-47" y="-472"/>
      <point x="25" y="-500"/>
      <point x="127" y="-500" type="curve" smooth="yes"/>
      <point x="260" y="-500"/>
      <point x="434" y="-377"/>
      <point x="545" y="-82" type="curve" smooth="yes"/>
      <point x="879" y="819" type="line"/>
      <point x="893" y="858"/>
      <point x="909" y="868"/>
    </contour>
    <contour>
      <point x="770" y="-100" type="move" name="L"/>
    </contour>
    <contour>
      <point x="1044" y="900" type="move" name="R"/>
    </contour>
    <contour>
      <point x="530" y="1050" type="move" name="U"/>
    </contour>
  </outline>
</glyph>
<glyph name="PlusMinusSgn" format="1">
  <advance width="840"/>
  <unicode hex="00B1"/>
  <outline>
    <contour>
      <point x="778" y="693" type="curve"/>
      <point x="754" y="717" type="line"/>
      <point x="92" y="717" type="line"/>
      <point x="80" y="691"/>
      <point x="68" y="658"/>
      <point x="61" y="631" type="curve"/>
      <point x="86" y="607" type="line"/>
      <point x="748" y="607" type="line"/>
      <point x="758" y="629"/>
      <point x="772" y="666"/>
    </contour>
    <contour>
      <point x="477" y="341" type="curve"/>
      <point x="477" y="992" type="line"/>
      <point x="453" y="1015" type="line"/>
      <point x="424" y="1008"/>
      <point x="387" y="994"/>
      <point x="362" y="986" type="curve"/>
      <point x="362" y="332" type="line"/>
      <point x="387" y="310" type="line"/>
      <point x="416" y="316"/>
      <point x="451" y="328"/>
    </contour>
    <contour>
      <point x="778" y="221" type="curve"/>
      <point x="754" y="245" type="line"/>
      <point x="92" y="245" type="line"/>
      <point x="80" y="219"/>
      <point x="68" y="186"/>
      <point x="61" y="159" type="curve"/>
      <point x="86" y="135" type="line"/>
      <point x="748" y="135" type="line"/>
      <point x="758" y="157"/>
      <point x="772" y="194"/>
    </contour>
  </outline>
</glyph>
<glyph name="AcuteAccent" format="1">
  <advance width="653"/>
  <unicode hex="00B4"/>
  <outline>
    <contour>
      <point x="619" y="1427" type="line"/>
      <point x="596" y="1466" type="line"/>
      <point x="566" y="1474"/>
      <point x="483" y="1487"/>
      <point x="451" y="1489" type="curve"/>
      <point x="217" y="1075" type="line"/>
      <point x="233" y="1063"/>
      <point x="250" y="1052"/>
      <point x="274" y="1047" type="curve"/>
    </contour>
    <contour>
      <point x="327" y="1410" type="move" name="U"/>
    </contour>
  </outline>
</glyph>
<glyph name="LtnCapAAcute" format="1">
  <advance width="1219"/>
  <unicode hex="00C1"/>
  <outline>
    <component base="LtnCapA"/>
    <component base="CombAcute.LP" xOffset="1142" yOffset="320"/>
    <contour>
      <point x="599" y="0" type="move" name="H"/>
    </contour>
    <contour>
      <point x="599" y="-100" type="move" name="L"/>
    </contour>
    <contour>
      <point x="960" y="0" type="move" name="O"/>
    </contour>
    <contour>
      <point x="599" y="1690" type="move" name="U"/>
    </contour>
  </outline>
</glyph>
<glyph name="LtnCapACircum" format="1">
  <advance width="1219"/>
  <unicode hex="00C2"/>
  <outline>
    <component base="LtnCapA"/>
    <component base="CombCircum.LP" xOffset="1113" yOffset="320"/>
    <contour>
      <point x="599" y="0" type="move" name="H"/>
    </contour>
    <contour>
      <point x="599" y="-100" type="move" name="L"/>
    </contour>
    <contour>
      <point x="960" y="0" type="move" name="O"/>
    </contour>
    <contour>
      <point x="599" y="1770" type="move" name="U"/>
    </contour>
  </outline>
</glyph>
<glyph name="LtnCapARingAbv" format="1">
  <advance width="1219"/>
  <unicode hex="00C5"/>
  <outline>
    <component base="LtnCapA"/>
    <component base="CombRingAbv" xOffset="1114" yOffset="320"/>
    <contour>
      <point x="599" y="0" type="move" name="H"/>
    </contour>
    <contour>
      <point x="599" y="-100" type="move" name="L"/>
    </contour>
    <contour>
      <point x="960" y="0" type="move" name="O"/>
    </contour>
    <contour>
      <point x="599" y="1810" type="move" name="U"/>
    </contour>
  </outline>
</glyph>
<glyph name="LtnCapCCedilla" format="1">
  <advance width="1098"/>
  <unicode hex="00C7"/>
  <outline>
    <component base="LtnCapC"/>
    <component base="CombCedilla" xOffset="1097"/>
    <contour>
      <point x="584" y="-600" type="move" name="L"/>
    </contour>
    <contour>
      <point x="614" y="1370" type="move" name="U"/>
    </contour>
  </outline>
</glyph>
<glyph name="LtnCapECircum" format="1">
  <advance width="1016"/>
  <unicode hex="00CA"/>
  <outline>
    <component base="LtnCapE"/>
    <component base="CombCircum.LP" xOffset="1016" yOffset="320"/>
    <contour>
      <point x="502" y="0" type="move" name="H"/>
    </contour>
    <contour>
      <point x="502" y="-100" type="move" name="L"/>
    </contour>
    <contour>
      <point x="750" y="0" type="move" name="O"/>
    </contour>
    <contour>
      <point x="1016" y="1100" type="move" name="R"/>
    </contour>
    <contour>
      <point x="502" y="1770" type="move" name="U"/>
    </contour>
  </outline>
</glyph>
<glyph name="LtnCapICircum" format="1">
  <advance width="610"/>
  <unicode hex="00CE"/>
  <outline>
    <component base="LtnCapI"/>
    <component base="CombCircum.LP" xOffset="809" yOffset="320"/>
    <contour>
      <point x="295" y="0" type="move" name="H"/>
    </contour>
    <contour>
      <point x="295" y="-100" type="move" name="L"/>
    </contour>
    <contour>
      <point x="345" y="0" type="move" name="O"/>
    </contour>
    <contour>
      <point x="580" y="1100" type="move" name="R"/>
    </contour>
    <contour>
      <point x="295" y="1770" type="move" name="U"/>
    </contour>
  </outline>
</glyph>
<glyph name="LtnCapOCircum" format="1">
  <advance width="1229"/>
  <unicode hex="00D4"/>
  <outline>
    <component base="LtnCapO"/>
    <component base="CombCircum.LP" xOffset="1131" yOffset="320"/>
    <contour>
      <point x="587" y="0" type="move" name="H"/>
    </contour>
    <contour>
      <point x="617" y="-100" type="move" name="L"/>
    </contour>
    <contour>
      <point x="678" y="0" type="move" name="O"/>
    </contour>
    <contour>
      <point x="1258" y="1100" type="move" name="R"/>
    </contour>
    <contour>
      <point x="617" y="1770" type="move" name="U"/>
    </contour>
  </outline>
</glyph>
<glyph name="LtnCapUGrave" format="1">
  <advance width="1339"/>
  <unicode hex="00D9"/>
  <outline>
    <component base="LtnCapU"/>
    <component base="CombGrave.LP" xOffset="1110" yOffset="320"/>
    <contour>
      <point x="677" y="0" type="move" name="H"/>
    </contour>
    <contour>
      <point x="677" y="-100" type="move" name="L"/>
    </contour>
    <contour>
      <point x="760" y="0" type="move" name="O"/>
    </contour>
    <contour>
      <point x="1330" y="1100" type="move" name="R"/>
    </contour>
    <contour>
      <point x="677" y="1690" type="move" name="U"/>
    </contour>
  </outline>
</glyph>
<glyph name="LtnCapUCircum" format="1">
  <advance width="1339"/>
  <unicode hex="00DB"/>
  <outline>
    <component base="LtnCapU"/>
    <component base="CombCircum.LP" xOffset="1191" yOffset="320"/>
    <contour>
      <point x="677" y="0" type="move" name="H"/>
    </contour>
    <contour>
      <point x="1330" y="1100" type="move" name="R"/>
    </contour>
    <contour>
      <point x="677" y="1770" type="move" name="U"/>
    </contour>
    <contour>
      <point x="677" y="-100" type="move" name="L"/>
    </contour>
    <contour>
      <point x="760" y="0" type="move" name="O"/>
    </contour>
  </outline>
</glyph>
<glyph name="LtnSmAGrave" format="1">
  <advance width="940"/>
  <unicode hex="00E0"/>
  <outline>
    <component base="LtnSmA"/>
    <component base="CombGrave" xOffset="913"/>
    <contour>
      <point x="446" y="0" type="move" name="H"/>
    </contour>
    <contour>
      <point x="460" y="-100" type="move" name="L"/>
    </contour>
    <contour>
      <point x="715" y="0" type="move" name="O"/>
    </contour>
    <contour>
      <point x="940" y="900" type="move" name="R"/>
    </contour>
    <contour>
      <point x="480" y="1410" type="move" name="U"/>
    </contour>
  </outline>
</glyph>
<glyph name="LtnSmARingAbv" format="1">
  <advance width="940"/>
  <unicode hex="00E5"/>
  <outline>
    <component base="LtnSmA"/>
    <component base="CombRingAbv" xOffset="995"/>
    <contour>
      <point x="446" y="0" type="move" name="H"/>
    </contour>
    <contour>
      <point x="460" y="-100" type="move" name="L"/>
    </contour>
    <contour>
      <point x="715" y="0" type="move" name="O"/>
    </contour>
    <contour>
      <point x="940" y="900" type="move" name="R"/>
    </contour>
    <contour>
      <point x="480" y="1490" type="move" name="U"/>
    </contour>
  </outline>
</glyph>
<glyph name="LtnSmCCedilla" format="1">
  <advance width="895"/>
  <unicode hex="00E7"/>
  <outline>
    <component base="LtnSmC"/>
    <component base="CombCedilla" xOffset="1003"/>
    <contour>
      <point x="490" y="-600" type="move" name="L"/>
    </contour>
    <contour>
      <point x="948" y="900" type="move" name="R"/>
    </contour>
    <contour>
      <point x="490" y="1050" type="move" name="U"/>
    </contour>
  </outline>
</glyph>
<glyph name="LtnSmIGrave" format="1">
  <advance width="555"/>
  <unicode hex="00EC"/>
  <outline>
    <component base="LtnSmDotlessI"/>
    <component base="CombGrave" xOffset="718"/>
    <contour>
      <point x="285" y="0" type="move" name="H"/>
    </contour>
    <contour>
      <point x="285" y="-100" type="move" name="L"/>
    </contour>
    <contour>
      <point x="335" y="0" type="move" name="O"/>
    </contour>
    <contour>
      <point x="555" y="900" type="move" name="R"/>
    </contour>
    <contour>
      <point x="285" y="1410" type="move" name="U"/>
    </contour>
  </outline>
</glyph>
<glyph name="LtnSmIAcute" format="1">
  <advance width="555"/>
  <unicode hex="00ED"/>
  <outline>
    <component base="LtnSmDotlessI"/>
    <component base="CombAcute" xOffset="828"/>
    <contour>
      <point x="285" y="0" type="move" name="H"/>
    </contour>
    <contour>
      <point x="285" y="-100" type="move" name="L"/>
    </contour>
    <contour>
      <point x="335" y="0" type="move" name="O"/>
    </contour>
    <contour>
      <point x="555" y="900" type="move" name="R"/>
    </contour>
    <contour>
      <point x="285" y="1410" type="move" name="U"/>
    </contour>
  </outline>
</glyph>
<glyph name="LtnSmNTilde" format="1">
  <advance width="1130"/>
  <unicode hex="00F1"/>
  <outline>
    <component base="LtnSmN"/>
    <component base="CombTilde" xOffset="1092"/>
    <contour>
      <point x="885" y="0" type="move" name="H"/>
    </contour>
    <contour>
      <point x="577" y="1410" type="move" name="U"/>
    </contour>
    <contour>
      <point x="577" y="-100" type="move" name="L"/>
    </contour>
  </outline>
</glyph>
<glyph name="LtnSmOCircum" format="1">
  <advance width="1030"/>
  <unicode hex="00F4"/>
  <outline>
    <component base="LtnSmO"/>
    <component base="CombCircum" xOffset="1049"/>
    <contour>
      <point x="535" y="0" type="move" name="H"/>
    </contour>
    <contour>
      <point x="535" y="-100" type="move" name="L"/>
    </contour>
    <contour>
      <point x="575" y="0" type="move" name="O"/>
    </contour>
    <contour>
      <point x="1044" y="900" type="move" name="R"/>
    </contour>
    <contour>
      <point x="535" y="1500" type="move" name="U"/>
    </contour>
  </outline>
</glyph>
<glyph name="LtnSmOStrk" format="1">
  <advance width="1030"/>
  <unicode hex="00F8"/>
  <outline>
    <contour>
      <point x="950" y="617"/>
      <point x="912" y="732"/>
      <point x="844" y="815" type="curve"/>
      <point x="946" y="950" type="line"/>
      <point x="915" y="983" type="line"/>
      <point x="877" y="973"/>
      <point x="829" y="936"/>
      <point x="793" y="913" type="curve"/>
      <point x="772" y="885" type="line"/>
      <point x="707" y="933"/>
      <point x="627" y="960"/>
      <point x="535" y="960" type="curve" smooth="yes"/>
      <point x="285" y="960"/>
      <point x="80" y="709"/>
      <point x="80" y="444" type="curve" smooth="yes"/>
      <point x="80" y="312"/>
      <point x="119" y="196"/>
      <point x="188" y="112" type="curve"/>
      <point x="88" y="-20" type="line"/>
      <point x="117" y="-53" type="line"/>
      <point x="150" y="-43"/>
      <point x="217" y="-2"/>
      <point x="242" y="18" type="curve"/>
      <point x="261" y="43" type="line"/>
      <point x="325" y="-4"/>
      <point x="405" y="-30"/>
      <point x="496" y="-30" type="curve" smooth="yes"/>
      <point x="739" y="-30"/>
      <point x="950" y="219"/>
      <point x="950" y="485" type="curve" smooth="yes"/>
    </contour>
    <contour>
      <point x="257" y="317"/>
      <point x="233" y="393"/>
      <point x="233" y="473" type="curve" smooth="yes"/>
      <point x="233" y="686"/>
      <point x="303" y="850"/>
      <point x="506" y="850" type="curve" smooth="yes"/>
      <point x="565" y="850"/>
      <point x="627" y="816"/>
      <point x="678" y="761" type="curve"/>
      <point x="294" y="253" type="line"/>
    </contour>
    <contour>
      <point x="471" y="80"/>
      <point x="409" y="114"/>
      <point x="357" y="170" type="curve"/>
      <point x="739" y="676" type="line"/>
      <point x="775" y="612"/>
      <point x="797" y="536"/>
      <point x="797" y="455" type="curve" smooth="yes"/>
      <point x="797" y="227"/>
      <point x="713" y="80"/>
      <point x="524" y="80" type="curve" smooth="yes"/>
    </contour>
    <contour>
      <point x="535" y="0" type="move" name="H"/>
    </contour>
    <contour>
      <point x="525" y="-100" type="move" name="L"/>
    </contour>
    <contour>
      <point x="575" y="0" type="move" name="O"/>
    </contour>
    <contour>
      <point x="1060" y="900" type="move" name="R"/>
    </contour>
    <contour>
      <point x="525" y="1050" type="move" name="U"/>
    </contour>
  </outline>
</glyph>
<glyph name="LtnSmUAcute" format="1">
  <advance width="1085"/>
  <unicode hex="00FA"/>
  <outline>
    <component base="LtnSmU"/>
    <component base="CombAcute" xOffset="1088"/>
    <contour>
      <point x="546" y="0" type="move" name="H"/>
    </contour>
    <contour>
      <point x="545" y="-100" type="move" name="L"/>
    </contour>
    <contour>
      <point x="860" y="0" type="move" name="O"/>
    </contour>
    <contour>
      <point x="1084" y="900" type="move" name="R"/>
    </contour>
    <contour>
      <point x="545" y="1410" type="move" name="U"/>
    </contour>
  </outline>
</glyph>
<glyph name="LtnSmUCircum" format="1">
  <advance width="1085"/>
  <unicode hex="00FB"/>
  <outline>
    <component base="LtnSmU"/>
    <component base="CombCircum" xOffset="1059"/>
    <contour>
      <point x="546" y="0" type="move" name="H"/>
    </contour>
    <contour>
      <point x="1084" y="900" type="move" name="R"/>
    </contour>
    <contour>
      <point x="545" y="1500" type="move" name="U"/>
    </contour>
    <contour>
      <point x="545" y="-100" type="move" name="L"/>
    </contour>
    <contour>
      <point x="860" y="0" type="move" name="O"/>
    </contour>
  </outline>
</glyph>
<glyph name="LtnSmUDiaer" format="1">
  <advance width="1085"/>
  <unicode hex="00FC"/>
  <outline>
    <component base="LtnSmU"/>
    <component base="CombDiaer" xOffset="1060"/>
    <contour>
      <point x="546" y="0" type="move" name="H"/>
    </contour>
    <contour>
      <point x="545" y="-100" type="move" name="L"/>
    </contour>
    <contour>
      <point x="860" y="0" type="move" name="O"/>
    </contour>
    <contour>
      <point x="1084" y="900" type="move" name="R"/>
    </contour>
    <contour>
      <point x="545" y="1410" type="move" name="U"/>
    </contour>
  </outline>
</glyph>
<glyph name="LtnCapABreve" format="1">
  <advance width="1219"/>
  <unicode hex="0102"/>
  <outline>
    <component base="LtnCapA"/>
    <component base="CombBreve" xOffset="1114" yOffset="320"/>
    <contour>
      <point x="599" y="0" type="move" name="H"/>
    </contour>
    <contour>
      <point x="599" y="-100" type="move" name="L"/>
    </contour>
    <contour>
      <point x="960" y="0" type="move" name="O"/>
    </contour>
    <contour>
      <point x="599" y="1690" type="move" name="U"/>
    </contour>
  </outline>
</glyph>
<glyph name="LtnSmABreve" format="1">
  <advance width="940"/>
  <unicode hex="0103"/>
  <outline>
    <component base="LtnSmA"/>
    <component base="CombBreve" xOffset="995"/>
    <contour>
      <point x="446" y="0" type="move" name="H"/>
    </contour>
    <contour>
      <point x="460" y="-100" type="move" name="L"/>
    </contour>
    <contour>
      <point x="715" y="0" type="move" name="O"/>
    </contour>
    <contour>
      <point x="940" y="900" type="move" name="R"/>
    </contour>
    <contour>
      <point x="480" y="1370" type="move" name="U"/>
    </contour>
  </outline>
</glyph>
<glyph name="LtnSmAOgonek" format="1">
  <advance width="940"/>
  <unicode hex="0105"/>
  <outline>
    <component base="LtnSmA"/>
    <component base="CombOgonek" xOffset="1179"/>
    <contour>
      <point x="446" y="0" type="move" name="H"/>
    </contour>
    <contour>
      <point x="940" y="900" type="move" name="R"/>
    </contour>
    <contour>
      <point x="480" y="1050" type="move" name="U"/>
    </contour>
    <contour>
      <point x="665" y="-600" type="move" name="L"/>
    </contour>
  </outline>
</glyph>
<glyph name="LtnSmCDotAbv" format="1">
  <advance width="895"/>
  <unicode hex="010B"/>
  <outline>
    <component base="LtnSmC"/>
    <component base="CombDotAbv" xOffset="1005"/>
    <contour>
      <point x="490" y="0" type="move" name="H"/>
    </contour>
    <contour>
      <point x="490" y="-100" type="move" name="L"/>
    </contour>
    <contour>
      <point x="948" y="900" type="move" name="R"/>
    </contour>
    <contour>
      <point x="490" y="1410" type="move" name="U"/>
    </contour>
  </outline>
</glyph>
<glyph name="LtnCapCCaron" format="1">
  <advance width="1098"/>
  <unicode hex="010C"/>
  <outline>
    <component base="LtnCapC"/>
    <component base="CombCaron.LP" xOffset="1128" yOffset="320"/>
    <contour>
      <point x="584" y="0" type="move" name="H"/>
    </contour>
    <contour>
      <point x="614" y="-100" type="move" name="L"/>
    </contour>
    <contour>
      <point x="614" y="1690" type="move" name="U"/>
    </contour>
  </outline>
</glyph>
<glyph name="LtnCapDStrk" format="1">
  <advance width="1214"/>
  <unicode hex="0110"/>
  <outline>
    <contour>
      <point x="639" y="682" type="line"/>
      <point x="614" y="705" type="line"/>
      <point x="49" y="705" type="line"/>
      <point x="41" y="684"/>
      <point x="33" y="660"/>
      <point x="27" y="640" type="curve"/>
      <point x="49" y="615" type="line"/>
      <point x="614" y="615" type="line"/>
    </contour>
    <component base="LtnCapD"/>
    <contour>
      <point x="575" y="-100" type="move" name="L"/>
    </contour>
    <contour>
      <point x="575" y="1370" type="move" name="U"/>
    </contour>
  </outline>
</glyph>
<glyph name="LtnCapEMacron" format="1">
  <advance width="1016"/>
  <unicode hex="0112"/>
  <outline>
    <component base="LtnCapE"/>
    <component base="CombMacron.LP" xOffset="1027" yOffset="320"/>
    <contour>
      <point x="502" y="0" type="move" name="H"/>
    </contour>
    <contour>
      <point x="502" y="-100" type="move" name="L"/>
    </contour>
    <contour>
      <point x="750" y="0" type="move" name="O"/>
    </contour>
    <contour>
      <point x="1016" y="1100" type="move" name="R"/>
    </contour>
    <contour>
      <point x="502" y="1690" type="move" name="U"/>
    </contour>
  </outline>
</glyph>
<glyph name="LtnCapEBreve" format="1">
  <advance width="1016"/>
  <unicode hex="0114"/>
  <outline>
    <component base="LtnCapE"/>
    <component base="CombBreve" xOffset="1017" yOffset="320"/>
    <contour>
      <point x="502" y="0" type="move" name="H"/>
    </contour>
    <contour>
      <point x="502" y="-100" type="move" name="L"/>
    </contour>
    <contour>
      <point x="750" y="0" type="move" name="O"/>
    </contour>
    <contour>
      <point x="1016" y="1100" type="move" name="R"/>
    </contour>
    <contour>
      <point x="502" y="1690" type="move" name="U"/>
    </contour>
  </outline>
</glyph>
<glyph name="LtnCapEOgonek" format="1">
  <advance width="1016"/>
  <unicode hex="0118"/>
  <outline>
    <component base="LtnCapE"/>
    <component base="CombOgonek" xOffset="1214"/>
    <contour>
      <point x="502" y="0" type="move" name="H"/>
    </contour>
    <contour>
      <point x="1016" y="1100" type="move" name="R"/>
    </contour>
    <contour>
      <point x="502" y="1370" type="move" name="U"/>
    </contour>
    <contour>
      <point x="700" y="-600" type="move" name="L"/>
    </contour>
  </outline>
</glyph>
<glyph name="LtnSmGCircum" format="1">
  <advance width="999"/>
  <unicode hex="011D"/>
  <outline>
    <component base="LtnSmG"/>
    <component base="CombCircum" xOffset="1014"/>
    <contour>
      <point x="500" y="-470" type="move" name="H"/>
    </contour>
    <contour>
      <point x="999" y="900" type="move" name="R"/>
    </contour>
    <contour>
      <point x="500" y="1500" type="move" name="U"/>
    </contour>
    <contour>
      <point x="500" y="-600" type="move" name="L"/>
    </contour>
  </outline>
</glyph>
<glyph name="LtnCapGDotAbv" format="1">
  <advance width="1194"/>
  <unicode hex="0120"/>
  <outline>
    <component base="LtnCapG"/>
    <component base="CombDotAbv.LP" xOffset="1155" yOffset="320"/>
    <contour>
      <point x="620" y="0" type="move" name="H"/>
    </contour>
    <contour>
      <point x="640" y="-100" type="move" name="L"/>
    </contour>
    <contour>
      <point x="640" y="1690" type="move" name="U"/>
    </contour>
  </outline>
</glyph>
<glyph name="LtnSmGDotAbv" format="1">
  <advance width="999"/>
  <unicode hex="0121"/>
  <outline>
    <component base="LtnSmG"/>
    <component base="CombDotAbv" xOffset="1015"/>
    <contour>
      <point x="500" y="-470" type="move" name="H"/>
    </contour>
    <contour>
      <point x="999" y="900" type="move" name="R"/>
    </contour>
    <contour>
      <point x="500" y="1410" type="move" name="U"/>
    </contour>
    <contour>
      <point x="500" y="-600" type="move" name="L"/>
    </contour>
  </outline>
</glyph>
<glyph name="LtnCapIOgonek" format="1">
  <advance width="610"/>
  <unicode hex="012E"/>
  <outline>
    <component base="LtnCapI"/>
    <component base="CombOgonek" xOffset="809"/>
    <contour>
      <point x="295" y="0" type="move" name="H"/>
    </contour>
    <contour>
      <point x="295" y="-600" type="move" name="L"/>
    </contour>
    <contour>
      <point x="580" y="1100" type="move" name="R"/>
    </contour>
    <contour>
      <point x="295" y="1370" type="move" name="U"/>
    </contour>
  </outline>
</glyph>
<glyph name="LtnSmIOgonek" format="1">
  <advance width="555"/>
  <unicode hex="012F"/>
  <outline>
    <component base="LtnSmI"/>
    <component base="CombOgonek" xOffset="799"/>
    <contour>
      <point x="285" y="0" type="move" name="H"/>
    </contour>
    <contour>
      <point x="285" y="-600" type="move" name="L"/>
    </contour>
    <contour>
      <point x="555" y="900" type="move" name="R"/>
    </contour>
    <contour>
      <point x="285" y="1050" type="move" name="U"/>
    </contour>
  </outline>
</glyph>
<glyph name="LtnCapIDotAbv" format="1">
  <advance width="610"/>
  <unicode hex="0130"/>
  <outline>
    <component base="LtnCapI"/>
    <component base="CombDotAbv.LP" xOffset="810" yOffset="320"/>
    <contour>
      <point x="295" y="0" type="move" name="H"/>
    </contour>
    <contour>
      <point x="580" y="1100" type="move" name="R"/>
    </contour>
    <contour>
      <point x="295" y="1690" type="move" name="U"/>
    </contour>
    <contour>
      <point x="295" y="-100" type="move" name="L"/>
    </contour>
    <contour>
      <point x="345" y="0" type="move" name="O"/>
    </contour>
  </outline>
</glyph>
<glyph name="LtnSmLigIj" format="1">
  <advance width="1085"/>
  <unicode hex="0133"/>
  <outline>
    <component base="LtnSmI"/>
    <component base="LtnSmJ" xOffset="555"/>
    <contour>
      <point x="265" y="0" type="move" name="H"/>
    </contour>
    <contour>
      <point x="835" y="-600" type="move" name="L"/>
    </contour>
    <contour>
      <point x="335" y="0" type="move" name="O"/>
    </contour>
    <contour>
      <point x="555" y="1410" type="move" name="U"/>
    </contour>
  </outline>
</glyph>
<glyph name="LtnCapKCedilla" format="1">
  <advance width="1184"/>
  <unicode hex="0136"/>
  <outline>
    <component base="LtnCapK"/>
    <component base="CombCommaBlw" xOffset="1132"/>
    <contour>
      <point x="275" y="0" type="move" name="H"/>
    </contour>
    <contour>
      <point x="590" y="1370" type="move" name="U"/>
    </contour>
    <contour>
      <point x="612" y="-600" type="move" name="L"/>
    </contour>
  </outline>
</glyph>
<glyph name="LtnCapLAcute" format="1">
  <advance width="975"/>
  <unicode hex="0139"/>
  <outline>
    <component base="LtnCapL"/>
    <component base="CombAcute.LP" xOffset="1010" yOffset="320"/>
    <contour>
      <point x="497" y="0" type="move" name="H"/>
    </contour>
    <contour>
      <point x="497" y="-100" type="move" name="L"/>
    </contour>
    <contour>
      <point x="750" y="900" type="move" name="R"/>
    </contour>
    <contour>
      <point x="467" y="1690" type="move" name="U"/>
    </contour>
  </outline>
</glyph>
<glyph name="LtnSmLAcute" format="1">
  <advance width="555"/>
  <unicode hex="013A"/>
  <outline>
    <component base="LtnSmL"/>
    <component base="CombAcute.LP" xOffset="828" yOffset="640"/>
    <contour>
      <point x="285" y="0" type="move" name="H"/>
    </contour>
    <contour>
      <point x="535" y="900" type="move" name="R"/>
    </contour>
    <contour>
      <point x="285" y="2010" type="move" name="U"/>
    </contour>
    <contour>
      <point x="285" y="-100" type="move" name="L"/>
    </contour>
  </outline>
</glyph>
<glyph name="LtnCapLCedilla" format="1">
  <advance width="975"/>
  <unicode hex="013B"/>
  <outline>
    <component base="LtnCapL"/>
    <component base="CombCommaBlw" xOffset="1017"/>
    <contour>
      <point x="497" y="0" type="move" name="H"/>
    </contour>
    <contour>
      <point x="497" y="-600" type="move" name="L"/>
    </contour>
    <contour>
      <point x="750" y="900" type="move" name="R"/>
    </contour>
    <contour>
      <point x="467" y="1370" type="move" name="U"/>
    </contour>
  </outline>
</glyph>
<glyph name="LtnSmLCedilla" format="1">
  <advance width="555"/>
  <unicode hex="013C"/>
  <outline>
    <component base="LtnSmL"/>
    <component base="CombCommaBlw" xOffset="805"/>
    <contour>
      <point x="285" y="0" type="move" name="H"/>
    </contour>
    <contour>
      <point x="285" y="-600" type="move" name="L"/>
    </contour>
    <contour>
      <point x="535" y="900" type="move" name="R"/>
    </contour>
    <contour>
      <point x="285" y="1690" type="move" name="U"/>
    </contour>
  </outline>
</glyph>
<glyph name="LtnCapLCaron" format="1">
  <advance width="975"/>
  <unicode hex="013D"/>
  <outline>
    <component base="LtnCapL"/>
    <component base="CombCommaAbvRt" xOffset="750"/>
    <contour>
      <point x="497" y="-100" type="move" name="L"/>
    </contour>
    <contour>
      <point x="412" y="1370" type="move" name="U"/>
    </contour>
    <contour>
      <point x="496" y="0" type="move" name="H"/>
    </contour>
  </outline>
</glyph>
<glyph name="LtnSmLMiddleDot" format="1">
  <advance width="855"/>
  <unicode hex="0140"/>
  <outline>
    <component base="LtnSmL"/>
    <component base="MiddleDot" xOffset="555"/>
    <contour>
      <point x="285" y="0" type="move" name="H"/>
    </contour>
    <contour>
      <point x="285" y="-100" type="move" name="L"/>
    </contour>
    <contour>
      <point x="285" y="1620" type="move" name="U"/>
    </contour>
  </outline>
</glyph>
<glyph name="LtnSmNAcute" format="1">
  <advance width="1130"/>
  <unicode hex="0144"/>
  <outline>
    <component base="LtnSmN"/>
    <component base="CombAcute" xOffset="1120"/>
    <contour>
      <point x="885" y="0" type="move" name="H"/>
    </contour>
    <contour>
      <point x="577" y="-100" type="move" name="L"/>
    </contour>
    <contour>
      <point x="577" y="1410" type="move" name="U"/>
    </contour>
  </outline>
</glyph>
<glyph name="LtnCapRAcute" format="1">
  <advance width="1149"/>
  <unicode hex="0154"/>
  <outline>
    <component base="LtnCapR"/>
    <component base="CombAcute.LP" xOffset="1063" yOffset="320"/>
    <contour>
      <point x="275" y="0" type="move" name="H"/>
    </contour>
    <contour>
      <point x="520" y="-100" type="move" name="L"/>
    </contour>
    <contour>
      <point x="520" y="1690" type="move" name="U"/>
    </contour>
  </outline>
</glyph>
<glyph name="LtnSmRAcute" format="1">
  <advance width="811"/>
  <unicode hex="0155"/>
  <outline>
    <component base="LtnSmR"/>
    <component base="CombAcute" xOffset="993"/>
    <contour>
      <point x="270" y="0" type="move" name="H"/>
    </contour>
    <contour>
      <point x="270" y="-100" type="move" name="L"/>
    </contour>
    <contour>
      <point x="450" y="1410" type="move" name="U"/>
    </contour>
  </outline>
</glyph>
<glyph name="LtnSmRCedilla" format="1">
  <advance width="811"/>
  <unicode hex="0157"/>
  <outline>
    <component base="LtnSmR"/>
    <component base="CombCommaBlw" xOffset="790"/>
    <contour>
      <point x="270" y="0" type="move" name="H"/>
    </contour>
    <contour>
      <point x="270" y="-600" type="move" name="L"/>
    </contour>
    <contour>
      <point x="450" y="1050" type="move" name="U"/>
    </contour>
  </outline>
</glyph>
<glyph name="LtnCapRCaron" format="1">
  <advance width="1149"/>
  <unicode hex="0158"/>
  <outline>
    <component base="LtnCapR"/>
    <component base="CombCaron.LP" xOffset="1034" yOffset="320"/>
    <contour>
      <point x="275" y="0" type="move" name="H"/>
    </contour>
    <contour>
      <point x="520" y="-100" type="move" name="L"/>
    </contour>
    <contour>
      <point x="520" y="1690" type="move" name="U"/>
    </contour>
  </outline>
</glyph>
<glyph name="LtnSmSAcute" format="1">
  <advance width="791"/>
  <unicode hex="015B"/>
  <outline>
    <component base="LtnSmS"/>
    <component base="CombAcute" xOffset="940"/>
    <contour>
      <point x="385" y="0" type="move" name="H"/>
    </contour>
    <contour>
      <point x="397" y="-100" type="move" name="L"/>
    </contour>
    <contour>
      <point x="397" y="1410" type="move" name="U"/>
    </contour>
  </outline>
</glyph>
<glyph name="LtnSmSCircum" format="1">
  <advance width="791"/>
  <unicode hex="015D"/>
  <outline>
    <component base="LtnSmS"/>
    <component base="CombCircum" xOffset="911"/>
    <contour>
      <point x="385" y="0" type="move" name="H"/>
    </contour>
    <contour>
      <point x="397" y="1500" type="move" name="U"/>
    </contour>
    <contour>
      <point x="397" y="-100" type="move" name="L"/>
    </contour>
  </outline>
</glyph>
<glyph name="LtnSmSCedilla" format="1">
  <advance width="791"/>
  <unicode hex="015F"/>
  <outline>
    <component base="LtnSmS"/>
    <component base="CombCedilla" xOffset="898"/>
    <contour>
      <point x="385" y="-600" type="move" name="L"/>
    </contour>
    <contour>
      <point x="397" y="1050" type="move" name="U"/>
    </contour>
  </outline>
</glyph>
<glyph name="LtnCapSCaron" format="1">
  <advance width="975"/>
  <unicode hex="0160"/>
  <outline>
    <component base="LtnCapS"/>
    <component base="CombCaron.LP" xOffset="1014" yOffset="320"/>
    <contour>
      <point x="480" y="0" type="move" name="H"/>
    </contour>
    <contour>
      <point x="500" y="1690" type="move" name="U"/>
    </contour>
    <contour>
      <point x="500" y="-100" type="move" name="L"/>
    </contour>
  </outline>
</glyph>
<glyph name="LtnSmTCedilla" format="1">
  <advance width="705"/>
  <unicode hex="0163"/>
  <outline>
    <component base="LtnSmT"/>
    <component base="CombCedilla" xOffset="861"/>
    <contour>
      <point x="348" y="-600" type="move" name="L"/>
    </contour>
    <contour>
      <point x="500" y="900" type="move" name="R"/>
    </contour>
    <contour>
      <point x="348" y="1320" type="move" name="U"/>
    </contour>
  </outline>
</glyph>
<glyph name="LtnSmTCaron" format="1">
  <advance width="705"/>
  <unicode hex="0165"/>
  <outline>
    <component base="LtnSmT"/>
    <component base="CombCommaAbvRt" xOffset="500"/>
    <contour>
      <point x="348" y="0" type="move" name="H"/>
    </contour>
    <contour>
      <point x="348" y="-100" type="move" name="L"/>
    </contour>
    <contour>
      <point x="348" y="1320" type="move" name="U"/>
    </contour>
  </outline>
</glyph>
<glyph name="LtnSmUTilde" format="1">
  <advance width="1085"/>
  <unicode hex="0169"/>
  <outline>
    <component base="LtnSmU"/>
    <component base="CombTilde" xOffset="1060"/>
    <contour>
      <point x="546" y="0" type="move" name="H"/>
    </contour>
    <contour>
      <point x="1084" y="900" type="move" name="R"/>
    </contour>
    <contour>
      <point x="545" y="1410" type="move" name="U"/>
    </contour>
    <contour>
      <point x="545" y="-100" type="move" name="L"/>
    </contour>
    <contour>
      <point x="860" y="0" type="move" name="O"/>
    </contour>
  </outline>
</glyph>
<glyph name="LtnCapUBreve" format="1">
  <advance width="1339"/>
  <unicode hex="016C"/>
  <outline>
    <component base="LtnCapU"/>
    <component base="CombBreve" xOffset="1192" yOffset="320"/>
    <contour>
      <point x="677" y="0" type="move" name="H"/>
    </contour>
    <contour>
      <point x="1330" y="1100" type="move" name="R"/>
    </contour>
    <contour>
      <point x="677" y="1690" type="move" name="U"/>
    </contour>
    <contour>
      <point x="677" y="-100" type="move" name="L"/>
    </contour>
    <contour>
      <point x="760" y="0" type="move" name="O"/>
    </contour>
  </outline>
</glyph>
<glyph name="LtnCapURingAbv" format="1">
  <advance width="1339"/>
  <unicode hex="016E"/>
  <outline>
    <component base="LtnCapU"/>
    <component base="CombRingAbv" xOffset="1192" yOffset="320"/>
    <contour>
      <point x="677" y="0" type="move" name="H"/>
    </contour>
    <contour>
      <point x="677" y="-100" type="move" name="L"/>
    </contour>
    <contour>
      <point x="760" y="0" type="move" name="O"/>
    </contour>
    <contour>
      <point x="1330" y="1100" type="move" name="R"/>
    </contour>
    <contour>
      <point x="677" y="1810" type="move" name="U"/>
    </contour>
  </outline>
</glyph>
<glyph name="LtnCapUDblAcute" format="1">
  <advance width="1339"/>
  <unicode hex="0170"/>
  <outline>
    <component base="LtnCapU"/>
    <component base="CombDblAcute" xOffset="1177" yOffset="320"/>
    <contour>
      <point x="677" y="0" type="move" name="H"/>
    </contour>
    <contour>
      <point x="677" y="-100" type="move" name="L"/>
    </contour>
    <contour>
      <point x="760" y="0" type="move" name="O"/>
    </contour>
    <contour>
      <point x="1330" y="1100" type="move" name="R"/>
    </contour>
    <contour>
      <point x="677" y="1908" type="move" name="U"/>
    </contour>
  </outline>
</glyph>
<glyph name="LtnSmUDblAcute" format="1">
  <advance width="1085"/>
  <unicode hex="0171"/>
  <outline>
    <component base="LtnSmU"/>
    <component base="CombDblAcute" xOffset="1045"/>
    <contour>
      <point x="546" y="0" type="move" name="H"/>
    </contour>
    <contour>
      <point x="545" y="-100" type="move" name="L"/>
    </contour>
    <contour>
      <point x="860" y="0" type="move" name="O"/>
    </contour>
    <contour>
      <point x="1084" y="900" type="move" name="R"/>
    </contour>
    <contour>
      <point x="545" y="1588" type="move" name="U"/>
    </contour>
  </outline>
</glyph>
<glyph name="LtnCapYCircum" format="1">
  <advance width="1217"/>
  <unicode hex="0176"/>
  <outline>
    <component base="LtnCapY"/>
    <component base="CombCircum.LP" xOffset="1118" yOffset="320"/>
    <contour>
      <point x="604" y="1770" type="move" name="U"/>
    </contour>
    <contour>
      <point x="604" y="-100" type="move" name="L"/>
    </contour>
  </outline>
</glyph>
<glyph name="LtnCapZAcute" format="1">
  <advance width="1071"/>
  <unicode hex="0179"/>
  <outline>
    <component base="LtnCapZ"/>
    <component base="CombAcute.LP" xOffset="1098" yOffset="320"/>
    <contour>
      <point x="535" y="-100" type="move" name="L"/>
    </contour>
    <contour>
      <point x="555" y="1690" type="move" name="U"/>
    </contour>
  </outline>
</glyph>
<glyph name="LtnCapZCaron" format="1">
  <advance width="1071"/>
  <unicode hex="017D"/>
  <outline>
    <component base="LtnCapZ"/>
    <component base="CombCaron.LP" xOffset="1069" yOffset="320"/>
    <contour>
      <point x="535" y="-100" type="move" name="L"/>
    </contour>
    <contour>
      <point x="555" y="1690" type="move" name="U"/>
    </contour>
  </outline>
</glyph>
<glyph name="LtnSmOHorn" format="1">
  <advance width="1100"/>
  <unicode hex="01A1"/>
  <outline>
    <component base="LtnSmO"/>
    <component base="CombHorn" xOffset="1073"/>
    <contour>
      <point x="535" y="-100" type="move" name="L"/>
    </contour>
    <contour>
      <point x="535" y="1050" type="move" name="U"/>
    </contour>
  </outline>
</glyph>
<glyph name="LtnSmDzCaron" format="1">
  <advance width="1970"/>
  <unicode hex="01C6"/>
  <outline>
    <component base="LtnSmD"/>
    <component base="LtnSmZ" xOffset="1065"/>
    <component base="CombCaron" xOffset="2059"/>
    <contour>
      <point x="1516" y="0" type="move" name="H"/>
    </contour>
    <contour>
      <point x="1545" y="1370" type="move" name="U"/>
    </contour>
    <contour>
      <point x="1517" y="-100" type="move" name="L"/>
    </contour>
  </outline>
</glyph>
<glyph name="LtnSmLj" format="1">
  <advance width="1085"/>
  <unicode hex="01C9"/>
  <outline>
    <component base="LtnSmL"/>
    <component base="LtnSmJ" xOffset="555"/>
    <contour>
      <point x="835" y="-600" type="move" name="L"/>
    </contour>
    <contour>
      <point x="836" y="1049" type="move" name="U"/>
    </contour>
    <contour>
      <point x="265" y="0" type="move" name="H"/>
    </contour>
  </outline>
</glyph>
<glyph name="LtnCapNj" format="1">
  <advance width="1954"/>
  <unicode hex="01CA"/>
  <outline>
    <component base="LtnCapN"/>
    <component base="LtnCapJ" xOffset="1329"/>
    <contour>
      <point x="1047" y="0" type="move" name="H"/>
    </contour>
    <contour>
      <point x="1659" y="-600" type="move" name="L"/>
    </contour>
    <contour>
      <point x="1659" y="1370" type="move" name="U"/>
    </contour>
  </outline>
</glyph>
<glyph name="LtnSmNj" format="1">
  <advance width="1660"/>
  <unicode hex="01CC"/>
  <outline>
    <component base="LtnSmN" xOffset="-64"/>
    <component base="LtnSmJ" xOffset="1130"/>
    <contour>
      <point x="865" y="0" type="move" name="H"/>
    </contour>
    <contour>
      <point x="1410" y="-600" type="move" name="L"/>
    </contour>
    <contour>
      <point x="1411" y="1049" type="move" name="U"/>
    </contour>
  </outline>
</glyph>
<glyph name="LtnCapACaron" format="1">
  <advance width="1219"/>
  <unicode hex="01CD"/>
  <outline>
    <component base="LtnCapA"/>
    <component base="CombCaron.LP" xOffset="1113" yOffset="320"/>
    <contour>
      <point x="599" y="0" type="move" name="H"/>
    </contour>
    <contour>
      <point x="599" y="-100" type="move" name="L"/>
    </contour>
    <contour>
      <point x="960" y="0" type="move" name="O"/>
    </contour>
    <contour>
      <point x="599" y="1690" type="move" name="U"/>
    </contour>
  </outline>
</glyph>
<glyph name="LtnSmICaron" format="1">
  <advance width="555"/>
  <unicode hex="01D0"/>
  <outline>
    <component base="LtnSmDotlessI"/>
    <component base="CombCaron" xOffset="799"/>
    <contour>
      <point x="285" y="0" type="move" name="H"/>
    </contour>
    <contour>
      <point x="555" y="900" type="move" name="R"/>
    </contour>
    <contour>
      <point x="285" y="1450" type="move" name="U"/>
    </contour>
    <contour>
      <point x="285" y="-100" type="move" name="L"/>
    </contour>
    <contour>
      <point x="335" y="0" type="move" name="O"/>
    </contour>
  </outline>
</glyph>
<glyph name="LtnCapUDiaerAcute" format="1">
  <advance width="1339"/>
  <unicode hex="01D7"/>
  <outline>
    <component base="LtnCapU"/>
    <component base="CombDiaer.LP" xOffset="1192" yOffset="320"/>
    <component base="CombAcute.LP" xOffset="1220" yOffset="640"/>
    <contour>
      <point x="677" y="0" type="move" name="H"/>
    </contour>
    <contour>
      <point x="677" y="-100" type="move" name="L"/>
    </contour>
    <contour>
      <point x="760" y="0" type="move" name="O"/>
    </contour>
    <contour>
      <point x="1330" y="1100" type="move" name="R"/>
    </contour>
    <contour>
      <point x="677" y="2010" type="move" name="U"/>
    </contour>
  </outline>
</glyph>
<glyph name="LtnCapUDiaerGrave" format="1">
  <advance width="1339"/>
  <unicode hex="01DB"/>
  <outline>
    <component base="LtnCapU"/>
    <component base="CombDiaer.LP" xOffset="1192" yOffset="320"/>
    <component base="CombGrave.LP" xOffset="1110" yOffset="640"/>
    <contour>
      <point x="677" y="0" type="move" name="H"/>
    </contour>
    <contour>
      <point x="677" y="-100" type="move" name="L"/>
    </contour>
    <contour>
      <point x="760" y="0" type="move" name="O"/>
    </contour>
    <contour>
      <point x="1330" y="1100" type="move" name="R"/>
    </contour>
    <contour>
      <point x="677" y="2010" type="move" name="U"/>
    </contour>
  </outline>
</glyph>
<glyph name="LtnSmTurnedE" format="1">
  <advance width="930"/>
  <unicode hex="01DD"/>
  <outline>
    <component base="LtnSmSchwa"/>
    <contour>
      <point x="460" y="-100" type="move" name="L"/>
    </contour>
    <contour>
      <point x="460" y="1050" type="move" name="U"/>
    </contour>
  </outline>
</glyph>
<glyph name="LtnSmAeMacron" format="1">
  <advance width="1417"/>
  <unicode hex="01E3"/>
  <outline>
    <component base="LtnSmAe"/>
    <component base="CombMacron" xOffset="1263"/>
    <contour>
      <point x="738" y="0" type="move" name="H"/>
    </contour>
    <contour>
      <point x="738" y="-100" type="move" name="L"/>
    </contour>
    <contour>
      <point x="1020" y="0" type="move" name="O"/>
    </contour>
    <contour>
      <point x="1417" y="900" type="move" name="R"/>
    </contour>
    <contour>
      <point x="738" y="1410" type="move" name="U"/>
    </contour>
  </outline>
</glyph>
<glyph name="LtnCapGCaron" format="1">
  <advance width="1194"/>
  <unicode hex="01E6"/>
  <outline>
    <component base="LtnCapG"/>
    <component base="CombCaron.LP" xOffset="1154" yOffset="320"/>
    <contour>
      <point x="620" y="0" type="move" name="H"/>
    </contour>
    <contour>
      <point x="640" y="-100" type="move" name="L"/>
    </contour>
    <contour>
      <point x="640" y="1690" type="move" name="U"/>
    </contour>
  </outline>
</glyph>
<glyph name="LtnCapOOgonek" format="1">
  <advance width="1229"/>
  <unicode hex="01EA"/>
  <outline>
    <component base="LtnCapO"/>
    <component base="CombOgonek" xOffset="1142"/>
    <contour>
      <point x="587" y="0" type="move" name="H"/>
    </contour>
    <contour>
      <point x="628" y="-600" type="move" name="L"/>
    </contour>
    <contour>
      <point x="1258" y="1100" type="move" name="R"/>
    </contour>
    <contour>
      <point x="617" y="1370" type="move" name="U"/>
    </contour>
  </outline>
</glyph>
<glyph name="LtnCapOOgonekMacron" format="1">
  <advance width="1229"/>
  <unicode hex="01EC"/>
  <outline>
    <component base="LtnCapO"/>
    <component base="CombMacron.LP" xOffset="1142" yOffset="320"/>
    <component base="CombOgonek" xOffset="1142"/>
    <contour>
      <point x="587" y="0" type="move" name="H"/>
    </contour>
    <contour>
      <point x="1258" y="1100" type="move" name="R"/>
    </contour>
    <contour>
      <point x="617" y="1690" type="move" name="U"/>
    </contour>
    <contour>
      <point x="628" y="-600" type="move" name="L"/>
    </contour>
  </outline>
</glyph>
<glyph name="LtnCapEzhCaron" format="1">
  <advance width="1066"/>
  <unicode hex="01EE"/>
  <outline>
    <component base="LtnCapEzh"/>
    <component base="CombCaron.LP" xOffset="1049" yOffset="320"/>
    <contour>
      <point x="520" y="-100" type="move" name="L"/>
    </contour>
    <contour>
      <point x="535" y="1690" type="move" name="U"/>
    </contour>
  </outline>
</glyph>
<glyph name="LtnCapDz" format="1">
  <advance width="2285"/>
  <unicode hex="01F1"/>
  <outline>
    <component base="LtnCapD"/>
    <component base="LtnCapZ" xOffset="1214"/>
    <contour>
      <point x="1749" y="-100" type="move" name="L"/>
    </contour>
    <contour>
      <point x="1769" y="1370" type="move" name="U"/>
    </contour>
  </outline>
</glyph>
<glyph name="LtnSmGAcute" format="1">
  <advance width="999"/>
  <unicode hex="01F5"/>
  <outline>
    <component base="LtnSmG"/>
    <component base="CombAcute" xOffset="1043"/>
    <contour>
      <point x="500" y="-470" type="move" name="H"/>
    </contour>
    <contour>
      <point x="500" y="-600" type="move" name="L"/>
    </contour>
    <contour>
      <point x="999" y="900" type="move" name="R"/>
    </contour>
    <contour>
      <point x="500" y="1410" type="move" name="U"/>
    </contour>
  </outline>
</glyph>
<glyph name="LtnCapNGrave" format="1">
  <advance width="1329"/>
  <unicode hex="01F8"/>
  <outline>
    <component base="LtnCapN"/>
    <component base="CombGrave.LP" xOffset="1098" yOffset="320"/>
    <contour>
      <point x="1047" y="0" type="move" name="H"/>
    </contour>
    <contour>
      <point x="665" y="-100" type="move" name="L"/>
    </contour>
    <contour>
      <point x="665" y="1690" type="move" name="U"/>
    </contour>
  </outline>
</glyph>
<glyph name="LtnSmNGrave" format="1">
  <advance width="1130"/>
  <unicode hex="01F9"/>
  <outline>
    <component base="LtnSmN"/>
    <component base="CombGrave" xOffset="1010"/>
    <contour>
      <point x="885" y="0" type="move" name="H"/>
    </contour>
    <contour>
      <point x="577" y="-100" type="move" name="L"/>
    </contour>
    <contour>
      <point x="577" y="1410" type="move" name="U"/>
    </contour>
  </outline>
</glyph>
<glyph name="LtnCapARingAbvAcute" format="1">
  <advance width="1219"/>
  <unicode hex="01FA"/>
  <outline>
    <component base="LtnCapA"/>
    <component base="CombRingAbv" xOffset="1114" yOffset="320"/>
    <component base="CombAcute.LP" xOffset="1142" yOffset="760"/>
    <contour>
      <point x="599" y="0" type="move" name="H"/>
    </contour>
    <contour>
      <point x="599" y="2130" type="move" name="U"/>
    </contour>
    <contour>
      <point x="599" y="-100" type="move" name="L"/>
    </contour>
    <contour>
      <point x="960" y="0" type="move" name="O"/>
    </contour>
  </outline>
</glyph>
<glyph name="LtnSmARingAbvAcute" format="1">
  <advance width="940"/>
  <unicode hex="01FB"/>
  <outline>
    <component base="LtnSmA"/>
    <component base="CombRingAbv" xOffset="995"/>
    <component base="CombAcute.LP" xOffset="1023" yOffset="440"/>
    <contour>
      <point x="446" y="0" type="move" name="H"/>
    </contour>
    <contour>
      <point x="460" y="-100" type="move" name="L"/>
    </contour>
    <contour>
      <point x="715" y="0" type="move" name="O"/>
    </contour>
    <contour>
      <point x="940" y="900" type="move" name="R"/>
    </contour>
    <contour>
      <point x="480" y="1810" type="move" name="U"/>
    </contour>
  </outline>
</glyph>
<glyph name="LtnCapOStrkAcute" format="1">
  <advance width="1229"/>
  <unicode hex="01FE"/>
  <outline>
    <component base="LtnCapOStrk"/>
    <component base="CombAcute.LP" xOffset="1147" yOffset="320"/>
    <contour>
      <point x="604" y="1690" type="move" name="U"/>
    </contour>
    <contour>
      <point x="604" y="-100" type="move" name="L"/>
    </contour>
  </outline>
</glyph>
<glyph name="LtnCapODblGrave" format="1">
  <advance width="1229"/>
  <unicode hex="020C"/>
  <outline>
    <component base="LtnCapO"/>
    <component base="CombDblGrave" xOffset="1157" yOffset="320"/>
    <contour>
      <point x="587" y="0" type="move" name="H"/>
    </contour>
    <contour>
      <point x="617" y="-100" type="move" name="L"/>
    </contour>
    <contour>
      <point x="678" y="0" type="move" name="O"/>
    </contour>
    <contour>
      <point x="1258" y="1100" type="move" name="R"/>
    </contour>
    <contour>
      <point x="617" y="1853" type="move" name="U"/>
    </contour>
  </outline>
</glyph>
<glyph name="LtnCapRDblGrave" format="1">
  <advance width="1149"/>
  <unicode hex="0210"/>
  <outline>
    <component base="LtnCapR"/>
    <component base="CombDblGrave" xOffset="1060" yOffset="320"/>
    <contour>
      <point x="275" y="0" type="move" name="H"/>
    </contour>
    <contour>
      <point x="520" y="-100" type="move" name="L"/>
    </contour>
    <contour>
      <point x="520" y="1853" type="move" name="U"/>
    </contour>
  </outline>
</glyph>
<glyph name="LtnSmUDblGrave" format="1">
  <advance width="1085"/>
  <unicode hex="0215"/>
  <outline>
    <component base="LtnSmU"/>
    <component base="CombDblGrave" xOffset="1085"/>
    <contour>
      <point x="546" y="0" type="move" name="H"/>
    </contour>
    <contour>
      <point x="545" y="-100" type="move" name="L"/>
    </contour>
    <contour>
      <point x="860" y="0" type="move" name="O"/>
    </contour>
    <contour>
      <point x="1084" y="900" type="move" name="R"/>
    </contour>
    <contour>
      <point x="545" y="1533" type="move" name="U"/>
    </contour>
  </outline>
</glyph>
<glyph name="LtnCapUInvBreve" format="1">
  <advance width="1339"/>
  <unicode hex="0216"/>
  <outline>
    <component base="LtnCapU"/>
    <component base="CombInvBreve" xOffset="1192" yOffset="320"/>
    <contour>
      <point x="677" y="0" type="move" name="H"/>
    </contour>
    <contour>
      <point x="677" y="-100" type="move" name="L"/>
    </contour>
    <contour>
      <point x="760" y="0" type="move" name="O"/>
    </contour>
    <contour>
      <point x="1330" y="1100" type="move" name="R"/>
    </contour>
    <contour>
      <point x="677" y="1690" type="move" name="U"/>
    </contour>
  </outline>
</glyph>
<glyph name="LtnSmUInvBreve" format="1">
  <advance width="1085"/>
  <unicode hex="0217"/>
  <outline>
    <component base="LtnSmU"/>
    <component base="CombInvBreve" xOffset="1060"/>
    <contour>
      <point x="546" y="0" type="move" name="H"/>
    </contour>
    <contour>
      <point x="545" y="-100" type="move" name="L"/>
    </contour>
    <contour>
      <point x="860" y="0" type="move" name="O"/>
    </contour>
    <contour>
      <point x="1084" y="900" type="move" name="R"/>
    </contour>
    <contour>
      <point x="545" y="1370" type="move" name="U"/>
    </contour>
  </outline>
</glyph>
<glyph name="LtnSmSCommaBlw" format="1">
  <advance width="791"/>
  <unicode hex="0219"/>
  <outline>
    <component base="LtnSmS"/>
    <component base="CombCommaBlw" xOffset="917"/>
    <contour>
      <point x="385" y="0" type="move" name="H"/>
    </contour>
    <contour>
      <point x="397" y="-600" type="move" name="L"/>
    </contour>
    <contour>
      <point x="397" y="1050" type="move" name="U"/>
    </contour>
  </outline>
</glyph>
<glyph name="LtnCapTCommaBlw" format="1">
  <advance width="1128"/>
  <unicode hex="021A"/>
  <outline>
    <component base="LtnCapT"/>
    <component base="CombCommaBlw" xOffset="1066"/>
    <contour>
      <point x="551" y="0" type="move" name="H"/>
    </contour>
    <contour>
      <point x="546" y="-600" type="move" name="L"/>
    </contour>
    <contour>
      <point x="546" y="1370" type="move" name="U"/>
    </contour>
  </outline>
</glyph>
<glyph name="LtnSmHCaron" format="1">
  <advance width="1130"/>
  <unicode hex="021F"/>
  <outline>
    <component base="LtnSmH"/>
    <component base="CombCaron.LP" xOffset="1091" yOffset="570"/>
    <contour>
      <point x="257" y="0" type="move" name="H"/>
    </contour>
    <contour>
      <point x="577" y="1940" type="move" name="U"/>
    </contour>
    <contour>
      <point x="577" y="-100" type="move" name="L"/>
    </contour>
  </outline>
</glyph>
<glyph name="LtnSmZHook" format="1">
  <advance width="905"/>
  <unicode hex="0225"/>
  <outline>
    <contour>
      <point x="270" y="90" type="line"/>
      <point x="827" y="887" type="line"/>
      <point x="805" y="930" type="line"/>
      <point x="313" y="930" type="line" smooth="yes"/>
      <point x="227" y="930"/>
      <point x="195" y="930"/>
      <point x="137" y="946" type="curve"/>
      <point x="119" y="702" type="line"/>
      <point x="168" y="690" type="line"/>
      <point x="195" y="813"/>
      <point x="242" y="840"/>
      <point x="285" y="840" type="curve" smooth="yes"/>
      <point x="631" y="840" type="line"/>
      <point x="76" y="45" type="line"/>
      <point x="102" y="0" type="line"/>
      <point x="618" y="0" type="line" smooth="yes"/>
      <point x="681" y="0"/>
      <point x="705" y="-49"/>
      <point x="702" y="-86" type="curve" smooth="yes"/>
      <point x="699" y="-126"/>
      <point x="676" y="-192"/>
      <point x="536" y="-279" type="curve"/>
      <point x="570" y="-320" type="line"/>
      <point x="776" y="-204"/>
      <point x="844" y="-109"/>
      <point x="847" y="-29" type="curve" smooth="yes"/>
      <point x="850" y="59"/>
      <point x="794" y="90"/>
      <point x="692" y="90" type="curve" smooth="yes"/>
    </contour>
    <contour>
      <point x="480" y="1050" type="move" name="U"/>
    </contour>
    <contour>
      <point x="452" y="-603" type="move" name="L"/>
    </contour>
  </outline>
</glyph>
<glyph name="LtnCapCStrk" format="1">
  <advance width="1098"/>
  <unicode hex="023B"/>
  <outline>
    <contour>
      <point x="1017" y="1420" type="line"/>
      <point x="979" y="1405"/>
      <point x="933" y="1378"/>
      <point x="895" y="1350" type="curve"/>
      <point x="77" y="-124" type="line"/>
      <point x="96" y="-157" type="line"/>
      <point x="129" y="-147"/>
      <point x="196" y="-106"/>
      <point x="221" y="-86" type="curve"/>
      <point x="1038" y="1387" type="line"/>
    </contour>
    <contour>
      <point x="1018" y="211" type="curve"/>
      <point x="1010" y="219"/>
      <point x="995" y="250"/>
      <point x="981" y="256" type="curve"/>
      <point x="834" y="133"/>
      <point x="715" y="90"/>
      <point x="643" y="90" type="curve" smooth="yes"/>
      <point x="453" y="90"/>
      <point x="225" y="268"/>
      <point x="225" y="623" type="curve" smooth="yes"/>
      <point x="225" y="1038"/>
      <point x="455" y="1180"/>
      <point x="592" y="1180" type="curve" smooth="yes"/>
      <point x="713" y="1180"/>
      <point x="807" y="1135"/>
      <point x="874" y="1073" type="curve"/>
      <point x="909" y="1067" type="line"/>
      <point x="940" y="1098"/>
      <point x="1014" y="1178"/>
      <point x="999" y="1190" type="curve" smooth="yes"/>
      <point x="930" y="1245"/>
      <point x="819" y="1290"/>
      <point x="676" y="1290" type="curve" smooth="yes"/>
      <point x="348" y="1290"/>
      <point x="70" y="1012"/>
      <point x="70" y="586" type="curve" smooth="yes"/>
      <point x="70" y="199"/>
      <point x="324" y="-30"/>
      <point x="571" y="-30" type="curve" smooth="yes"/>
      <point x="709" y="-30"/>
      <point x="848" y="29"/>
    </contour>
    <contour>
      <point x="584" y="0" type="move" name="H"/>
    </contour>
    <contour>
      <point x="614" y="-100" type="move" name="L"/>
    </contour>
    <contour>
      <point x="614" y="1370" type="move" name="U"/>
    </contour>
  </outline>
</glyph>
<glyph name="LtnSmGHook" format="1">
  <advance width="1034"/>
  <unicode hex="0260"/>
  <outline>
    <contour>
      <point x="801" y="260" type="curve"/>
      <point x="793" y="270"/>
      <point x="778" y="289"/>
      <point x="764" y="297" type="curve"/>
      <point x="641" y="162"/>
      <point x="559" y="100"/>
      <point x="487" y="100" type="curve" smooth="yes"/>
      <point x="377" y="100"/>
      <point x="230" y="223"/>
      <point x="230" y="436" type="curve" smooth="yes"/>
      <point x="230" y="684"/>
      <point x="350" y="850"/>
      <point x="520" y="850" type="curve" smooth="yes"/>
      <point x="621" y="850"/>
      <point x="690" y="801"/>
      <point x="731" y="717" type="curve"/>
      <point x="774" y="743"/>
      <point x="791" y="760"/>
      <point x="791" y="840" type="curve"/>
      <point x="686" y="944"/>
      <point x="631" y="960"/>
      <point x="551" y="960" type="curve" smooth="yes"/>
      <point x="274" y="960"/>
      <point x="80" y="635"/>
      <point x="80" y="406" type="curve" smooth="yes"/>
      <point x="80" y="129"/>
      <point x="268" y="-30"/>
      <point x="416" y="-30" type="curve" smooth="yes"/>
      <point x="555" y="-30"/>
      <point x="645" y="43"/>
    </contour>
    <contour>
      <point x="725" y="848" type="line"/>
      <point x="735" y="47" type="line" smooth="yes"/>
      <point x="739" y="-280"/>
      <point x="624" y="-390"/>
      <point x="492" y="-390" type="curve" smooth="yes"/>
      <point x="437" y="-390"/>
      <point x="345" y="-372"/>
      <point x="248" y="-261" type="curve"/>
      <point x="205" y="-272"/>
      <point x="100" y="-337"/>
      <point x="100" y="-364" type="curve" smooth="yes"/>
      <point x="100" y="-417"/>
      <point x="256" y="-500"/>
      <point x="426" y="-500" type="curve" smooth="yes"/>
      <point x="559" y="-500"/>
      <point x="900" y="-376"/>
      <point x="890" y="80" type="curve" smooth="yes"/>
      <point x="875" y="717" type="line"/>
    </contour>
    <contour>
      <point x="1272" y="1423" type="curve"/>
      <point x="1272" y="1448"/>
      <point x="1190" y="1550"/>
      <point x="1074" y="1550" type="curve" smooth="yes"/>
      <point x="1022" y="1550"/>
      <point x="941" y="1518"/>
      <point x="873" y="1458" type="curve" smooth="yes"/>
      <point x="768" y="1368"/>
      <point x="725" y="1278"/>
      <point x="725" y="1051" type="curve" smooth="yes"/>
      <point x="733" y="272" type="line" smooth="yes"/>
      <point x="734" y="140"/>
      <point x="884" y="48"/>
      <point x="884" y="254" type="curve" smooth="yes"/>
      <point x="876" y="1106" type="line" smooth="yes"/>
      <point x="876" y="1348"/>
      <point x="912" y="1427"/>
      <point x="996" y="1427" type="curve" smooth="yes"/>
      <point x="1033" y="1427"/>
      <point x="1090" y="1407"/>
      <point x="1145" y="1315" type="curve"/>
      <point x="1184" y="1333"/>
      <point x="1272" y="1401"/>
    </contour>
    <contour>
      <point x="676" y="1690" type="move" name="U"/>
    </contour>
    <contour>
      <point x="540" y="-600" type="move" name="L"/>
    </contour>
  </outline>
</glyph>
<glyph name="LtnSmIota" format="1">
  <advance width="578"/>
  <unicode hex="0269"/>
  <outline>
    <contour>
      <point x="598" y="135" type="curve"/>
      <point x="582" y="186" type="line"/>
      <point x="496" y="125"/>
      <point x="428" y="106"/>
      <point x="414" y="106" type="curve" smooth="yes"/>
      <point x="354" y="106"/>
      <point x="340" y="123"/>
      <point x="340" y="303" type="curve" smooth="yes"/>
      <point x="340" y="960" type="line"/>
      <point x="305" y="960" type="line"/>
      <point x="240" y="927"/>
      <point x="133" y="896"/>
      <point x="49" y="880" type="curve"/>
      <point x="49" y="840" type="line"/>
      <point x="193" y="827"/>
      <point x="190" y="807"/>
      <point x="190" y="670" type="curve" smooth="yes"/>
      <point x="190" y="203" type="line" smooth="yes"/>
      <point x="190" y="43"/>
      <point x="213" y="-30"/>
      <point x="313" y="-30" type="curve" smooth="yes"/>
      <point x="365" y="-30"/>
      <point x="463" y="6"/>
    </contour>
    <contour>
      <point x="275" y="0" type="move" name="H"/>
    </contour>
    <contour>
      <point x="296" y="-100" type="move" name="L"/>
    </contour>
    <contour>
      <point x="340" y="0" type="move" name="O"/>
    </contour>
    <contour>
      <point x="532" y="900" type="move" name="R"/>
    </contour>
    <contour>
      <point x="265" y="1050" type="move" name="U"/>
    </contour>
  </outline>
</glyph>
<glyph name="LtnSmBarredO" format="1">
  <advance width="1030"/>
  <unicode hex="0275"/>
  <outline>
    <contour>
      <point x="950" y="485" type="curve" smooth="yes"/>
      <point x="950" y="758"/>
      <point x="786" y="960"/>
      <point x="535" y="960" type="curve" smooth="yes"/>
      <point x="285" y="960"/>
      <point x="80" y="709"/>
      <point x="80" y="444" type="curve" smooth="yes"/>
      <point x="80" y="172"/>
      <point x="244" y="-30"/>
      <point x="496" y="-30" type="curve" smooth="yes"/>
      <point x="739" y="-30"/>
      <point x="950" y="219"/>
    </contour>
    <contour>
      <point x="793" y="505" type="curve"/>
      <point x="235" y="505" type="line"/>
      <point x="242" y="702"/>
      <point x="313" y="850"/>
      <point x="506" y="850" type="curve" smooth="yes"/>
      <point x="632" y="850"/>
      <point x="771" y="694"/>
    </contour>
    <contour>
      <point x="795" y="415" type="line"/>
      <point x="785" y="210"/>
      <point x="701" y="80"/>
      <point x="524" y="80" type="curve" smooth="yes"/>
      <point x="412" y="80"/>
      <point x="266" y="229"/>
      <point x="239" y="415" type="curve"/>
    </contour>
    <contour>
      <point x="525" y="-100" type="move" name="L"/>
    </contour>
    <contour>
      <point x="1044" y="900" type="move" name="R"/>
    </contour>
    <contour>
      <point x="525" y="1050" type="move" name="U"/>
    </contour>
  </outline>
</glyph>
<glyph name="LtnSmRevRFishhook" format="1">
  <advance width="680"/>
  <unicode hex="027F"/>
  <outline>
    <contour>
      <point x="65" y="803" type="curve"/>
      <point x="40" y="788"/>
      <point x="75" y="678"/>
      <point x="108" y="606" type="curve"/>
      <point x="151" y="606" type="line"/>
      <point x="164" y="701"/>
      <point x="206" y="840"/>
      <point x="306" y="840" type="curve" smooth="yes"/>
      <point x="375" y="840"/>
      <point x="440" y="802"/>
      <point x="440" y="666" type="curve" smooth="yes"/>
      <point x="440" y="-376" type="line" smooth="yes"/>
      <point x="440" y="-396"/>
      <point x="396" y="-419"/>
      <point x="271" y="-437" type="curve"/>
      <point x="271" y="-480" type="line"/>
      <point x="730" y="-480" type="line"/>
      <point x="730" y="-437" type="line"/>
      <point x="642" y="-417"/>
      <point x="590" y="-398"/>
      <point x="590" y="-376" type="curve" smooth="yes"/>
      <point x="590" y="726" type="line" smooth="yes"/>
      <point x="590" y="945"/>
      <point x="450" y="960"/>
      <point x="378" y="960" type="curve" smooth="yes"/>
      <point x="285" y="960"/>
      <point x="149" y="904"/>
    </contour>
    <contour>
      <point x="500" y="-600" type="move" name="L"/>
    </contour>
    <contour>
      <point x="364" y="1050" type="move" name="U"/>
    </contour>
  </outline>
</glyph>
<glyph name="LtnBilabialPercussive" format="1">
  <advance width="1025"/>
  <unicode hex="02AC"/>
  <outline>
    <contour>
      <point x="1004" y="1202" type="curve"/>
      <point x="1004" y="1238" type="line"/>
      <point x="776" y="1238" type="line"/>
      <point x="776" y="1202" type="line"/>
      <point x="840" y="1193"/>
      <point x="854" y="1184"/>
      <point x="848" y="1165" type="curve" smooth="yes"/>
      <point x="737" y="804" type="line"/>
      <point x="565" y="1238" type="line"/>
      <point x="554" y="1238"/>
      <point x="501" y="1238"/>
      <point x="501" y="1238" type="curve"/>
      <point x="505" y="1088" type="line"/>
      <point x="673" y="662" type="line"/>
      <point x="697" y="667"/>
      <point x="777" y="680"/>
      <point x="789" y="715" type="curve" smooth="yes"/>
      <point x="934" y="1165" type="line" smooth="yes"/>
      <point x="939" y="1184"/>
      <point x="946" y="1191"/>
    </contour>
    <contour>
      <point x="560" y="1165" type="line"/>
      <point x="555" y="1238" type="line"/>
      <point x="555" y="1238"/>
      <point x="509" y="1238"/>
      <point x="497" y="1238" type="curve"/>
      <point x="334" y="804" type="line"/>
      <point x="213" y="1165" type="line" smooth="yes"/>
      <point x="206" y="1180"/>
      <point x="199" y="1194"/>
      <point x="290" y="1202" type="curve"/>
      <point x="290" y="1238" type="line"/>
      <point x="20" y="1238" type="line"/>
      <point x="20" y="1202" type="line"/>
      <point x="66" y="1193"/>
      <point x="92" y="1180"/>
      <point x="96" y="1165" type="curve"/>
      <point x="270" y="662" type="line"/>
      <point x="294" y="667"/>
      <point x="369" y="679"/>
      <point x="383" y="715" type="curve" smooth="yes"/>
    </contour>
    <contour>
      <point x="1004" y="510" type="curve"/>
      <point x="1004" y="546" type="line"/>
      <point x="776" y="546" type="line"/>
      <point x="776" y="510" type="line"/>
      <point x="840" y="501"/>
      <point x="854" y="492"/>
      <point x="848" y="473" type="curve" smooth="yes"/>
      <point x="737" y="112" type="line"/>
      <point x="565" y="546" type="line"/>
      <point x="554" y="546"/>
      <point x="501" y="546"/>
      <point x="501" y="546" type="curve"/>
      <point x="505" y="396" type="line"/>
      <point x="673" y="-30" type="line"/>
      <point x="697" y="-25"/>
      <point x="777" y="-12"/>
      <point x="789" y="23" type="curve" smooth="yes"/>
      <point x="934" y="473" type="line" smooth="yes"/>
      <point x="939" y="492"/>
      <point x="946" y="499"/>
    </contour>
    <contour>
      <point x="560" y="473" type="line"/>
      <point x="555" y="546" type="line"/>
      <point x="555" y="546"/>
      <point x="509" y="546"/>
      <point x="497" y="546" type="curve"/>
      <point x="334" y="112" type="line"/>
      <point x="213" y="473" type="line" smooth="yes"/>
      <point x="206" y="488"/>
      <point x="199" y="502"/>
      <point x="290" y="510" type="curve"/>
      <point x="290" y="546" type="line"/>
      <point x="20" y="546" type="line"/>
      <point x="20" y="510" type="line"/>
      <point x="66" y="501"/>
      <point x="92" y="488"/>
      <point x="96" y="473" type="curve"/>
      <point x="270" y="-30" type="line"/>
      <point x="294" y="-25"/>
      <point x="369" y="-13"/>
      <point x="383" y="23" type="curve" smooth="yes"/>
    </contour>
    <contour>
      <point x="528" y="-100" type="move" name="L"/>
    </contour>
    <contour>
      <point x="528" y="1370" type="move" name="U"/>
    </contour>
  </outline>
</glyph>
<glyph name="ModRtHalfRing" format="1">
  <advance width="540"/>
  <unicode hex="02BE"/>
  <outline>
    <component base="ModCntrdRtHalfRing" xOffset="-10" yOffset="700"/>
    <contour>
      <point x="250" y="-100" type="move" name="L"/>
    </contour>
    <contour>
      <point x="250" y="1620" type="move" name="U"/>
    </contour>
  </outline>
</glyph>
<glyph name="ModLowGraveAccent" format="1">
  <advance width="514"/>
  <unicode hex="02CE"/>
  <outline>
    <contour>
      <point x="514" y="-368" type="curve"/>
      <point x="127" y="-51" type="line"/>
      <point x="98" y="-67"/>
      <point x="28" y="-104"/>
      <point x="8" y="-125" type="curve"/>
      <point x="0" y="-170" type="line"/>
      <point x="469" y="-413" type="line"/>
      <point x="491" y="-403"/>
      <point x="495" y="-393"/>
    </contour>
    <contour>
      <point x="257" y="-600" type="move" name="L"/>
    </contour>
  </outline>
</glyph>
<glyph name="ModTriangularColon" format="1">
  <advance width="532"/>
  <unicode hex="02D0"/>
  <outline>
    <contour>
      <point x="422" y="930" type="line"/>
      <point x="110" y="930" type="line"/>
      <point x="266" y="619" type="line"/>
    </contour>
    <contour>
      <point x="110" y="0" type="line"/>
      <point x="422" y="0" type="line"/>
      <point x="266" y="311" type="line"/>
    </contour>
    <contour>
      <point x="266" y="-100" type="move" name="L"/>
    </contour>
    <contour>
      <point x="266" y="1050" type="move" name="U"/>
    </contour>
  </outline>
</glyph>
<glyph name="ModCntrdRtHalfRing" format="1">
  <advance width="540"/>
  <unicode hex="02D2"/>
  <outline>
    <contour>
      <point x="96" y="681" type="curve"/>
      <point x="90" y="584" type="line"/>
      <point x="252" y="600"/>
      <point x="362" y="496"/>
      <point x="362" y="341" type="curve" smooth="yes"/>
      <point x="362" y="193"/>
      <point x="248" y="84"/>
      <point x="96" y="100" type="curve"/>
      <point x="90" y="0" type="line"/>
      <point x="322" y="-20"/>
      <point x="460" y="152"/>
      <point x="460" y="341" type="curve" smooth="yes"/>
      <point x="460" y="535"/>
      <point x="318" y="701"/>
    </contour>
  </outline>
</glyph>
<glyph name="ModPlusSgn" format="1">
  <advance width="602"/>
  <unicode hex="02D6"/>
  <outline>
    <contour>
      <point x="552" y="541" type="curve"/>
      <point x="535" y="556" type="line"/>
      <point x="71" y="556" type="line"/>
      <point x="63" y="540"/>
      <point x="55" y="499"/>
      <point x="50" y="483" type="curve"/>
      <point x="67" y="469" type="line"/>
      <point x="531" y="469" type="line"/>
      <point x="538" y="482"/>
      <point x="547" y="525"/>
    </contour>
    <contour>
      <point x="351" y="317" type="curve"/>
      <point x="351" y="713" type="line"/>
      <point x="334" y="727" type="line"/>
      <point x="314" y="723"/>
      <point x="268" y="714"/>
      <point x="250" y="710" type="curve"/>
      <point x="250" y="311" type="line"/>
      <point x="268" y="298" type="line"/>
      <point x="288" y="302"/>
      <point x="333" y="309"/>
    </contour>
  </outline>
</glyph>
<glyph name="ModLowDwnArrwhd" format="1">
  <advance width="466"/>
  <unicode hex="02EF"/>
  <outline>
    <contour>
      <point x="221" y="-538" type="line"/>
      <point x="235" y="-532"/>
      <point x="257" y="-518"/>
      <point x="269" y="-507" type="curve"/>
      <point x="416" y="-195" type="line"/>
      <point x="408" y="-186" type="line"/>
      <point x="398" y="-190"/>
      <point x="369" y="-201"/>
      <point x="359" y="-211" type="curve"/>
      <point x="248" y="-450" type="line"/>
      <point x="117" y="-195" type="line"/>
      <point x="104" y="-186" type="line"/>
      <point x="88" y="-192"/>
      <point x="71" y="-202"/>
      <point x="60" y="-211" type="curve"/>
    </contour>
  </outline>
</glyph>
<glyph name="ModMiddleGraveAccent" format="1">
  <advance width="567"/>
  <unicode hex="02F4"/>
  <outline>
    <contour>
      <point x="488" y="529" type="curve"/>
      <point x="248" y="940" type="line"/>
      <point x="215" y="938"/>
      <point x="128" y="923"/>
      <point x="102" y="916" type="curve"/>
      <point x="80" y="875" type="line"/>
      <point x="432" y="498" type="line"/>
      <point x="455" y="505"/>
      <point x="471" y="513"/>
    </contour>
    <contour>
      <point x="283" y="1050" type="move" name="U"/>
    </contour>
  </outline>
</glyph>
<glyph name="CombMacron" format="1">
  <advance width="0"/>
  <unicode hex="0304"/>
  <outline>
    <contour>
      <point x="-177" y="1281" type="curve"/>
      <point x="-199" y="1305" type="line"/>
      <point x="-812" y="1305" type="line"/>
      <point x="-825" y="1279"/>
      <point x="-847" y="1229"/>
      <point x="-853" y="1200" type="curve"/>
      <point x="-831" y="1175" type="line"/>
      <point x="-216" y="1175" type="line"/>
      <point x="-206" y="1200"/>
      <point x="-183" y="1252"/>
    </contour>
    <contour>
      <point x="-525" y="1410" type="move" name="U"/>
    </contour>
    <contour>
      <point x="-525" y="1050" type="move" name="_U"/>
    </contour>
  </outline>
</glyph>
<glyph name="CombBreve" format="1">
  <advance width="0"/>
  <unicode hex="0306"/>
  <outline>
    <contour>
      <point x="-190" y="1360" type="curve"/>
      <point x="-206" y="1384"/>
      <point x="-220" y="1395"/>
      <point x="-243" y="1405" type="curve"/>
      <point x="-307" y="1253"/>
      <point x="-423" y="1202"/>
      <point x="-517" y="1202" type="curve" smooth="yes"/>
      <point x="-606" y="1202"/>
      <point x="-721" y="1253"/>
      <point x="-787" y="1405" type="curve"/>
      <point x="-809" y="1395"/>
      <point x="-824" y="1384"/>
      <point x="-840" y="1360" type="curve"/>
      <point x="-760" y="1145"/>
      <point x="-644" y="1070"/>
      <point x="-513" y="1070" type="curve" smooth="yes"/>
      <point x="-393" y="1070"/>
      <point x="-270" y="1145"/>
    </contour>
    <contour>
      <point x="-515" y="1370" type="move" name="U"/>
    </contour>
    <contour>
      <point x="-515" y="1050" type="move" name="_U"/>
    </contour>
  </outline>
</glyph>
<glyph name="CombHorn" format="1">
  <advance width="75"/>
  <unicode hex="031B"/>
  <outline>
    <contour>
      <point x="75" y="1042" type="curve" smooth="yes"/>
      <point x="75" y="1081"/>
      <point x="54" y="1116"/>
      <point x="23" y="1145" type="curve"/>
      <point x="-155" y="1065" type="line"/>
      <point x="-118" y="1034"/>
      <point x="-97" y="999"/>
      <point x="-97" y="961" type="curve" smooth="yes"/>
      <point x="-97" y="913"/>
      <point x="-156" y="836"/>
      <point x="-299" y="780" type="curve"/>
      <point x="-281" y="718" type="line"/>
      <point x="-6" y="822"/>
      <point x="75" y="965"/>
    </contour>
    <contour>
      <point x="0" y="900" type="move" name="_R"/>
    </contour>
  </outline>
</glyph>
<glyph name="CombUpTackBlw" format="1">
  <advance width="0"/>
  <unicode hex="031D"/>
  <outline>
    <contour>
      <point x="-305" y="-417" type="curve"/>
      <point x="-330" y="-390" type="line"/>
      <point x="-696" y="-390" type="line"/>
      <point x="-710" y="-417"/>
      <point x="-717" y="-429"/>
      <point x="-725" y="-456" type="curve"/>
      <point x="-702" y="-480" type="line"/>
      <point x="-332" y="-480" type="line"/>
      <point x="-320" y="-458"/>
      <point x="-312" y="-443"/>
    </contour>
    <contour>
      <point x="-470" y="-429" type="curve"/>
      <point x="-470" y="-154" type="line"/>
      <point x="-497" y="-130" type="line"/>
      <point x="-523" y="-138"/>
      <point x="-537" y="-147"/>
      <point x="-560" y="-160" type="curve"/>
      <point x="-560" y="-438" type="line"/>
      <point x="-535" y="-460" type="line"/>
      <point x="-509" y="-452"/>
      <point x="-497" y="-445"/>
    </contour>
    <contour>
      <point x="-515" y="-600" type="move" name="L"/>
    </contour>
    <contour>
      <point x="-515" y="-100" type="move" name="_L"/>
    </contour>
  </outline>
</glyph>
<glyph name="CombDwnTackBlw" format="1">
  <advance width="0"/>
  <unicode hex="031E"/>
  <outline>
    <contour>
      <point x="-305" y="-177" type="curve"/>
      <point x="-330" y="-150" type="line"/>
      <point x="-696" y="-150" type="line"/>
      <point x="-710" y="-177"/>
      <point x="-717" y="-189"/>
      <point x="-725" y="-216" type="curve"/>
      <point x="-702" y="-240" type="line"/>
      <point x="-332" y="-240" type="line"/>
      <point x="-320" y="-218"/>
      <point x="-312" y="-203"/>
    </contour>
    <contour>
      <point x="-470" y="-469" type="curve"/>
      <point x="-470" y="-184" type="line"/>
      <point x="-497" y="-160" type="line"/>
      <point x="-523" y="-168"/>
      <point x="-537" y="-177"/>
      <point x="-560" y="-190" type="curve"/>
      <point x="-560" y="-478" type="line"/>
      <point x="-535" y="-500" type="line"/>
      <point x="-509" y="-492"/>
      <point x="-497" y="-485"/>
    </contour>
    <contour>
      <point x="-515" y="-600" type="move" name="L"/>
    </contour>
    <contour>
      <point x="-515" y="-100" type="move" name="_L"/>
    </contour>
  </outline>
</glyph>
<glyph name="CombInvDblArchBlw" format="1">
  <advance width="0"/>
  <unicode hex="032B"/>
  <outline>
    <contour>
      <point x="-197" y="-193" type="curve"/>
      <point x="-205" y="-183"/>
      <point x="-233" y="-162"/>
      <point x="-245" y="-156" type="curve"/>
      <point x="-278" y="-282"/>
      <point x="-318" y="-330"/>
      <point x="-366" y="-330" type="curve" smooth="yes"/>
      <point x="-412" y="-330"/>
      <point x="-462" y="-282"/>
      <point x="-496" y="-151" type="curve"/>
      <point x="-506" y="-150"/>
      <point x="-526" y="-149"/>
      <point x="-535" y="-151" type="curve"/>
      <point x="-568" y="-282"/>
      <point x="-618" y="-330"/>
      <point x="-666" y="-330" type="curve" smooth="yes"/>
      <point x="-712" y="-330"/>
      <point x="-752" y="-282"/>
      <point x="-786" y="-156" type="curve"/>
      <point x="-797" y="-162"/>
      <point x="-825" y="-183"/>
      <point x="-833" y="-193" type="curve"/>
      <point x="-792" y="-371"/>
      <point x="-732" y="-460"/>
      <point x="-664" y="-460" type="curve" smooth="yes"/>
      <point x="-614" y="-460"/>
      <point x="-557" y="-407"/>
      <point x="-515" y="-295" type="curve"/>
      <point x="-474" y="-407"/>
      <point x="-418" y="-460"/>
      <point x="-364" y="-460" type="curve" smooth="yes"/>
      <point x="-302" y="-460"/>
      <point x="-238" y="-371"/>
    </contour>
    <contour>
      <point x="-515" y="-600" type="move" name="L"/>
    </contour>
    <contour>
      <point x="-515" y="-100" type="move" name="_L"/>
    </contour>
  </outline>
</glyph>
<glyph name="CombBreveBlw" format="1">
  <advance width="0"/>
  <unicode hex="032E"/>
  <outline>
    <contour>
      <point x="-190" y="-190" type="curve"/>
      <point x="-206" y="-166"/>
      <point x="-220" y="-155"/>
      <point x="-243" y="-145" type="curve"/>
      <point x="-307" y="-297"/>
      <point x="-423" y="-348"/>
      <point x="-517" y="-348" type="curve" smooth="yes"/>
      <point x="-606" y="-348"/>
      <point x="-721" y="-297"/>
      <point x="-787" y="-145" type="curve"/>
      <point x="-809" y="-155"/>
      <point x="-824" y="-166"/>
      <point x="-840" y="-190" type="curve"/>
      <point x="-760" y="-405"/>
      <point x="-644" y="-480"/>
      <point x="-513" y="-480" type="curve" smooth="yes"/>
      <point x="-393" y="-480"/>
      <point x="-270" y="-405"/>
    </contour>
    <contour>
      <point x="-515" y="-600" type="move" name="L"/>
    </contour>
    <contour>
      <point x="-515" y="-100" type="move" name="_L"/>
    </contour>
  </outline>
</glyph>
<glyph name="CombLowLine" format="1">
  <advance width="0"/>
  <unicode hex="0332"/>
  <outline>
    <contour>
      <point x="64" y="-234" type="curve"/>
      <point x="42" y="-210" type="line"/>
      <point x="-987" y="-210" type="line"/>
      <point x="-1000" y="-236"/>
      <point x="-1022" y="-286"/>
      <point x="-1028" y="-315" type="curve"/>
      <point x="-1006" y="-340" type="line"/>
      <point x="25" y="-340" type="line"/>
      <point x="35" y="-315"/>
      <point x="58" y="-263"/>
    </contour>
    <contour>
      <point x="-482" y="-600" type="move" name="L"/>
    </contour>
    <contour>
      <point x="-482" y="-100" type="move" name="_L"/>
    </contour>
  </outline>
</glyph>
<glyph name="CombSqrBlw" format="1">
  <advance width="0"/>
  <unicode hex="033B"/>
  <outline>
    <contour>
      <point x="-765" y="-200" type="curve"/>
      <point x="-765" y="-456" type="line"/>
      <point x="-743" y="-480" type="line"/>
      <point x="-328" y="-480" type="line"/>
      <point x="-302" y="-466"/>
      <point x="-283" y="-448"/>
      <point x="-265" y="-430" type="curve"/>
      <point x="-265" y="-174" type="line"/>
      <point x="-287" y="-150" type="line"/>
      <point x="-702" y="-150" type="line"/>
      <point x="-728" y="-164"/>
      <point x="-747" y="-182"/>
    </contour>
    <contour>
      <point x="-685" y="-230" type="line"/>
      <point x="-345" y="-230" type="line"/>
      <point x="-345" y="-400" type="line"/>
      <point x="-685" y="-400" type="line"/>
    </contour>
    <contour>
      <point x="-515" y="-600" type="move" name="L"/>
    </contour>
    <contour>
      <point x="-515" y="-100" type="move" name="_L"/>
    </contour>
  </outline>
</glyph>
<glyph name="CombGraphemeJoiner" format="1">
  <advance width="0"/>
  <unicode hex="034F"/>
  <outline>
    <contour>
      <point x="0" y="0" type="move" name="L"/>
    </contour>
    <contour>
      <point x="0" y="0" type="move" name="U"/>
    </contour>
    <contour>
      <point x="0" y="0" type="move" name="_L"/>
    </contour>
    <contour>
      <point x="0" y="0" type="move" name="_U"/>
    </contour>
  </outline>
</glyph>
<glyph name="CombXBlw" format="1">
  <advance width="0"/>
  <unicode hex="0353"/>
  <outline>
    <contour>
      <point x="-209" y="-459" type="curve"/>
      <point x="-451" y="-280" type="line"/>
      <point x="-558" y="-280" type="line"/>
      <point x="-802" y="-459" type="line"/>
      <point x="-789" y="-480"/>
      <point x="-775" y="-499"/>
      <point x="-757" y="-514" type="curve"/>
      <point x="-506" y="-386" type="line"/>
      <point x="-252" y="-514" type="line"/>
      <point x="-232" y="-498"/>
      <point x="-220" y="-481"/>
    </contour>
    <contour>
      <point x="-213" y="-186" type="line"/>
      <point x="-224" y="-163"/>
      <point x="-239" y="-142"/>
      <point x="-256" y="-129" type="curve"/>
      <point x="-506" y="-260" type="line"/>
      <point x="-761" y="-129" type="line"/>
      <point x="-777" y="-143"/>
      <point x="-795" y="-167"/>
      <point x="-806" y="-186" type="curve"/>
      <point x="-562" y="-363" type="line"/>
      <point x="-455" y="-363" type="line"/>
    </contour>
    <contour>
      <point x="-515" y="-600" type="move" name="L"/>
    </contour>
    <contour>
      <point x="-515" y="-100" type="move" name="_L"/>
    </contour>
  </outline>
</glyph>
<glyph name="GrCapYot" format="1">
  <advance width="625"/>
  <unicode hex="037F"/>
  <outline>
    <component base="LtnCapJ"/>
    <contour>
      <point x="330" y="-600" type="move" name="L"/>
    </contour>
    <contour>
      <point x="330" y="1370" type="move" name="U"/>
    </contour>
  </outline>
</glyph>
<glyph name="GrCapAlpha" format="1">
  <advance width="1219"/>
  <unicode hex="0391"/>
  <outline>
    <contour>
      <point x="789" y="445" type="line"/>
      <point x="903" y="111" type="line"/>
      <point x="920" y="68"/>
      <point x="879" y="49"/>
      <point x="776" y="43" type="curve"/>
      <point x="776" y="0" type="line"/>
      <point x="1198" y="0" type="line"/>
      <point x="1198" y="43" type="line"/>
      <point x="1112" y="53"/>
      <point x="1079" y="74"/>
      <point x="1067" y="111" type="curve"/>
      <point x="647" y="1317" type="line"/>
      <point x="612" y="1298"/>
      <point x="561" y="1270"/>
      <point x="530" y="1237" type="curve"/>
      <point x="158" y="111" type="line"/>
      <point x="143" y="72"/>
      <point x="90" y="59"/>
      <point x="0" y="43" type="curve"/>
      <point x="0" y="0" type="line"/>
      <point x="416" y="0" type="line"/>
      <point x="416" y="43" type="line"/>
      <point x="307" y="55"/>
      <point x="258" y="70"/>
      <point x="270" y="111" type="curve"/>
      <point x="381" y="445" type="line"/>
    </contour>
    <contour>
      <point x="411" y="535" type="line"/>
      <point x="582" y="1049" type="line"/>
      <point x="758" y="535" type="line"/>
    </contour>
    <contour>
      <point x="590" y="1370" type="move" name="U"/>
    </contour>
    <contour>
      <point x="590" y="-100" type="move" name="L"/>
    </contour>
  </outline>
</glyph>
<glyph name="CyCapIo" format="1">
  <advance width="1016"/>
  <unicode hex="0401"/>
  <outline>
    <component base="CyCapIe"/>
    <component base="CombDiaer.LP" xOffset="1017" yOffset="320"/>
    <contour>
      <point x="502" y="1690" type="move" name="U"/>
    </contour>
    <contour>
      <point x="502" y="-100" type="move" name="L"/>
    </contour>
  </outline>
</glyph>
<glyph name="CyCapByelorusUkrainI" format="1">
  <advance width="610"/>
  <unicode hex="0406"/>
  <outline>
    <component base="LtnCapI"/>
    <contour>
      <point x="295" y="0" type="move" name="H"/>
    </contour>
    <contour>
      <point x="295" y="-100" type="move" name="L"/>
    </contour>
    <contour>
      <point x="345" y="0" type="move" name="O"/>
    </contour>
    <contour>
      <point x="580" y="1100" type="move" name="R"/>
    </contour>
    <contour>
      <point x="295" y="1370" type="move" name="U"/>
    </contour>
  </outline>
</glyph>
<glyph name="CyCapYi" format="1">
  <advance width="610"/>
  <unicode hex="0407"/>
  <outline>
    <component base="LtnCapI"/>
    <component base="CombDiaer.LP" xOffset="810" yOffset="320"/>
    <contour>
      <point x="295" y="0" type="move" name="H"/>
    </contour>
    <contour>
      <point x="295" y="-100" type="move" name="L"/>
    </contour>
    <contour>
      <point x="345" y="0" type="move" name="O"/>
    </contour>
    <contour>
      <point x="580" y="1100" type="move" name="R"/>
    </contour>
    <contour>
      <point x="295" y="1690" type="move" name="U"/>
    </contour>
  </outline>
</glyph>
<glyph name="CyCapIGrave" format="1">
  <advance width="1360"/>
  <unicode hex="040D"/>
  <outline>
    <component base="CyCapI"/>
    <component base="CombGrave.LP" xOffset="1103" yOffset="320"/>
    <contour>
      <point x="670" y="-100" type="move" name="L"/>
    </contour>
    <contour>
      <point x="670" y="1690" type="move" name="U"/>
    </contour>
  </outline>
</glyph>
<glyph name="CyCapShortU" format="1">
  <advance width="1240"/>
  <unicode hex="040E"/>
  <outline>
    <component base="CyCapU"/>
    <component base="CombBreve.CyShortMrkAlt.UCHt" xOffset="1247"/>
    <contour>
      <point x="650" y="-100" type="move" name="L"/>
    </contour>
    <contour>
      <point x="650" y="1805" type="move" name="U"/>
    </contour>
  </outline>
</glyph>
<glyph name="CyCapA" format="1">
  <advance width="1219"/>
  <unicode hex="0410"/>
  <outline>
    <contour>
      <point x="789" y="445" type="line"/>
      <point x="903" y="111" type="line"/>
      <point x="920" y="68"/>
      <point x="879" y="49"/>
      <point x="776" y="43" type="curve"/>
      <point x="776" y="0" type="line"/>
      <point x="1198" y="0" type="line"/>
      <point x="1198" y="43" type="line"/>
      <point x="1112" y="53"/>
      <point x="1079" y="74"/>
      <point x="1067" y="111" type="curve"/>
      <point x="647" y="1317" type="line"/>
      <point x="609" y="1299"/>
      <point x="562" y="1269"/>
      <point x="530" y="1237" type="curve"/>
      <point x="158" y="111" type="line"/>
      <point x="143" y="72"/>
      <point x="90" y="59"/>
      <point x="0" y="43" type="curve"/>
      <point x="0" y="0" type="line"/>
      <point x="416" y="0" type="line"/>
      <point x="416" y="43" type="line"/>
      <point x="307" y="55"/>
      <point x="258" y="70"/>
      <point x="270" y="111" type="curve"/>
      <point x="381" y="445" type="line"/>
    </contour>
    <contour>
      <point x="411" y="535" type="line"/>
      <point x="582" y="1049" type="line"/>
      <point x="758" y="535" type="line"/>
    </contour>
    <contour>
      <point x="599" y="-100" type="move" name="L"/>
    </contour>
    <contour>
      <point x="599" y="1370" type="move" name="U"/>
    </contour>
  </outline>
</glyph>
<glyph name="CyCapTse" format="1">
  <advance width="1290"/>
  <unicode hex="0426"/>
  <outline>
    <contour>
      <point x="1022" y="0" type="line"/>
      <point x="1073" y="0"/>
      <point x="1099" y="-175"/>
      <point x="1096" y="-380" type="curve"/>
      <point x="1144" y="-380" type="line"/>
      <point x="1179" y="-261"/>
      <point x="1222" y="-62"/>
      <point x="1230" y="65" type="curve"/>
      <point x="1199" y="90" type="line"/>
      <point x="1055" y="90" type="line"/>
      <point x="1055" y="1156" type="line" smooth="yes"/>
      <point x="1055" y="1174"/>
      <point x="1110" y="1199"/>
      <point x="1200" y="1217" type="curve"/>
      <point x="1200" y="1260" type="line"/>
      <point x="750" y="1260" type="line"/>
      <point x="750" y="1217" type="line"/>
      <point x="847" y="1199"/>
      <point x="895" y="1172"/>
      <point x="895" y="1156" type="curve" smooth="yes"/>
      <point x="895" y="90" type="line"/>
      <point x="355" y="90" type="line"/>
      <point x="355" y="1156" type="line" smooth="yes"/>
      <point x="355" y="1174"/>
      <point x="410" y="1199"/>
      <point x="500" y="1217" type="curve"/>
      <point x="500" y="1260" type="line"/>
      <point x="50" y="1260" type="line"/>
      <point x="50" y="1217" type="line"/>
      <point x="147" y="1199"/>
      <point x="195" y="1172"/>
      <point x="195" y="1156" type="curve" smooth="yes"/>
      <point x="195" y="105" type="line" smooth="yes"/>
      <point x="195" y="86"/>
      <point x="141" y="62"/>
      <point x="50" y="43" type="curve"/>
      <point x="50" y="0" type="line"/>
    </contour>
    <contour>
      <point x="635" y="-100" type="move" name="L"/>
    </contour>
    <contour>
      <point x="635" y="1370" type="move" name="U"/>
    </contour>
  </outline>
</glyph>
<glyph name="CySmZhe" format="1">
  <advance width="1457"/>
  <unicode hex="0436"/>
  <outline>
    <contour>
      <point x="903" y="0" type="line"/>
      <point x="903" y="43" type="line"/>
      <point x="799" y="71"/>
      <point x="798" y="84"/>
      <point x="798" y="104" type="curve" smooth="yes"/>
      <point x="798" y="646" type="line"/>
      <point x="658" y="606" type="line"/>
      <point x="658" y="104" type="line" smooth="yes"/>
      <point x="658" y="80"/>
      <point x="641" y="66"/>
      <point x="553" y="43" type="curve"/>
      <point x="553" y="0" type="line"/>
    </contour>
    <contour>
      <point x="553" y="930" type="line"/>
      <point x="553" y="887" type="line"/>
      <point x="652" y="856"/>
      <point x="658" y="846"/>
      <point x="658" y="826" type="curve" smooth="yes"/>
      <point x="658" y="294" type="line"/>
      <point x="798" y="364" type="line"/>
      <point x="798" y="826" type="line" smooth="yes"/>
      <point x="798" y="850"/>
      <point x="810" y="867"/>
      <point x="903" y="887" type="curve"/>
      <point x="903" y="930" type="line"/>
    </contour>
    <contour>
      <point x="1348" y="662" type="line"/>
      <point x="1391" y="774"/>
      <point x="1405" y="910"/>
      <point x="1392" y="915" type="curve" smooth="yes"/>
      <point x="1349" y="931"/>
      <point x="1301" y="950"/>
      <point x="1257" y="950" type="curve" smooth="yes"/>
      <point x="999" y="950"/>
      <point x="1083" y="515"/>
      <point x="890" y="515" type="curve" smooth="yes"/>
      <point x="763" y="515" type="line"/>
      <point x="760" y="435" type="line"/>
      <point x="903" y="435" type="line" smooth="yes"/>
      <point x="1147" y="436"/>
      <point x="1101" y="810"/>
      <point x="1216" y="810" type="curve" smooth="yes"/>
      <point x="1254" y="810"/>
      <point x="1283" y="771"/>
      <point x="1308" y="662" type="curve"/>
    </contour>
    <contour>
      <point x="1447" y="18" type="curve"/>
      <point x="1437" y="60" type="line"/>
      <point x="1353" y="54"/>
      <point x="1327" y="61"/>
      <point x="1288" y="103" type="curve"/>
      <point x="1039" y="509" type="line"/>
      <point x="931" y="460" type="line"/>
      <point x="1146" y="21" type="line"/>
      <point x="1163" y="-1"/>
      <point x="1202" y="-20"/>
      <point x="1237" y="-20" type="curve" smooth="yes"/>
      <point x="1286" y="-20"/>
      <point x="1365" y="-4"/>
    </contour>
    <contour>
      <point x="149" y="662" type="line"/>
      <point x="174" y="771"/>
      <point x="203" y="810"/>
      <point x="241" y="810" type="curve" smooth="yes"/>
      <point x="356" y="810"/>
      <point x="310" y="436"/>
      <point x="554" y="435" type="curve" smooth="yes"/>
      <point x="697" y="435" type="line"/>
      <point x="694" y="515" type="line"/>
      <point x="567" y="515" type="line" smooth="yes"/>
      <point x="374" y="515"/>
      <point x="458" y="950"/>
      <point x="200" y="950" type="curve" smooth="yes"/>
      <point x="156" y="950"/>
      <point x="108" y="931"/>
      <point x="65" y="915" type="curve" smooth="yes"/>
      <point x="52" y="910"/>
      <point x="66" y="774"/>
      <point x="109" y="662" type="curve"/>
    </contour>
    <contour>
      <point x="10" y="18" type="line"/>
      <point x="92" y="-4"/>
      <point x="171" y="-20"/>
      <point x="220" y="-20" type="curve" smooth="yes"/>
      <point x="255" y="-20"/>
      <point x="294" y="-1"/>
      <point x="311" y="21" type="curve"/>
      <point x="526" y="460" type="line"/>
      <point x="418" y="509" type="line"/>
      <point x="169" y="103" type="line"/>
      <point x="130" y="61"/>
      <point x="104" y="54"/>
      <point x="20" y="60" type="curve"/>
    </contour>
    <contour>
      <point x="728" y="-100" type="move" name="L"/>
    </contour>
    <contour>
      <point x="728" y="1050" type="move" name="U"/>
    </contour>
  </outline>
</glyph>
<glyph name="CySmIeGrave" format="1">
  <advance width="946"/>
  <unicode hex="0450"/>
  <outline>
    <component base="CySmIe"/>
    <component base="CombGrave" xOffset="906"/>
    <contour>
      <point x="473" y="-100" type="move" name="L"/>
    </contour>
    <contour>
      <point x="473" y="1410" type="move" name="U"/>
    </contour>
  </outline>
</glyph>
<glyph name="CySmGje" format="1">
  <advance width="848"/>
  <unicode hex="0453"/>
  <outline>
    <component base="CySmGhe"/>
    <component base="CombAcute" xOffset="984"/>
    <contour>
      <point x="441" y="-100" type="move" name="L"/>
    </contour>
    <contour>
      <point x="441" y="1410" type="move" name="U"/>
    </contour>
  </outline>
</glyph>
<glyph name="CySmIGrave" format="1">
  <advance width="1195"/>
  <unicode hex="045D"/>
  <outline>
    <component base="CySmI"/>
    <component base="CombGrave" xOffset="1030"/>
    <contour>
      <point x="597" y="1410" type="move" name="U"/>
    </contour>
    <contour>
      <point x="597" y="-100" type="move" name="L"/>
    </contour>
  </outline>
</glyph>
<glyph name="CySmShha" format="1">
  <advance width="1130"/>
  <unicode hex="04BB"/>
  <outline>
    <component base="LtnSmH"/>
    <contour>
      <point x="257" y="0" type="move" name="H"/>
    </contour>
    <contour>
      <point x="577" y="1620" type="move" name="U"/>
    </contour>
    <contour>
      <point x="577" y="-100" type="move" name="L"/>
    </contour>
  </outline>
</glyph>
<glyph name="CyPalochka" format="1">
  <advance width="610"/>
  <unicode hex="04C0"/>
  <outline>
    <component base="LtnCapI"/>
    <contour>
      <point x="295" y="0" type="move" name="H"/>
    </contour>
    <contour>
      <point x="295" y="-100" type="move" name="L"/>
    </contour>
    <contour>
      <point x="345" y="0" type="move" name="O"/>
    </contour>
    <contour>
      <point x="580" y="1100" type="move" name="R"/>
    </contour>
    <contour>
      <point x="295" y="1370" type="move" name="U"/>
    </contour>
  </outline>
</glyph>
<glyph name="CyCapZheBreve" format="1">
  <advance width="1760"/>
  <unicode hex="04C1"/>
  <outline>
    <component base="CyCapZhe"/>
    <component base="CombBreve.CyShortMrkAlt.UCHt" xOffset="1465"/>
    <contour>
      <point x="868" y="1805" type="move" name="U"/>
    </contour>
    <contour>
      <point x="868" y="-100" type="move" name="L"/>
    </contour>
  </outline>
</glyph>
<glyph name="CyCapABreve" format="1">
  <advance width="1219"/>
  <unicode hex="04D0"/>
  <outline>
    <component base="CyCapA"/>
    <component base="CombBreve.CyShortMrkAlt.UCHt" xOffset="1196"/>
    <contour>
      <point x="599" y="1805" type="move" name="U"/>
    </contour>
    <contour>
      <point x="599" y="-100" type="move" name="L"/>
    </contour>
  </outline>
</glyph>
<glyph name="CySmABreve" format="1">
  <advance width="950"/>
  <unicode hex="04D1"/>
  <outline>
    <component base="CySmA"/>
    <component base="CombBreve.CyShortMrkAlt" xOffset="1110"/>
    <contour>
      <point x="513" y="-100" type="move" name="L"/>
    </contour>
    <contour>
      <point x="513" y="1370" type="move" name="U"/>
    </contour>
  </outline>
</glyph>
<glyph name="CyCapADiaer" format="1">
  <advance width="1219"/>
  <unicode hex="04D2"/>
  <outline>
    <component base="CyCapA"/>
    <component base="CombDiaer.LP" xOffset="1114" yOffset="320"/>
    <contour>
      <point x="599" y="-100" type="move" name="L"/>
    </contour>
    <contour>
      <point x="599" y="1690" type="move" name="U"/>
    </contour>
  </outline>
</glyph>
<glyph name="CySmLigAIe" format="1">
  <advance width="1417"/>
  <unicode hex="04D5"/>
  <outline>
    <component base="LtnSmAe"/>
    <contour>
      <point x="738" y="0" type="move" name="H"/>
    </contour>
    <contour>
      <point x="738" y="-100" type="move" name="L"/>
    </contour>
    <contour>
      <point x="1020" y="0" type="move" name="O"/>
    </contour>
    <contour>
      <point x="1484" y="900" type="move" name="R"/>
    </contour>
    <contour>
      <point x="738" y="1050" type="move" name="U"/>
    </contour>
  </outline>
</glyph>
<glyph name="CySmSchwa" format="1">
  <advance width="930"/>
  <unicode hex="04D9"/>
  <outline>
    <component base="LtnSmSchwa"/>
    <contour>
      <point x="460" y="0" type="move" name="H"/>
    </contour>
    <contour>
      <point x="460" y="-100" type="move" name="L"/>
    </contour>
    <contour>
      <point x="490" y="0" type="move" name="O"/>
    </contour>
    <contour>
      <point x="460" y="1050" type="move" name="U"/>
    </contour>
  </outline>
</glyph>
<glyph name="CyCapZheDiaer" format="1">
  <advance width="1760"/>
  <unicode hex="04DC"/>
  <outline>
    <component base="CyCapZhe"/>
    <component base="CombDiaer.LP" xOffset="1383" yOffset="320"/>
    <contour>
      <point x="868" y="-100" type="move" name="L"/>
    </contour>
    <contour>
      <point x="868" y="1690" type="move" name="U"/>
    </contour>
  </outline>
</glyph>
<glyph name="CyCapAbkhasDze" format="1">
  <advance width="1066"/>
  <unicode hex="04E0"/>
  <outline>
    <component base="LtnCapEzh"/>
    <contour>
      <point x="520" y="-100" type="move" name="L"/>
    </contour>
    <contour>
      <point x="535" y="1370" type="move" name="U"/>
    </contour>
  </outline>
</glyph>
<glyph name="CyCapIDiaer" format="1">
  <advance width="1360"/>
  <unicode hex="04E4"/>
  <outline>
    <component base="CyCapI"/>
    <component base="CombDiaer.LP" xOffset="1185" yOffset="320"/>
    <contour>
      <point x="670" y="-100" type="move" name="L"/>
    </contour>
    <contour>
      <point x="670" y="1690" type="move" name="U"/>
    </contour>
  </outline>
</glyph>
<glyph name="CySmIDiaer" format="1">
  <advance width="1195"/>
  <unicode hex="04E5"/>
  <outline>
    <component base="CySmI"/>
    <component base="CombDiaer" xOffset="1112"/>
    <contour>
      <point x="597" y="1410" type="move" name="U"/>
    </contour>
    <contour>
      <point x="597" y="-100" type="move" name="L"/>
    </contour>
  </outline>
</glyph>
<glyph name="CySmODiaer" format="1">
  <advance width="1030"/>
  <unicode hex="04E7"/>
  <outline>
    <component base="CySmO"/>
    <component base="CombDiaer" xOffset="1031"/>
    <contour>
      <point x="516" y="-100" type="move" name="L"/>
    </contour>
    <contour>
      <point x="516" y="1410" type="move" name="U"/>
    </contour>
  </outline>
</glyph>
<glyph name="CyCapBarredO" format="1">
  <advance width="1229"/>
  <unicode hex="04E8"/>
  <outline>
    <component base="LtnCapOMiddleTilde"/>
    <contour>
      <point x="604" y="-100" type="move" name="L"/>
    </contour>
    <contour>
      <point x="604" y="1370" type="move" name="U"/>
    </contour>
  </outline>
</glyph>
<glyph name="CyCapElHook" format="1">
  <advance width="1258"/>
  <unicode hex="0512"/>
  <outline>
    <contour>
      <point x="585" y="1199" type="curve"/>
      <point x="573" y="1198"/>
      <point x="486" y="1211"/>
      <point x="474" y="1209" type="curve"/>
      <point x="441" y="593"/>
      <point x="328" y="172"/>
      <point x="202" y="172" type="curve" smooth="yes"/>
      <point x="162" y="172"/>
      <point x="127" y="214"/>
      <point x="114" y="309" type="curve"/>
      <point x="71" y="320" type="line"/>
      <point x="52" y="243"/>
      <point x="34" y="32"/>
      <point x="54" y="20" type="curve" smooth="yes"/>
      <point x="81" y="4"/>
      <point x="125" y="-20"/>
      <point x="178" y="-20" type="curve" smooth="yes"/>
      <point x="436" y="-20"/>
      <point x="546" y="489"/>
    </contour>
    <contour>
      <point x="903" y="414" type="line"/>
      <point x="950" y="414"/>
      <point x="1014" y="414"/>
      <point x="1063" y="414" type="curve"/>
      <point x="1063" y="1155" type="line"/>
      <point x="1063" y="1174"/>
      <point x="1117" y="1198"/>
      <point x="1208" y="1217" type="curve"/>
      <point x="1208" y="1260" type="line"/>
      <point x="288" y="1260" type="line"/>
      <point x="288" y="1217" type="line"/>
      <point x="384" y="1198"/>
      <point x="462" y="1177"/>
      <point x="473" y="1155" type="curve"/>
      <point x="530" y="1129" type="line"/>
      <point x="533" y="1158"/>
      <point x="572" y="1170"/>
      <point x="572" y="1170" type="curve"/>
      <point x="758" y="1170"/>
      <point x="903" y="1170"/>
      <point x="903" y="1170" type="curve"/>
    </contour>
    <contour>
      <point x="1063" y="476" type="line"/>
      <point x="903" y="476" type="line"/>
      <point x="903" y="265" type="line" smooth="yes"/>
      <point x="903" y="-26"/>
      <point x="884" y="-229"/>
      <point x="546" y="-322" type="curve"/>
      <point x="556" y="-344"/>
      <point x="562" y="-360"/>
      <point x="575" y="-380" type="curve"/>
      <point x="1055" y="-286"/>
      <point x="1063" y="-18"/>
      <point x="1063" y="318" type="curve" smooth="yes"/>
    </contour>
    <contour>
      <point x="700" y="-600" type="move" name="L"/>
    </contour>
    <contour>
      <point x="739" y="1370" type="move" name="U"/>
    </contour>
  </outline>
</glyph>
<glyph name="CySmElHook" format="1">
  <advance width="1083"/>
  <unicode hex="0513"/>
  <outline>
    <contour>
      <point x="1048" y="887" type="curve"/>
      <point x="1048" y="930" type="line"/>
      <point x="228" y="930" type="line"/>
      <point x="228" y="887" type="line"/>
      <point x="322" y="869"/>
      <point x="399" y="842"/>
      <point x="401" y="826" type="curve"/>
      <point x="473" y="816" type="line"/>
      <point x="474" y="837"/>
      <point x="473" y="840"/>
      <point x="473" y="840" type="curve"/>
      <point x="758" y="840" type="line"/>
      <point x="758" y="270" type="line"/>
      <point x="796" y="270"/>
      <point x="878" y="270"/>
      <point x="908" y="270" type="curve"/>
      <point x="908" y="826" type="line" smooth="yes"/>
      <point x="908" y="844"/>
      <point x="958" y="869"/>
    </contour>
    <contour>
      <point x="507" y="869" type="curve"/>
      <point x="495" y="868"/>
      <point x="418" y="881"/>
      <point x="406" y="879" type="curve"/>
      <point x="352" y="314"/>
      <point x="264" y="156"/>
      <point x="174" y="152" type="curve" smooth="yes"/>
      <point x="154" y="151"/>
      <point x="119" y="174"/>
      <point x="106" y="269" type="curve"/>
      <point x="63" y="280" type="line"/>
      <point x="44" y="203"/>
      <point x="39" y="22"/>
      <point x="56" y="10" type="curve" smooth="yes"/>
      <point x="83" y="-9"/>
      <point x="117" y="-20"/>
      <point x="150" y="-20" type="curve" smooth="yes"/>
      <point x="332" y="-20"/>
      <point x="431" y="161"/>
    </contour>
    <contour>
      <point x="908" y="326" type="line"/>
      <point x="758" y="326" type="line"/>
      <point x="758" y="115" type="line" smooth="yes"/>
      <point x="758" y="-135"/>
      <point x="759" y="-374"/>
      <point x="459" y="-445" type="curve"/>
      <point x="467" y="-470"/>
      <point x="470" y="-476"/>
      <point x="480" y="-500" type="curve"/>
      <point x="908" y="-414"/>
      <point x="908" y="-192"/>
      <point x="908" y="168" type="curve" smooth="yes"/>
    </contour>
    <contour>
      <point x="524" y="-600" type="move" name="L"/>
    </contour>
    <contour>
      <point x="630" y="1050" type="move" name="U"/>
    </contour>
  </outline>
</glyph>
<glyph name="CyCapQa" format="1">
  <advance width="1229"/>
  <unicode hex="051A"/>
  <outline>
    <component base="LtnCapQ"/>
    <contour>
      <point x="604" y="-260" type="move" name="L"/>
    </contour>
    <contour>
      <point x="604" y="1370" type="move" name="U"/>
    </contour>
  </outline>
</glyph>
<glyph name="CyCapWe" format="1">
  <advance width="1741"/>
  <unicode hex="051C"/>
  <outline>
    <component base="LtnCapW"/>
    <contour>
      <point x="861" y="-100" type="move" name="L"/>
    </contour>
    <contour>
      <point x="861" y="1370" type="move" name="U"/>
    </contour>
  </outline>
</glyph>
<glyph name="CySmEnLftHook" format="1">
  <advance width="1165"/>
  <unicode hex="0529"/>
  <outline>
    <contour>
      <point x="872" y="430" type="line"/>
      <point x="872" y="520" type="line"/>
      <point x="269" y="520" type="line"/>
      <point x="269" y="430" type="line"/>
    </contour>
    <contour>
      <point x="1110" y="0" type="line"/>
      <point x="1110" y="43" type="line"/>
      <point x="1013" y="61"/>
      <point x="970" y="88"/>
      <point x="970" y="104" type="curve" smooth="yes"/>
      <point x="970" y="826" type="line" smooth="yes"/>
      <point x="970" y="844"/>
      <point x="1020" y="869"/>
      <point x="1110" y="887" type="curve"/>
      <point x="1110" y="930" type="line"/>
      <point x="680" y="930" type="line"/>
      <point x="680" y="887" type="line"/>
      <point x="777" y="869"/>
      <point x="820" y="842"/>
      <point x="820" y="826" type="curve" smooth="yes"/>
      <point x="820" y="104" type="line" smooth="yes"/>
      <point x="820" y="86"/>
      <point x="770" y="61"/>
      <point x="680" y="43" type="curve"/>
      <point x="680" y="0" type="line"/>
    </contour>
    <contour>
      <point x="485" y="887" type="curve"/>
      <point x="485" y="930" type="line"/>
      <point x="55" y="930" type="line"/>
      <point x="55" y="887" type="line"/>
      <point x="152" y="869"/>
      <point x="195" y="842"/>
      <point x="195" y="826" type="curve" smooth="yes"/>
      <point x="195" y="218" type="line"/>
      <point x="235" y="218"/>
      <point x="306" y="218"/>
      <point x="345" y="218" type="curve"/>
      <point x="345" y="826" type="line" smooth="yes"/>
      <point x="345" y="844"/>
      <point x="395" y="869"/>
    </contour>
    <contour>
      <point x="345" y="326" type="line"/>
      <point x="195" y="326" type="line"/>
      <point x="195" y="115" type="line" smooth="yes"/>
      <point x="195" y="-135"/>
      <point x="196" y="-374"/>
      <point x="-104" y="-445" type="curve"/>
      <point x="-96" y="-470"/>
      <point x="-93" y="-476"/>
      <point x="-83" y="-500" type="curve"/>
      <point x="345" y="-414"/>
      <point x="345" y="-192"/>
      <point x="345" y="168" type="curve" smooth="yes"/>
    </contour>
    <contour>
      <point x="582" y="-600" type="move" name="L"/>
    </contour>
    <contour>
      <point x="582" y="1050" type="move" name="U"/>
    </contour>
  </outline>
</glyph>
<glyph name="CombDoubledCircum" format="1">
  <advance width="0"/>
  <unicode hex="1AB0"/>
  <outline>
    <component base="CombCircum"/>
    <contour>
      <point x="-514" y="1500" type="move" name="U"/>
    </contour>
    <contour>
      <point x="-514" y="1050" type="move" name="_U"/>
    </contour>
  </outline>
</glyph>
<glyph name="LtnSmCapAe" format="1">
  <advance width="1323"/>
  <unicode hex="1D01"/>
  <outline>
    <contour>
      <point x="1189" y="218" type="line"/>
      <point x="1143" y="113"/>
      <point x="1109" y="90"/>
      <point x="986" y="90" type="curve" smooth="yes"/>
      <point x="939" y="90" type="line" smooth="yes"/>
      <point x="795" y="90"/>
      <point x="765" y="116"/>
      <point x="765" y="145" type="curve" smooth="yes"/>
      <point x="765" y="473" type="line"/>
      <point x="865" y="473" type="line" smooth="yes"/>
      <point x="960" y="473"/>
      <point x="1004" y="462"/>
      <point x="1036" y="433" type="curve"/>
      <point x="1060" y="448"/>
      <point x="1100" y="488"/>
      <point x="1119" y="516" type="curve"/>
      <point x="1085" y="553" type="line"/>
      <point x="765" y="553" type="line"/>
      <point x="765" y="840" type="line"/>
      <point x="1053" y="840" type="line" smooth="yes"/>
      <point x="1096" y="840"/>
      <point x="1118" y="813"/>
      <point x="1123" y="722" type="curve"/>
      <point x="1161" y="722" type="line"/>
      <point x="1177" y="760"/>
      <point x="1192" y="861"/>
      <point x="1193" y="911" type="curve"/>
      <point x="1168" y="930" type="line"/>
      <point x="287" y="930" type="line"/>
      <point x="287" y="887" type="line"/>
      <point x="381" y="876"/>
      <point x="443" y="850"/>
      <point x="429" y="820" type="curve" smooth="yes"/>
      <point x="102" y="104" type="line" smooth="yes"/>
      <point x="88" y="74"/>
      <point x="41" y="55"/>
      <point x="-30" y="43" type="curve"/>
      <point x="-30" y="0" type="line"/>
      <point x="317" y="0" type="line"/>
      <point x="317" y="43" type="line"/>
      <point x="227" y="55"/>
      <point x="203" y="74"/>
      <point x="217" y="104" type="curve" smooth="yes"/>
      <point x="387" y="473" type="line"/>
      <point x="615" y="473" type="line"/>
      <point x="615" y="104" type="line" smooth="yes"/>
      <point x="615" y="90"/>
      <point x="551" y="56"/>
      <point x="476" y="43" type="curve"/>
      <point x="476" y="0" type="line"/>
      <point x="1190" y="0" type="line"/>
      <point x="1198" y="29"/>
      <point x="1220" y="120"/>
      <point x="1230" y="205" type="curve"/>
    </contour>
    <contour>
      <point x="615" y="553" type="line"/>
      <point x="424" y="553" type="line"/>
      <point x="546" y="826" type="line" smooth="yes"/>
      <point x="555" y="845"/>
      <point x="576" y="856"/>
      <point x="593" y="856" type="curve" smooth="yes"/>
      <point x="605" y="856"/>
      <point x="615" y="849"/>
      <point x="615" y="840" type="curve" smooth="yes"/>
    </contour>
    <contour>
      <point x="692" y="-100" type="move" name="L"/>
    </contour>
    <contour>
      <point x="764" y="1050" type="move" name="U"/>
    </contour>
  </outline>
</glyph>
<glyph name="LtnSmCapRevN" format="1">
  <advance width="1185"/>
  <unicode hex="1D0E"/>
  <outline>
    <contour>
      <point x="447" y="930" type="line"/>
      <point x="55" y="930" type="line"/>
      <point x="55" y="887" type="line"/>
      <point x="134" y="871"/>
      <point x="195" y="839"/>
      <point x="195" y="825" type="curve" smooth="yes"/>
      <point x="195" y="24" type="line"/>
      <point x="307" y="53" type="line"/>
      <point x="307" y="825" type="line" smooth="yes"/>
      <point x="307" y="837"/>
      <point x="359" y="869"/>
      <point x="447" y="887" type="curve"/>
    </contour>
    <contour>
      <point x="1120" y="930" type="line"/>
      <point x="920" y="930" type="line" smooth="yes"/>
      <point x="888" y="930"/>
      <point x="882" y="924"/>
      <point x="840" y="872" type="curve" smooth="yes"/>
      <point x="305" y="213" type="line" smooth="yes"/>
      <point x="282" y="184"/>
      <point x="195" y="89"/>
      <point x="195" y="89" type="curve"/>
      <point x="195" y="-30" type="line"/>
      <point x="248" y="-24"/>
      <point x="305" y="-11"/>
      <point x="318" y="6" type="curve" smooth="yes"/>
      <point x="952" y="790" type="line" smooth="yes"/>
      <point x="998" y="847"/>
      <point x="1062" y="879"/>
      <point x="1120" y="887" type="curve"/>
    </contour>
    <contour>
      <point x="1120" y="43" type="line"/>
      <point x="1039" y="59"/>
      <point x="980" y="91"/>
      <point x="980" y="104" type="curve" smooth="yes"/>
      <point x="980" y="872" type="line"/>
      <point x="870" y="890" type="line"/>
      <point x="870" y="104" type="line" smooth="yes"/>
      <point x="870" y="92"/>
      <point x="815" y="60"/>
      <point x="731" y="43" type="curve"/>
      <point x="731" y="0" type="line"/>
      <point x="1120" y="0" type="line"/>
    </contour>
    <contour>
      <point x="608" y="-100" type="move" name="L"/>
    </contour>
    <contour>
      <point x="608" y="1050" type="move" name="U"/>
    </contour>
  </outline>
</glyph>
<glyph name="LtnSmCapO" format="1">
  <advance width="1070"/>
  <unicode hex="1D0F"/>
  <outline>
    <contour>
      <point x="990" y="477" type="curve" smooth="yes"/>
      <point x="990" y="718"/>
      <point x="834" y="960"/>
      <point x="559" y="960" type="curve" smooth="yes"/>
      <point x="298" y="960"/>
      <point x="80" y="750"/>
      <point x="80" y="452" type="curve" smooth="yes"/>
      <point x="80" y="204"/>
      <point x="244" y="-22"/>
      <point x="511" y="-22" type="curve" smooth="yes"/>
      <point x="764" y="-22"/>
      <point x="990" y="180"/>
    </contour>
    <contour>
      <point x="840" y="464" type="curve" smooth="yes"/>
      <point x="840" y="204"/>
      <point x="713" y="74"/>
      <point x="535" y="74" type="curve" smooth="yes"/>
      <point x="364" y="74"/>
      <point x="230" y="252"/>
      <point x="230" y="473" type="curve" smooth="yes"/>
      <point x="230" y="714"/>
      <point x="338" y="868"/>
      <point x="535" y="868" type="curve" smooth="yes"/>
      <point x="724" y="868"/>
      <point x="840" y="668"/>
    </contour>
    <contour>
      <point x="552" y="1050" type="move" name="U"/>
    </contour>
    <contour>
      <point x="528" y="-100" type="move" name="L"/>
    </contour>
  </outline>
</glyph>
<glyph name="LtnSmCapOu" format="1">
  <advance width="900"/>
  <unicode hex="1D15"/>
  <outline>
    <contour>
      <point x="441" y="889" type="curve" smooth="yes"/>
      <point x="548" y="889"/>
      <point x="637" y="826"/>
      <point x="637" y="767" type="curve" smooth="yes"/>
      <point x="637" y="716"/>
      <point x="610" y="662"/>
      <point x="473" y="603" type="curve"/>
      <point x="562" y="579" type="line"/>
      <point x="719" y="645"/>
      <point x="759" y="711"/>
      <point x="759" y="791" type="curve" smooth="yes"/>
      <point x="759" y="896"/>
      <point x="623" y="955"/>
      <point x="480" y="955" type="curve" smooth="yes"/>
      <point x="319" y="955"/>
      <point x="133" y="869"/>
      <point x="133" y="734" type="curve" smooth="yes"/>
      <point x="133" y="459"/>
      <point x="692" y="532"/>
      <point x="692" y="269" type="curve" smooth="yes"/>
      <point x="692" y="147"/>
      <point x="607" y="75"/>
      <point x="473" y="75" type="curve" smooth="yes"/>
      <point x="306" y="75"/>
      <point x="208" y="146"/>
      <point x="208" y="273" type="curve" smooth="yes"/>
      <point x="208" y="362"/>
      <point x="283" y="456"/>
      <point x="420" y="526" type="curve"/>
      <point x="346" y="555" type="line"/>
      <point x="165" y="493"/>
      <point x="61" y="376"/>
      <point x="61" y="250" type="curve" smooth="yes"/>
      <point x="61" y="92"/>
      <point x="182" y="-22"/>
      <point x="429" y="-22" type="curve" smooth="yes"/>
      <point x="658" y="-22"/>
      <point x="840" y="129"/>
      <point x="840" y="309" type="curve" smooth="yes"/>
      <point x="840" y="635"/>
      <point x="242" y="602"/>
      <point x="242" y="769" type="curve" smooth="yes"/>
      <point x="242" y="834"/>
      <point x="352" y="889"/>
    </contour>
    <contour>
      <point x="433" y="-100" type="move" name="L"/>
    </contour>
    <contour>
      <point x="433" y="1050" type="move" name="U"/>
    </contour>
  </outline>
</glyph>
<glyph name="LtnSupSmO" format="1">
  <advance width="721"/>
  <unicode hex="1D52"/>
  <outline>
    <contour>
      <point x="665" y="911" type="curve" smooth="yes"/>
      <point x="665" y="1075"/>
      <point x="550" y="1196"/>
      <point x="374" y="1196" type="curve" smooth="yes"/>
      <point x="199" y="1196"/>
      <point x="56" y="1045"/>
      <point x="56" y="886" type="curve" smooth="yes"/>
      <point x="56" y="723"/>
      <point x="171" y="602"/>
      <point x="347" y="602" type="curve" smooth="yes"/>
      <point x="517" y="602"/>
      <point x="665" y="751"/>
    </contour>
    <contour>
      <point x="541" y="893" type="curve" smooth="yes"/>
      <point x="541" y="764"/>
      <point x="484" y="676"/>
      <point x="367" y="676" type="curve" smooth="yes"/>
      <point x="288" y="676"/>
      <point x="179" y="783"/>
      <point x="179" y="904" type="curve" smooth="yes"/>
      <point x="179" y="1024"/>
      <point x="227" y="1122"/>
      <point x="354" y="1122" type="curve" smooth="yes"/>
      <point x="435" y="1122"/>
      <point x="541" y="1012"/>
    </contour>
    <contour>
      <point x="358" y="540" type="move" name="L"/>
    </contour>
    <contour>
      <point x="358" y="1286" type="move" name="U"/>
    </contour>
  </outline>
</glyph>
<glyph name="ModSmChi" format="1">
  <advance width="697"/>
  <unicode hex="1D61"/>
  <outline>
    <contour>
      <point x="672" y="1176" type="curve"/>
      <point x="653" y="1196" type="line"/>
      <point x="618" y="1188"/>
      <point x="546" y="1181"/>
      <point x="511" y="1177" type="curve"/>
      <point x="472" y="1072"/>
      <point x="412" y="948"/>
      <point x="345" y="833" type="curve"/>
      <point x="400" y="778" type="line"/>
      <point x="481" y="920"/>
      <point x="569" y="1048"/>
    </contour>
    <contour>
      <point x="697" y="465" type="curve"/>
      <point x="687" y="502" type="line"/>
      <point x="641" y="483"/>
      <point x="629" y="481"/>
      <point x="615" y="481" type="curve" smooth="yes"/>
      <point x="570" y="481"/>
      <point x="496" y="601"/>
      <point x="396" y="838" type="curve" smooth="yes"/>
      <point x="263" y="1151"/>
      <point x="219" y="1177"/>
      <point x="184" y="1196" type="curve"/>
      <point x="123" y="1173"/>
      <point x="81" y="1159"/>
      <point x="14" y="1147" type="curve"/>
      <point x="14" y="1113" type="line"/>
      <point x="14" y="1113"/>
      <point x="64" y="1116"/>
      <point x="86" y="1110" type="curve" smooth="yes"/>
      <point x="143" y="1097"/>
      <point x="188" y="1028"/>
      <point x="300" y="771" type="curve" smooth="yes"/>
      <point x="418" y="498"/>
      <point x="480" y="392"/>
      <point x="554" y="392" type="curve" smooth="yes"/>
      <point x="580" y="392"/>
      <point x="610" y="406"/>
    </contour>
    <contour>
      <point x="369" y="753" type="curve"/>
      <point x="313" y="807" type="line"/>
      <point x="239" y="675"/>
      <point x="142" y="538"/>
      <point x="23" y="412" type="curve"/>
      <point x="44" y="392" type="line"/>
      <point x="78" y="401"/>
      <point x="154" y="416"/>
      <point x="191" y="420" type="curve"/>
      <point x="245" y="526"/>
      <point x="334" y="679"/>
    </contour>
    <contour>
      <point x="360" y="258" type="move" name="L"/>
    </contour>
    <contour>
      <point x="372" y="1286" type="move" name="U"/>
    </contour>
  </outline>
</glyph>
<glyph name="LtnSmTurnedG" format="1">
  <advance width="1079"/>
  <unicode hex="1D77"/>
  <outline>
    <contour>
      <point x="69" y="580" type="curve" smooth="yes"/>
      <point x="69" y="486"/>
      <point x="146" y="382"/>
      <point x="437" y="350" type="curve"/>
      <point x="646" y="325"/>
      <point x="693" y="296"/>
      <point x="693" y="264" type="curve" smooth="yes"/>
      <point x="693" y="253"/>
      <point x="655" y="190"/>
      <point x="535" y="110" type="curve"/>
      <point x="677" y="127" type="line"/>
      <point x="832" y="227"/>
      <point x="857" y="283"/>
      <point x="857" y="307" type="curve" smooth="yes"/>
      <point x="857" y="371"/>
      <point x="783" y="434"/>
      <point x="521" y="464" type="curve" smooth="yes"/>
      <point x="279" y="491"/>
      <point x="219" y="543"/>
      <point x="219" y="617" type="curve" smooth="yes"/>
      <point x="219" y="755"/>
      <point x="337" y="856"/>
      <point x="517" y="856" type="curve" smooth="yes"/>
      <point x="699" y="856"/>
      <point x="859" y="762"/>
      <point x="859" y="650" type="curve" smooth="yes"/>
      <point x="859" y="605"/>
      <point x="840" y="542"/>
      <point x="625" y="430" type="curve"/>
      <point x="631" y="403"/>
      <point x="705" y="399"/>
      <point x="705" y="399" type="curve"/>
      <point x="966" y="533"/>
      <point x="1009" y="616"/>
      <point x="1009" y="689" type="curve" smooth="yes"/>
      <point x="1009" y="883"/>
      <point x="758" y="960"/>
      <point x="572" y="960" type="curve" smooth="yes"/>
      <point x="337" y="960"/>
      <point x="69" y="799"/>
    </contour>
    <contour>
      <point x="50" y="-470" type="curve"/>
      <point x="70" y="-500" type="line"/>
      <point x="132" y="-477"/>
      <point x="228" y="-441"/>
      <point x="404" y="-431" type="curve"/>
      <point x="357" y="-354" type="line"/>
      <point x="244" y="-350"/>
      <point x="179" y="-358"/>
      <point x="107" y="-370" type="curve"/>
      <point x="76" y="-403"/>
      <point x="66" y="-433"/>
    </contour>
    <contour>
      <point x="209" y="-181" type="curve" smooth="yes"/>
      <point x="209" y="-354"/>
      <point x="359" y="-500"/>
      <point x="554" y="-500" type="curve" smooth="yes"/>
      <point x="748" y="-500"/>
      <point x="939" y="-338"/>
      <point x="939" y="-142" type="curve" smooth="yes"/>
      <point x="939" y="44"/>
      <point x="797" y="166"/>
      <point x="605" y="166" type="curve" smooth="yes"/>
      <point x="410" y="166"/>
      <point x="209" y="23"/>
    </contour>
    <contour>
      <point x="349" y="-140" type="curve" smooth="yes"/>
      <point x="349" y="-8"/>
      <point x="447" y="61"/>
      <point x="525" y="61" type="curve" smooth="yes"/>
      <point x="713" y="61"/>
      <point x="799" y="-57"/>
      <point x="799" y="-199" type="curve" smooth="yes"/>
      <point x="799" y="-331"/>
      <point x="689" y="-398"/>
      <point x="623" y="-398" type="curve" smooth="yes"/>
      <point x="443" y="-398"/>
      <point x="349" y="-282"/>
    </contour>
    <contour>
      <point x="556" y="-600" type="move" name="L"/>
    </contour>
    <contour>
      <point x="1152" y="900" type="move" name="R"/>
    </contour>
    <contour>
      <point x="556" y="1050" type="move" name="U"/>
    </contour>
  </outline>
</glyph>
<glyph name="LtnSmUpsilonStrk" format="1">
  <advance width="1010"/>
  <unicode hex="1D7F"/>
  <outline>
    <contour>
      <point x="930" y="887" type="curve"/>
      <point x="930" y="930" type="line"/>
      <point x="585" y="930" type="line"/>
      <point x="565" y="838" type="line"/>
      <point x="692" y="762"/>
      <point x="768" y="584"/>
      <point x="768" y="383" type="curve" smooth="yes"/>
      <point x="768" y="248"/>
      <point x="690" y="80"/>
      <point x="534" y="80" type="curve" smooth="yes"/>
      <point x="380" y="80"/>
      <point x="245" y="250"/>
      <point x="245" y="428" type="curve" smooth="yes"/>
      <point x="245" y="627"/>
      <point x="317" y="741"/>
      <point x="444" y="838" type="curve"/>
      <point x="426" y="930" type="line"/>
      <point x="80" y="930" type="line"/>
      <point x="80" y="887" type="line"/>
      <point x="80" y="887"/>
      <point x="307" y="836"/>
      <point x="260" y="793" type="curve" smooth="yes"/>
      <point x="137" y="682"/>
      <point x="95" y="549"/>
      <point x="95" y="399" type="curve" smooth="yes"/>
      <point x="95" y="174"/>
      <point x="210" y="-30"/>
      <point x="485" y="-30" type="curve" smooth="yes"/>
      <point x="759" y="-30"/>
      <point x="903" y="246"/>
      <point x="903" y="434" type="curve" smooth="yes"/>
      <point x="903" y="569"/>
      <point x="864" y="690"/>
      <point x="747" y="793" type="curve" smooth="yes"/>
      <point x="702" y="834"/>
      <point x="930" y="887"/>
    </contour>
    <contour>
      <point x="1010" y="480" type="line"/>
      <point x="988" y="505" type="line"/>
      <point x="12" y="505" type="line"/>
      <point x="2" y="484"/>
      <point x="-4" y="458"/>
      <point x="-10" y="437" type="curve"/>
      <point x="12" y="415" type="line"/>
      <point x="988" y="415" type="line"/>
    </contour>
    <contour>
      <point x="511" y="-100" type="move" name="L"/>
    </contour>
    <contour>
      <point x="511" y="1050" type="move" name="U"/>
    </contour>
  </outline>
</glyph>
<glyph name="ModSmCapN" format="1">
  <advance width="802"/>
  <unicode hex="1DB0"/>
  <outline>
    <contour>
      <point x="774" y="1142" type="curve"/>
      <point x="774" y="1178" type="line"/>
      <point x="500" y="1178" type="line"/>
      <point x="500" y="1142" type="line"/>
      <point x="561" y="1131"/>
      <point x="589" y="1112"/>
      <point x="589" y="1105" type="curve" smooth="yes"/>
      <point x="589" y="652" type="line"/>
      <point x="686" y="607" type="line"/>
      <point x="686" y="1105" type="line" smooth="yes"/>
      <point x="686" y="1113"/>
      <point x="719" y="1133"/>
    </contour>
    <contour>
      <point x="686" y="607" type="curve"/>
      <point x="676" y="684" type="line"/>
      <point x="251" y="1143" type="line" smooth="yes"/>
      <point x="222" y="1174"/>
      <point x="218" y="1178"/>
      <point x="195" y="1178" type="curve" smooth="yes"/>
      <point x="38" y="1178" type="line"/>
      <point x="38" y="1142" type="line"/>
      <point x="79" y="1137"/>
      <point x="124" y="1118"/>
      <point x="156" y="1084" type="curve" smooth="yes"/>
      <point x="575" y="629" type="line" smooth="yes"/>
      <point x="586" y="617"/>
      <point x="640" y="608"/>
    </contour>
    <contour>
      <point x="311" y="620" type="line"/>
      <point x="311" y="656" type="line"/>
      <point x="252" y="666"/>
      <point x="221" y="685"/>
      <point x="221" y="692" type="curve" smooth="yes"/>
      <point x="221" y="1154" type="line"/>
      <point x="126" y="1133" type="line"/>
      <point x="126" y="692" type="line" smooth="yes"/>
      <point x="126" y="685"/>
      <point x="95" y="665"/>
      <point x="38" y="656" type="curve"/>
      <point x="38" y="620" type="line"/>
    </contour>
    <contour>
      <point x="403" y="1286" type="move" name="U"/>
    </contour>
    <contour>
      <point x="403" y="540" type="move" name="L"/>
    </contour>
  </outline>
</glyph>
<glyph name="CombUpTackAbv" format="1">
  <advance width="0"/>
  <unicode hex="1DF5"/>
  <outline>
    <contour>
      <point x="-305" y="1238" type="curve"/>
      <point x="-330" y="1265" type="line"/>
      <point x="-696" y="1265" type="line"/>
      <point x="-710" y="1238"/>
      <point x="-717" y="1226"/>
      <point x="-725" y="1199" type="curve"/>
      <point x="-702" y="1175" type="line"/>
      <point x="-332" y="1175" type="line"/>
      <point x="-320" y="1197"/>
      <point x="-312" y="1212"/>
    </contour>
    <contour>
      <point x="-470" y="1226" type="curve"/>
      <point x="-470" y="1501" type="line"/>
      <point x="-497" y="1525" type="line"/>
      <point x="-523" y="1517"/>
      <point x="-537" y="1508"/>
      <point x="-560" y="1495" type="curve"/>
      <point x="-560" y="1217" type="line"/>
      <point x="-535" y="1195" type="line"/>
      <point x="-509" y="1203"/>
      <point x="-497" y="1210"/>
    </contour>
    <contour>
      <point x="-515" y="1550" type="move" name="U"/>
    </contour>
    <contour>
      <point x="-515" y="1050" type="move" name="_U"/>
    </contour>
  </outline>
</glyph>
<glyph name="LtnSmARingBlw" format="1">
  <advance width="940"/>
  <unicode hex="1E01"/>
  <outline>
    <component base="LtnSmA"/>
    <component base="CombRingBlw" xOffset="975"/>
    <contour>
      <point x="446" y="0" type="move" name="H"/>
    </contour>
    <contour>
      <point x="940" y="900" type="move" name="R"/>
    </contour>
    <contour>
      <point x="480" y="1050" type="move" name="U"/>
    </contour>
    <contour>
      <point x="460" y="-650" type="move" name="L"/>
    </contour>
    <contour>
      <point x="715" y="0" type="move" name="O"/>
    </contour>
  </outline>
</glyph>
<glyph name="LtnCapBDotBlw" format="1">
  <advance width="1126"/>
  <unicode hex="1E04"/>
  <outline>
    <component base="LtnCapB"/>
    <component base="CombDotBlw" xOffset="1043"/>
    <contour>
      <point x="528" y="1370" type="move" name="U"/>
    </contour>
    <contour>
      <point x="528" y="-600" type="move" name="L"/>
    </contour>
  </outline>
</glyph>
<glyph name="LtnSmBDotBlw" format="1">
  <advance width="1040"/>
  <unicode hex="1E05"/>
  <outline>
    <component base="LtnSmB"/>
    <component base="CombDotBlw" xOffset="994"/>
    <contour>
      <point x="479" y="0" type="move" name="H"/>
    </contour>
    <contour>
      <point x="479" y="-600" type="move" name="L"/>
    </contour>
    <contour>
      <point x="1068" y="900" type="move" name="R"/>
    </contour>
    <contour>
      <point x="520" y="1620" type="move" name="U"/>
    </contour>
  </outline>
</glyph>
<glyph name="LtnCapBLineBlw" format="1">
  <advance width="1126"/>
  <unicode hex="1E06"/>
  <outline>
    <component base="LtnCapB"/>
    <component base="CombMacronBlw" xOffset="1043"/>
    <contour>
      <point x="528" y="-600" type="move" name="L"/>
    </contour>
    <contour>
      <point x="528" y="1370" type="move" name="U"/>
    </contour>
  </outline>
</glyph>
<glyph name="LtnSmCCedillaAcute" format="1">
  <advance width="895"/>
  <unicode hex="1E09"/>
  <outline>
    <component base="LtnSmC"/>
    <component base="CombAcute" xOffset="1033"/>
    <component base="CombCedilla" xOffset="1003"/>
    <contour>
      <point x="490" y="-600" type="move" name="L"/>
    </contour>
    <contour>
      <point x="948" y="900" type="move" name="R"/>
    </contour>
    <contour>
      <point x="490" y="1410" type="move" name="U"/>
    </contour>
  </outline>
</glyph>
<glyph name="LtnCapDDotAbv" format="1">
  <advance width="1214"/>
  <unicode hex="1E0A"/>
  <outline>
    <component base="LtnCapD"/>
    <component base="CombDotAbv.LP" xOffset="1065" yOffset="320"/>
    <contour>
      <point x="550" y="-100" type="move" name="L"/>
    </contour>
    <contour>
      <point x="550" y="1690" type="move" name="U"/>
    </contour>
  </outline>
</glyph>
<glyph name="LtnSmDDotBlw" format="1">
  <advance width="1065"/>
  <unicode hex="1E0D"/>
  <outline>
    <component base="LtnSmD"/>
    <component base="CombDotBlw" xOffset="1040"/>
    <contour>
      <point x="558" y="0" type="move" name="H"/>
    </contour>
    <contour>
      <point x="525" y="-600" type="move" name="L"/>
    </contour>
    <contour>
      <point x="1065" y="900" type="move" name="R"/>
    </contour>
    <contour>
      <point x="335" y="1050" type="move" name="U"/>
    </contour>
  </outline>
</glyph>
<glyph name="LtnSmDLineBlw" format="1">
  <advance width="1065"/>
  <unicode hex="1E0F"/>
  <outline>
    <component base="LtnSmD"/>
    <component base="CombMacronBlw" xOffset="1040"/>
    <contour>
      <point x="558" y="0" type="move" name="H"/>
    </contour>
    <contour>
      <point x="1065" y="900" type="move" name="R"/>
    </contour>
    <contour>
      <point x="335" y="1050" type="move" name="U"/>
    </contour>
    <contour>
      <point x="525" y="-600" type="move" name="L"/>
    </contour>
  </outline>
</glyph>
<glyph name="LtnSmDCedilla" format="1">
  <advance width="1065"/>
  <unicode hex="1E11"/>
  <outline>
    <component base="LtnSmD"/>
    <component base="CombCommaBlw" xOffset="1045"/>
    <contour>
      <point x="558" y="0" type="move" name="H"/>
    </contour>
    <contour>
      <point x="1065" y="900" type="move" name="R"/>
    </contour>
    <contour>
      <point x="335" y="1050" type="move" name="U"/>
    </contour>
    <contour>
      <point x="525" y="-600" type="move" name="L"/>
    </contour>
  </outline>
</glyph>
<glyph name="LtnCapEMacronGrave" format="1">
  <advance width="1016"/>
  <unicode hex="1E14"/>
  <outline>
    <component base="LtnCapE"/>
    <component base="CombMacron.LP" xOffset="1027" yOffset="320"/>
    <component base="CombGrave.LP" xOffset="935" yOffset="640"/>
    <contour>
      <point x="502" y="0" type="move" name="H"/>
    </contour>
    <contour>
      <point x="502" y="-100" type="move" name="L"/>
    </contour>
    <contour>
      <point x="750" y="0" type="move" name="O"/>
    </contour>
    <contour>
      <point x="1016" y="1100" type="move" name="R"/>
    </contour>
    <contour>
      <point x="502" y="2010" type="move" name="U"/>
    </contour>
  </outline>
</glyph>
<glyph name="LtnSmETildeBlw" format="1">
  <advance width="946"/>
  <unicode hex="1E1B"/>
  <outline>
    <component base="LtnSmE"/>
    <component base="CombTildeBlw" xOffset="1015"/>
    <contour>
      <point x="500" y="0" type="move" name="H"/>
    </contour>
    <contour>
      <point x="500" y="-600" type="move" name="L"/>
    </contour>
    <contour>
      <point x="558" y="0" type="move" name="O"/>
    </contour>
    <contour>
      <point x="1020" y="900" type="move" name="R"/>
    </contour>
    <contour>
      <point x="510" y="1050" type="move" name="U"/>
    </contour>
  </outline>
</glyph>
<glyph name="LtnCapECedillaBreve" format="1">
  <advance width="1016"/>
  <unicode hex="1E1C"/>
  <outline>
    <component base="LtnCapE"/>
    <component base="CombCedilla" xOffset="1015"/>
    <component base="CombBreve" xOffset="1017" yOffset="320"/>
    <contour>
      <point x="1016" y="1100" type="move" name="R"/>
    </contour>
    <contour>
      <point x="502" y="1690" type="move" name="U"/>
    </contour>
    <contour>
      <point x="502" y="-600" type="move" name="L"/>
    </contour>
    <contour>
      <point x="750" y="0" type="move" name="O"/>
    </contour>
  </outline>
</glyph>
<glyph name="LtnSmFDotAbv" format="1">
  <advance width="637"/>
  <unicode hex="1E1F"/>
  <outline>
    <component base="LtnSmF"/>
    <component base="CombDotAbv.LP" xOffset="935" yOffset="570"/>
    <contour>
      <point x="275" y="0" type="move" name="H"/>
    </contour>
    <contour>
      <point x="325" y="-100" type="move" name="L"/>
    </contour>
    <contour>
      <point x="420" y="1940" type="move" name="U"/>
    </contour>
  </outline>
</glyph>
<glyph name="LtnSmHDiaer" format="1">
  <advance width="1130"/>
  <unicode hex="1E27"/>
  <outline>
    <component base="LtnSmH"/>
    <component base="CombDiaer.LP" xOffset="1092" yOffset="570"/>
    <contour>
      <point x="257" y="0" type="move" name="H"/>
    </contour>
    <contour>
      <point x="577" y="-100" type="move" name="L"/>
    </contour>
    <contour>
      <point x="577" y="1940" type="move" name="U"/>
    </contour>
  </outline>
</glyph>
<glyph name="LtnCapHCedilla" format="1">
  <advance width="1339"/>
  <unicode hex="1E28"/>
  <outline>
    <component base="LtnCapH"/>
    <component base="CombCedilla" xOffset="783"/>
    <contour>
      <point x="270" y="-600" type="move" name="L"/>
    </contour>
    <contour>
      <point x="660" y="1370" type="move" name="U"/>
    </contour>
  </outline>
</glyph>
<glyph name="LtnCapIDiaerAcute" format="1">
  <advance width="610"/>
  <unicode hex="1E2E"/>
  <outline>
    <component base="LtnCapI"/>
    <component base="CombDiaer.LP" xOffset="810" yOffset="320"/>
    <component base="CombAcute.LP" xOffset="838" yOffset="640"/>
    <contour>
      <point x="295" y="0" type="move" name="H"/>
    </contour>
    <contour>
      <point x="295" y="-100" type="move" name="L"/>
    </contour>
    <contour>
      <point x="345" y="0" type="move" name="O"/>
    </contour>
    <contour>
      <point x="580" y="1100" type="move" name="R"/>
    </contour>
    <contour>
      <point x="295" y="2010" type="move" name="U"/>
    </contour>
  </outline>
</glyph>
<glyph name="LtnSmIDiaerAcute" format="1">
  <advance width="555"/>
  <unicode hex="1E2F"/>
  <outline>
    <component base="LtnSmDotlessI"/>
    <component base="CombDiaer" xOffset="800"/>
    <component base="CombAcute" xOffset="828" yOffset="360"/>
    <contour>
      <point x="285" y="0" type="move" name="H"/>
    </contour>
    <contour>
      <point x="555" y="900" type="move" name="R"/>
    </contour>
    <contour>
      <point x="285" y="1770" type="move" name="U"/>
    </contour>
    <contour>
      <point x="285" y="-100" type="move" name="L"/>
    </contour>
    <contour>
      <point x="335" y="0" type="move" name="O"/>
    </contour>
  </outline>
</glyph>
<glyph name="LtnSmKLineBlw" format="1">
  <advance width="999"/>
  <unicode hex="1E35"/>
  <outline>
    <component base="LtnSmK"/>
    <component base="CombMacronBlw" xOffset="1029"/>
    <contour>
      <point x="250" y="0" type="move" name="H"/>
    </contour>
    <contour>
      <point x="514" y="-600" type="move" name="L"/>
    </contour>
    <contour>
      <point x="999" y="900" type="move" name="R"/>
    </contour>
    <contour>
      <point x="514" y="1620" type="move" name="U"/>
    </contour>
  </outline>
</glyph>
<glyph name="LtnCapLDotBlw" format="1">
  <advance width="975"/>
  <unicode hex="1E36"/>
  <outline>
    <component base="LtnCapL"/>
    <component base="CombDotBlw" xOffset="1012"/>
    <contour>
      <point x="497" y="0" type="move" name="H"/>
    </contour>
    <contour>
      <point x="497" y="-600" type="move" name="L"/>
    </contour>
    <contour>
      <point x="750" y="900" type="move" name="R"/>
    </contour>
    <contour>
      <point x="467" y="1370" type="move" name="U"/>
    </contour>
  </outline>
</glyph>
<glyph name="LtnSmLDotBlw" format="1">
  <advance width="555"/>
  <unicode hex="1E37"/>
  <outline>
    <component base="LtnSmL"/>
    <component base="CombDotBlw" xOffset="800"/>
    <contour>
      <point x="285" y="0" type="move" name="H"/>
    </contour>
    <contour>
      <point x="285" y="-600" type="move" name="L"/>
    </contour>
    <contour>
      <point x="535" y="900" type="move" name="R"/>
    </contour>
    <contour>
      <point x="285" y="1690" type="move" name="U"/>
    </contour>
  </outline>
</glyph>
<glyph name="LtnCapLDotBlwMacron" format="1">
  <advance width="975"/>
  <unicode hex="1E38"/>
  <outline>
    <component base="LtnCapL"/>
    <component base="CombDotBlw" xOffset="1012"/>
    <component base="CombMacron.LP" xOffset="992" yOffset="320"/>
    <contour>
      <point x="497" y="0" type="move" name="H"/>
    </contour>
    <contour>
      <point x="497" y="-600" type="move" name="L"/>
    </contour>
    <contour>
      <point x="750" y="900" type="move" name="R"/>
    </contour>
    <contour>
      <point x="467" y="1690" type="move" name="U"/>
    </contour>
  </outline>
</glyph>
<glyph name="LtnSmLCircumBlw" format="1">
  <advance width="555"/>
  <unicode hex="1E3D"/>
  <outline>
    <component base="LtnSmL"/>
    <component base="CombCircumBlw" xOffset="799"/>
    <contour>
      <point x="285" y="0" type="move" name="H"/>
    </contour>
    <contour>
      <point x="535" y="900" type="move" name="R"/>
    </contour>
    <contour>
      <point x="285" y="1690" type="move" name="U"/>
    </contour>
    <contour>
      <point x="285" y="-600" type="move" name="L"/>
    </contour>
  </outline>
</glyph>
<glyph name="LtnCapMDotAbv" format="1">
  <advance width="1651"/>
  <unicode hex="1E40"/>
  <outline>
    <component base="LtnCapM"/>
    <component base="CombDotAbv.LP" xOffset="1330" yOffset="320"/>
    <contour>
      <point x="1350" y="0" type="move" name="H"/>
    </contour>
    <contour>
      <point x="815" y="-100" type="move" name="L"/>
    </contour>
    <contour>
      <point x="815" y="1690" type="move" name="U"/>
    </contour>
  </outline>
</glyph>
<glyph name="LtnSmMDotAbv" format="1">
  <advance width="1645"/>
  <unicode hex="1E41"/>
  <outline>
    <component base="LtnSmM"/>
    <component base="CombDotAbv" xOffset="1350"/>
    <contour>
      <point x="1400" y="0" type="move" name="H"/>
    </contour>
    <contour>
      <point x="835" y="-100" type="move" name="L"/>
    </contour>
    <contour>
      <point x="835" y="1410" type="move" name="U"/>
    </contour>
  </outline>
</glyph>
<glyph name="LtnCapMDotBlw" format="1">
  <advance width="1651"/>
  <unicode hex="1E42"/>
  <outline>
    <component base="LtnCapM"/>
    <component base="CombDotBlw" xOffset="1330"/>
    <contour>
      <point x="1350" y="0" type="move" name="H"/>
    </contour>
    <contour>
      <point x="815" y="1370" type="move" name="U"/>
    </contour>
    <contour>
      <point x="815" y="-600" type="move" name="L"/>
    </contour>
  </outline>
</glyph>
<glyph name="LtnSmMDotBlw" format="1">
  <advance width="1645"/>
  <unicode hex="1E43"/>
  <outline>
    <component base="LtnSmM"/>
    <component base="CombDotBlw" xOffset="1350"/>
    <contour>
      <point x="1400" y="0" type="move" name="H"/>
    </contour>
    <contour>
      <point x="835" y="-600" type="move" name="L"/>
    </contour>
    <contour>
      <point x="835" y="1050" type="move" name="U"/>
    </contour>
  </outline>
</glyph>
<glyph name="LtnSmNDotBlw" format="1">
  <advance width="1130"/>
  <unicode hex="1E47"/>
  <outline>
    <component base="LtnSmN"/>
    <component base="CombDotBlw" xOffset="1092"/>
    <contour>
      <point x="885" y="0" type="move" name="H"/>
    </contour>
    <contour>
      <point x="577" y="1050" type="move" name="U"/>
    </contour>
    <contour>
      <point x="577" y="-600" type="move" name="L"/>
    </contour>
  </outline>
</glyph>
<glyph name="LtnCapNLineBlw" format="1">
  <advance width="1329"/>
  <unicode hex="1E48"/>
  <outline>
    <component base="LtnCapN"/>
    <component base="CombMacronBlw" xOffset="1180"/>
    <contour>
      <point x="1047" y="0" type="move" name="H"/>
    </contour>
    <contour>
      <point x="665" y="1370" type="move" name="U"/>
    </contour>
    <contour>
      <point x="665" y="-600" type="move" name="L"/>
    </contour>
  </outline>
</glyph>
<glyph name="LtnSmNCircumBlw" format="1">
  <advance width="1130"/>
  <unicode hex="1E4B"/>
  <outline>
    <component base="LtnSmN"/>
    <component base="CombCircumBlw" xOffset="1091"/>
    <contour>
      <point x="885" y="0" type="move" name="H"/>
    </contour>
    <contour>
      <point x="577" y="1050" type="move" name="U"/>
    </contour>
    <contour>
      <point x="577" y="-600" type="move" name="L"/>
    </contour>
  </outline>
</glyph>
<glyph name="LtnSmOTildeAcute" format="1">
  <advance width="1030"/>
  <unicode hex="1E4D"/>
  <outline>
    <component base="LtnSmO"/>
    <component base="CombTilde" xOffset="1050"/>
    <component base="CombAcute" xOffset="1078" yOffset="360"/>
    <contour>
      <point x="535" y="0" type="move" name="H"/>
    </contour>
    <contour>
      <point x="535" y="-100" type="move" name="L"/>
    </contour>
    <contour>
      <point x="575" y="0" type="move" name="O"/>
    </contour>
    <contour>
      <point x="1044" y="900" type="move" name="R"/>
    </contour>
    <contour>
      <point x="535" y="1770" type="move" name="U"/>
    </contour>
  </outline>
</glyph>
<glyph name="LtnCapOTildeDiaer" format="1">
  <advance width="1229"/>
  <unicode hex="1E4E"/>
  <outline>
    <component base="LtnCapO"/>
    <component base="CombTilde.LP" xOffset="1132" yOffset="320"/>
    <component base="CombDiaer.LP" xOffset="1132" yOffset="640"/>
    <contour>
      <point x="587" y="0" type="move" name="H"/>
    </contour>
    <contour>
      <point x="1258" y="1100" type="move" name="R"/>
    </contour>
    <contour>
      <point x="617" y="2010" type="move" name="U"/>
    </contour>
    <contour>
      <point x="617" y="-100" type="move" name="L"/>
    </contour>
    <contour>
      <point x="678" y="0" type="move" name="O"/>
    </contour>
  </outline>
</glyph>
<glyph name="LtnSmOMacronGrave" format="1">
  <advance width="1030"/>
  <unicode hex="1E51"/>
  <outline>
    <component base="LtnSmO"/>
    <component base="CombMacron" xOffset="1060"/>
    <component base="CombGrave" xOffset="968" yOffset="360"/>
    <contour>
      <point x="535" y="0" type="move" name="H"/>
    </contour>
    <contour>
      <point x="535" y="-100" type="move" name="L"/>
    </contour>
    <contour>
      <point x="575" y="0" type="move" name="O"/>
    </contour>
    <contour>
      <point x="1044" y="900" type="move" name="R"/>
    </contour>
    <contour>
      <point x="535" y="1770" type="move" name="U"/>
    </contour>
  </outline>
</glyph>
<glyph name="LtnCapOMacronAcute" format="1">
  <advance width="1229"/>
  <unicode hex="1E52"/>
  <outline>
    <component base="LtnCapO"/>
    <component base="CombMacron.LP" xOffset="1142" yOffset="320"/>
    <component base="CombAcute.LP" xOffset="1160" yOffset="640"/>
    <contour>
      <point x="587" y="0" type="move" name="H"/>
    </contour>
    <contour>
      <point x="617" y="-100" type="move" name="L"/>
    </contour>
    <contour>
      <point x="678" y="0" type="move" name="O"/>
    </contour>
    <contour>
      <point x="1258" y="1100" type="move" name="R"/>
    </contour>
    <contour>
      <point x="617" y="2010" type="move" name="U"/>
    </contour>
  </outline>
</glyph>
<glyph name="LtnSmOMacronAcute" format="1">
  <advance width="1030"/>
  <unicode hex="1E53"/>
  <outline>
    <component base="LtnSmO"/>
    <component base="CombMacron" xOffset="1060"/>
    <component base="CombAcute" xOffset="1078" yOffset="360"/>
    <contour>
      <point x="535" y="0" type="move" name="H"/>
    </contour>
    <contour>
      <point x="535" y="-100" type="move" name="L"/>
    </contour>
    <contour>
      <point x="575" y="0" type="move" name="O"/>
    </contour>
    <contour>
      <point x="1044" y="900" type="move" name="R"/>
    </contour>
    <contour>
      <point x="535" y="1770" type="move" name="U"/>
    </contour>
  </outline>
</glyph>
<glyph name="LtnCapPAcute" format="1">
  <advance width="1071"/>
  <unicode hex="1E54"/>
  <outline>
    <component base="LtnCapP"/>
    <component base="CombAcute.LP" xOffset="1054" yOffset="320"/>
    <contour>
      <point x="511" y="-100" type="move" name="L"/>
    </contour>
    <contour>
      <point x="511" y="1690" type="move" name="U"/>
    </contour>
  </outline>
</glyph>
<glyph name="LtnSmPDotAbv" format="1">
  <advance width="1085"/>
  <unicode hex="1E57"/>
  <outline>
    <component base="LtnSmP"/>
    <component base="CombDotAbv" xOffset="1044"/>
    <contour>
      <point x="268" y="-481" type="move" name="H"/>
    </contour>
    <contour>
      <point x="529" y="-600" type="move" name="L"/>
    </contour>
    <contour>
      <point x="1124" y="900" type="move" name="R"/>
    </contour>
    <contour>
      <point x="529" y="1410" type="move" name="U"/>
    </contour>
  </outline>
</glyph>
<glyph name="LtnSmRDotAbv" format="1">
  <advance width="811"/>
  <unicode hex="1E59"/>
  <outline>
    <component base="LtnSmR"/>
    <component base="CombDotAbv" xOffset="965"/>
    <contour>
      <point x="270" y="0" type="move" name="H"/>
    </contour>
    <contour>
      <point x="450" y="1410" type="move" name="U"/>
    </contour>
    <contour>
      <point x="270" y="-100" type="move" name="L"/>
    </contour>
  </outline>
</glyph>
<glyph name="LtnCapRDotBlw" format="1">
  <advance width="1149"/>
  <unicode hex="1E5A"/>
  <outline>
    <component base="LtnCapR"/>
    <component base="CombDotBlw" xOffset="1035"/>
    <contour>
      <point x="275" y="0" type="move" name="H"/>
    </contour>
    <contour>
      <point x="520" y="-600" type="move" name="L"/>
    </contour>
    <contour>
      <point x="520" y="1370" type="move" name="U"/>
    </contour>
  </outline>
</glyph>
<glyph name="LtnSmRLineBlw" format="1">
  <advance width="811"/>
  <unicode hex="1E5F"/>
  <outline>
    <component base="LtnSmR"/>
    <component base="CombMacronBlw.Short" xOffset="545"/>
    <contour>
      <point x="270" y="0" type="move" name="H"/>
    </contour>
    <contour>
      <point x="270" y="-600" type="move" name="L"/>
    </contour>
    <contour>
      <point x="450" y="1050" type="move" name="U"/>
    </contour>
  </outline>
</glyph>
<glyph name="LtnSmSDotBlw" format="1">
  <advance width="791"/>
  <unicode hex="1E63"/>
  <outline>
    <component base="LtnSmS"/>
    <component base="CombDotBlw" xOffset="912"/>
    <contour>
      <point x="385" y="0" type="move" name="H"/>
    </contour>
    <contour>
      <point x="397" y="-600" type="move" name="L"/>
    </contour>
    <contour>
      <point x="397" y="1050" type="move" name="U"/>
    </contour>
  </outline>
</glyph>
<glyph name="LtnCapSAcuteDotAbv" format="1">
  <advance width="975"/>
  <unicode hex="1E64"/>
  <outline>
    <component base="LtnCapS"/>
    <component base="CombAcute.LP" xOffset="1043" yOffset="320"/>
    <component base="CombDotAbv.LP" xOffset="1015" yOffset="640"/>
    <contour>
      <point x="480" y="0" type="move" name="H"/>
    </contour>
    <contour>
      <point x="500" y="-100" type="move" name="L"/>
    </contour>
    <contour>
      <point x="500" y="2010" type="move" name="U"/>
    </contour>
  </outline>
</glyph>
<glyph name="LtnCapSCaronDotAbv" format="1">
  <advance width="975"/>
  <unicode hex="1E66"/>
  <outline>
    <component base="LtnCapS"/>
    <component base="CombCaron.LP" xOffset="1014" yOffset="320"/>
    <component base="CombDotAbv.LP" xOffset="1015" yOffset="640"/>
    <contour>
      <point x="480" y="0" type="move" name="H"/>
    </contour>
    <contour>
      <point x="500" y="-100" type="move" name="L"/>
    </contour>
    <contour>
      <point x="500" y="2010" type="move" name="U"/>
    </contour>
  </outline>
</glyph>
<glyph name="LtnSmTDotAbv" format="1">
  <advance width="705"/>
  <unicode hex="1E6B"/>
  <outline>
    <component base="LtnSmT"/>
    <component base="CombDotAbv" xOffset="863" yOffset="270"/>
    <contour>
      <point x="348" y="0" type="move" name="H"/>
    </contour>
    <contour>
      <point x="348" y="-100" type="move" name="L"/>
    </contour>
    <contour>
      <point x="500" y="900" type="move" name="R"/>
    </contour>
    <contour>
      <point x="348" y="1680" type="move" name="U"/>
    </contour>
  </outline>
</glyph>
<glyph name="LtnCapTLineBlw" format="1">
  <advance width="1128"/>
  <unicode hex="1E6E"/>
  <outline>
    <component base="LtnCapT"/>
    <component base="CombMacronBlw" xOffset="1061"/>
    <contour>
      <point x="551" y="0" type="move" name="H"/>
    </contour>
    <contour>
      <point x="546" y="1370" type="move" name="U"/>
    </contour>
    <contour>
      <point x="546" y="-600" type="move" name="L"/>
    </contour>
  </outline>
</glyph>
<glyph name="LtnCapTCircumBlw" format="1">
  <advance width="1128"/>
  <unicode hex="1E70"/>
  <outline>
    <component base="LtnCapT"/>
    <component base="CombCircumBlw" xOffset="1060"/>
    <contour>
      <point x="551" y="0" type="move" name="H"/>
    </contour>
    <contour>
      <point x="546" y="-600" type="move" name="L"/>
    </contour>
    <contour>
      <point x="546" y="1370" type="move" name="U"/>
    </contour>
  </outline>
</glyph>
<glyph name="LtnSmTCircumBlw" format="1">
  <advance width="705"/>
  <unicode hex="1E71"/>
  <outline>
    <component base="LtnSmT"/>
    <component base="CombCircumBlw" xOffset="862"/>
    <contour>
      <point x="348" y="0" type="move" name="H"/>
    </contour>
    <contour>
      <point x="348" y="-600" type="move" name="L"/>
    </contour>
    <contour>
      <point x="500" y="900" type="move" name="R"/>
    </contour>
    <contour>
      <point x="348" y="1320" type="move" name="U"/>
    </contour>
  </outline>
</glyph>
<glyph name="LtnCapUDiaerBlw" format="1">
  <advance width="1339"/>
  <unicode hex="1E72"/>
  <outline>
    <component base="LtnCapU"/>
    <component base="CombDiaerBlw" xOffset="1192"/>
    <contour>
      <point x="677" y="0" type="move" name="H"/>
    </contour>
    <contour>
      <point x="1330" y="1100" type="move" name="R"/>
    </contour>
    <contour>
      <point x="677" y="1370" type="move" name="U"/>
    </contour>
    <contour>
      <point x="677" y="-600" type="move" name="L"/>
    </contour>
    <contour>
      <point x="760" y="0" type="move" name="O"/>
    </contour>
  </outline>
</glyph>
<glyph name="LtnSmUDiaerBlw" format="1">
  <advance width="1085"/>
  <unicode hex="1E73"/>
  <outline>
    <component base="LtnSmU"/>
    <component base="CombDiaerBlw" xOffset="1060"/>
    <contour>
      <point x="546" y="0" type="move" name="H"/>
    </contour>
    <contour>
      <point x="1084" y="900" type="move" name="R"/>
    </contour>
    <contour>
      <point x="545" y="1050" type="move" name="U"/>
    </contour>
    <contour>
      <point x="545" y="-600" type="move" name="L"/>
    </contour>
    <contour>
      <point x="860" y="0" type="move" name="O"/>
    </contour>
  </outline>
</glyph>
<glyph name="LtnCapUCircumBlw" format="1">
  <advance width="1339"/>
  <unicode hex="1E76"/>
  <outline>
    <component base="LtnCapU"/>
    <component base="CombCircumBlw" xOffset="1191"/>
    <contour>
      <point x="677" y="0" type="move" name="H"/>
    </contour>
    <contour>
      <point x="677" y="-600" type="move" name="L"/>
    </contour>
    <contour>
      <point x="760" y="0" type="move" name="O"/>
    </contour>
    <contour>
      <point x="1330" y="1100" type="move" name="R"/>
    </contour>
    <contour>
      <point x="677" y="1370" type="move" name="U"/>
    </contour>
  </outline>
</glyph>
<glyph name="LtnSmUTildeAcute" format="1">
  <advance width="1085"/>
  <unicode hex="1E79"/>
  <outline>
    <component base="LtnSmU"/>
    <component base="CombTilde" xOffset="1060"/>
    <component base="CombAcute" xOffset="1088" yOffset="360"/>
    <contour>
      <point x="546" y="0" type="move" name="H"/>
    </contour>
    <contour>
      <point x="545" y="-100" type="move" name="L"/>
    </contour>
    <contour>
      <point x="860" y="0" type="move" name="O"/>
    </contour>
    <contour>
      <point x="1084" y="900" type="move" name="R"/>
    </contour>
    <contour>
      <point x="545" y="1770" type="move" name="U"/>
    </contour>
  </outline>
</glyph>
<glyph name="LtnCapVTilde" format="1">
  <advance width="1331"/>
  <unicode hex="1E7C"/>
  <outline>
    <component base="LtnCapV"/>
    <component base="CombTilde.LP" xOffset="1180" yOffset="320"/>
    <contour>
      <point x="648" y="0" type="move" name="H"/>
    </contour>
    <contour>
      <point x="655" y="-100" type="move" name="L"/>
    </contour>
    <contour>
      <point x="616" y="0" type="move" name="O"/>
    </contour>
    <contour>
      <point x="665" y="1690" type="move" name="U"/>
    </contour>
  </outline>
</glyph>
<glyph name="LtnSmVTilde" format="1">
  <advance width="1010"/>
  <unicode hex="1E7D"/>
  <outline>
    <component base="LtnSmV"/>
    <component base="CombTilde" xOffset="1051"/>
    <contour>
      <point x="499" y="0" type="move" name="H"/>
    </contour>
    <contour>
      <point x="536" y="1410" type="move" name="U"/>
    </contour>
    <contour>
      <point x="516" y="-100" type="move" name="L"/>
    </contour>
    <contour>
      <point x="460" y="0" type="move" name="O"/>
    </contour>
  </outline>
</glyph>
<glyph name="LtnCapVDotBlw" format="1">
  <advance width="1331"/>
  <unicode hex="1E7E"/>
  <outline>
    <component base="LtnCapV"/>
    <component base="CombDotBlw" xOffset="1170"/>
    <contour>
      <point x="648" y="0" type="move" name="H"/>
    </contour>
    <contour>
      <point x="655" y="-600" type="move" name="L"/>
    </contour>
    <contour>
      <point x="616" y="0" type="move" name="O"/>
    </contour>
    <contour>
      <point x="665" y="1370" type="move" name="U"/>
    </contour>
  </outline>
</glyph>
<glyph name="LtnSmVDotBlw" format="1">
  <advance width="1010"/>
  <unicode hex="1E7F"/>
  <outline>
    <component base="LtnSmV"/>
    <component base="CombDotBlw" xOffset="1031"/>
    <contour>
      <point x="499" y="0" type="move" name="H"/>
    </contour>
    <contour>
      <point x="516" y="-600" type="move" name="L"/>
    </contour>
    <contour>
      <point x="460" y="0" type="move" name="O"/>
    </contour>
    <contour>
      <point x="536" y="1050" type="move" name="U"/>
    </contour>
  </outline>
</glyph>
<glyph name="LtnCapWGrave" format="1">
  <advance width="1741"/>
  <unicode hex="1E80"/>
  <outline>
    <component base="LtnCapW"/>
    <component base="CombGrave.LP" xOffset="1294" yOffset="320"/>
    <contour>
      <point x="861" y="1690" type="move" name="U"/>
    </contour>
    <contour>
      <point x="861" y="-100" type="move" name="L"/>
    </contour>
  </outline>
</glyph>
<glyph name="LtnSmWGrave" format="1">
  <advance width="1446"/>
  <unicode hex="1E81"/>
  <outline>
    <component base="LtnSmW"/>
    <component base="CombGrave" xOffset="1183"/>
    <contour>
      <point x="730" y="-100" type="move" name="L"/>
    </contour>
    <contour>
      <point x="750" y="1410" type="move" name="U"/>
    </contour>
  </outline>
</glyph>
<glyph name="LtnSmWAcute" format="1">
  <advance width="1446"/>
  <unicode hex="1E83"/>
  <outline>
    <component base="LtnSmW"/>
    <component base="CombAcute" xOffset="1293"/>
    <contour>
      <point x="730" y="-100" type="move" name="L"/>
    </contour>
    <contour>
      <point x="750" y="1410" type="move" name="U"/>
    </contour>
  </outline>
</glyph>
<glyph name="LtnSmWDiaer" format="1">
  <advance width="1446"/>
  <unicode hex="1E85"/>
  <outline>
    <component base="LtnSmW"/>
    <component base="CombDiaer" xOffset="1265"/>
    <contour>
      <point x="730" y="-100" type="move" name="L"/>
    </contour>
    <contour>
      <point x="750" y="1410" type="move" name="U"/>
    </contour>
  </outline>
</glyph>
<glyph name="LtnSmWDotAbv" format="1">
  <advance width="1446"/>
  <unicode hex="1E87"/>
  <outline>
    <component base="LtnSmW"/>
    <component base="CombDotAbv" xOffset="1265"/>
    <contour>
      <point x="750" y="1410" type="move" name="U"/>
    </contour>
    <contour>
      <point x="730" y="-100" type="move" name="L"/>
    </contour>
  </outline>
</glyph>
<glyph name="LtnCapXDiaer" format="1">
  <advance width="1260"/>
  <unicode hex="1E8C"/>
  <outline>
    <component base="LtnCapX"/>
    <component base="CombDiaer.LP" xOffset="1145" yOffset="320"/>
    <contour>
      <point x="630" y="-100" type="move" name="L"/>
    </contour>
    <contour>
      <point x="630" y="1690" type="move" name="U"/>
    </contour>
  </outline>
</glyph>
<glyph name="LtnSmXDiaer" format="1">
  <advance width="1030"/>
  <unicode hex="1E8D"/>
  <outline>
    <component base="LtnSmX"/>
    <component base="CombDiaer" xOffset="1033"/>
    <contour>
      <point x="800" y="0" type="move" name="H"/>
    </contour>
    <contour>
      <point x="518" y="-100" type="move" name="L"/>
    </contour>
    <contour>
      <point x="518" y="1410" type="move" name="U"/>
    </contour>
  </outline>
</glyph>
<glyph name="LtnSmYDotAbv" format="1">
  <advance width="1010"/>
  <unicode hex="1E8F"/>
  <outline>
    <component base="LtnSmY"/>
    <component base="CombDotAbv" xOffset="1045"/>
    <contour>
      <point x="770" y="-100" type="move" name="L"/>
    </contour>
    <contour>
      <point x="1044" y="900" type="move" name="R"/>
    </contour>
    <contour>
      <point x="530" y="1410" type="move" name="U"/>
    </contour>
  </outline>
</glyph>
<glyph name="LtnCapZCircum" format="1">
  <advance width="1071"/>
  <unicode hex="1E90"/>
  <outline>
    <component base="LtnCapZ"/>
    <component base="CombCircum.LP" xOffset="1069" yOffset="320"/>
    <contour>
      <point x="535" y="-100" type="move" name="L"/>
    </contour>
    <contour>
      <point x="555" y="1770" type="move" name="U"/>
    </contour>
  </outline>
</glyph>
<glyph name="LtnCapZDotBlw" format="1">
  <advance width="1071"/>
  <unicode hex="1E92"/>
  <outline>
    <component base="LtnCapZ"/>
    <component base="CombDotBlw" xOffset="1050"/>
    <contour>
      <point x="535" y="-600" type="move" name="L"/>
    </contour>
    <contour>
      <point x="555" y="1370" type="move" name="U"/>
    </contour>
  </outline>
</glyph>
<glyph name="LtnSmHLineBlw" format="1">
  <advance width="1130"/>
  <unicode hex="1E96"/>
  <outline>
    <component base="LtnSmH"/>
    <component base="CombMacronBlw" xOffset="1092"/>
    <contour>
      <point x="257" y="0" type="move" name="H"/>
    </contour>
    <contour>
      <point x="577" y="-600" type="move" name="L"/>
    </contour>
    <contour>
      <point x="577" y="1620" type="move" name="U"/>
    </contour>
  </outline>
</glyph>
<glyph name="LtnSmWRingAbv" format="1">
  <advance width="1446"/>
  <unicode hex="1E98"/>
  <outline>
    <component base="LtnSmW"/>
    <component base="CombRingAbv" xOffset="1265"/>
    <contour>
      <point x="730" y="-100" type="move" name="L"/>
    </contour>
    <contour>
      <point x="750" y="1490" type="move" name="U"/>
    </contour>
  </outline>
</glyph>
<glyph name="LtnSmLngSDotAbv" format="1">
  <advance width="637"/>
  <unicode hex="1E9B"/>
  <outline>
    <component base="LtnSmLngS"/>
    <component base="CombDotAbv.LP" xOffset="946" yOffset="640"/>
    <contour>
      <point x="431" y="2010" type="move" name="U"/>
    </contour>
    <contour>
      <point x="431" y="-100" type="move" name="L"/>
    </contour>
  </outline>
</glyph>
<glyph name="LtnCapADotBlw" format="1">
  <advance width="1219"/>
  <unicode hex="1EA0"/>
  <outline>
    <component base="LtnCapA"/>
    <component base="CombDotBlw" xOffset="1114"/>
    <contour>
      <point x="599" y="0" type="move" name="H"/>
    </contour>
    <contour>
      <point x="599" y="1370" type="move" name="U"/>
    </contour>
    <contour>
      <point x="599" y="-600" type="move" name="L"/>
    </contour>
    <contour>
      <point x="960" y="0" type="move" name="O"/>
    </contour>
  </outline>
</glyph>
<glyph name="LtnSmACircumAcute" format="1">
  <advance width="940"/>
  <unicode hex="1EA5"/>
  <outline>
    <component base="LtnSmA"/>
    <component base="CombCircum" xOffset="994"/>
    <component base="CombAcute" xOffset="1023" yOffset="450"/>
    <contour>
      <point x="446" y="0" type="move" name="H"/>
    </contour>
    <contour>
      <point x="460" y="-100" type="move" name="L"/>
    </contour>
    <contour>
      <point x="715" y="0" type="move" name="O"/>
    </contour>
    <contour>
      <point x="940" y="900" type="move" name="R"/>
    </contour>
    <contour>
      <point x="480" y="1860" type="move" name="U"/>
    </contour>
  </outline>
</glyph>
<glyph name="LtnCapACircumGrave" format="1">
  <advance width="1219"/>
  <unicode hex="1EA6"/>
  <outline>
    <component base="LtnCapA"/>
    <component base="CombCircum.LP" xOffset="1113" yOffset="320"/>
    <component base="CombGrave.LP" xOffset="1032" yOffset="720"/>
    <contour>
      <point x="599" y="0" type="move" name="H"/>
    </contour>
    <contour>
      <point x="599" y="-100" type="move" name="L"/>
    </contour>
    <contour>
      <point x="960" y="0" type="move" name="O"/>
    </contour>
    <contour>
      <point x="599" y="2090" type="move" name="U"/>
    </contour>
  </outline>
</glyph>
<glyph name="LtnCapACircumDotBlw" format="1">
  <advance width="1219"/>
  <unicode hex="1EAC"/>
  <outline>
    <component base="LtnCapA"/>
    <component base="CombDotBlw" xOffset="1114"/>
    <component base="CombCircum.LP" xOffset="1113" yOffset="320"/>
    <contour>
      <point x="599" y="0" type="move" name="H"/>
    </contour>
    <contour>
      <point x="599" y="-600" type="move" name="L"/>
    </contour>
    <contour>
      <point x="960" y="0" type="move" name="O"/>
    </contour>
    <contour>
      <point x="599" y="1770" type="move" name="U"/>
    </contour>
  </outline>
</glyph>
<glyph name="LtnSmACircumDotBlw" format="1">
  <advance width="940"/>
  <unicode hex="1EAD"/>
  <outline>
    <component base="LtnSmA"/>
    <component base="CombDotBlw" xOffset="975"/>
    <component base="CombCircum" xOffset="994"/>
    <contour>
      <point x="446" y="0" type="move" name="H"/>
    </contour>
    <contour>
      <point x="940" y="900" type="move" name="R"/>
    </contour>
    <contour>
      <point x="480" y="1500" type="move" name="U"/>
    </contour>
    <contour>
      <point x="460" y="-600" type="move" name="L"/>
    </contour>
    <contour>
      <point x="715" y="0" type="move" name="O"/>
    </contour>
  </outline>
</glyph>
<glyph name="LtnCapABreveGrave" format="1">
  <advance width="1219"/>
  <unicode hex="1EB0"/>
  <outline>
    <component base="LtnCapA"/>
    <component base="CombBreve" xOffset="1114" yOffset="320"/>
    <component base="CombGrave.LP" xOffset="1032" yOffset="640"/>
    <contour>
      <point x="599" y="0" type="move" name="H"/>
    </contour>
    <contour>
      <point x="599" y="-100" type="move" name="L"/>
    </contour>
    <contour>
      <point x="960" y="0" type="move" name="O"/>
    </contour>
    <contour>
      <point x="599" y="2010" type="move" name="U"/>
    </contour>
  </outline>
</glyph>
<glyph name="LtnSmABreveGrave" format="1">
  <advance width="940"/>
  <unicode hex="1EB1"/>
  <outline>
    <component base="LtnSmA"/>
    <component base="CombBreve" xOffset="995"/>
    <component base="CombGrave" xOffset="913" yOffset="320"/>
    <contour>
      <point x="446" y="0" type="move" name="H"/>
    </contour>
    <contour>
      <point x="460" y="-100" type="move" name="L"/>
    </contour>
    <contour>
      <point x="715" y="0" type="move" name="O"/>
    </contour>
    <contour>
      <point x="940" y="900" type="move" name="R"/>
    </contour>
    <contour>
      <point x="480" y="1730" type="move" name="U"/>
    </contour>
  </outline>
</glyph>
<glyph name="LtnCapABreveTilde" format="1">
  <advance width="1219"/>
  <unicode hex="1EB4"/>
  <outline>
    <component base="LtnCapA"/>
    <component base="CombBreveTilde.VNLP" xOffset="1114" yOffset="320"/>
    <contour>
      <point x="599" y="0" type="move" name="H"/>
    </contour>
    <contour>
      <point x="599" y="-100" type="move" name="L"/>
    </contour>
    <contour>
      <point x="960" y="0" type="move" name="O"/>
    </contour>
    <contour>
      <point x="599" y="1690" type="move" name="U"/>
    </contour>
  </outline>
</glyph>
<glyph name="LtnSmABreveDotBlw" format="1">
  <advance width="940"/>
  <unicode hex="1EB7"/>
  <outline>
    <component base="LtnSmA"/>
    <component base="CombDotBlw" xOffset="975"/>
    <component base="CombBreve" xOffset="995"/>
    <contour>
      <point x="446" y="0" type="move" name="H"/>
    </contour>
    <contour>
      <point x="460" y="-600" type="move" name="L"/>
    </contour>
    <contour>
      <point x="715" y="0" type="move" name="O"/>
    </contour>
    <contour>
      <point x="940" y="900" type="move" name="R"/>
    </contour>
    <contour>
      <point x="480" y="1370" type="move" name="U"/>
    </contour>
  </outline>
</glyph>
<glyph name="LtnSmECircumAcute" format="1">
  <advance width="946"/>
  <unicode hex="1EBF"/>
  <outline>
    <component base="LtnSmE"/>
    <component base="CombCircum" xOffset="1024"/>
    <component base="CombAcute" xOffset="1053" yOffset="450"/>
    <contour>
      <point x="500" y="0" type="move" name="H"/>
    </contour>
    <contour>
      <point x="1020" y="900" type="move" name="R"/>
    </contour>
    <contour>
      <point x="510" y="1860" type="move" name="U"/>
    </contour>
    <contour>
      <point x="500" y="-100" type="move" name="L"/>
    </contour>
    <contour>
      <point x="558" y="0" type="move" name="O"/>
    </contour>
  </outline>
</glyph>
<glyph name="LtnCapECircumGrave" format="1">
  <advance width="1016"/>
  <unicode hex="1EC0"/>
  <outline>
    <component base="LtnCapE"/>
    <component base="CombCircum.LP" xOffset="1016" yOffset="320"/>
    <component base="CombGrave.LP" xOffset="935" yOffset="720"/>
    <contour>
      <point x="502" y="0" type="move" name="H"/>
    </contour>
    <contour>
      <point x="502" y="-100" type="move" name="L"/>
    </contour>
    <contour>
      <point x="750" y="0" type="move" name="O"/>
    </contour>
    <contour>
      <point x="1016" y="1100" type="move" name="R"/>
    </contour>
    <contour>
      <point x="502" y="2090" type="move" name="U"/>
    </contour>
  </outline>
</glyph>
<glyph name="LtnCapIDotBlw" format="1">
  <advance width="610"/>
  <unicode hex="1ECA"/>
  <outline>
    <component base="LtnCapI"/>
    <component base="CombDotBlw" xOffset="810"/>
    <contour>
      <point x="295" y="0" type="move" name="H"/>
    </contour>
    <contour>
      <point x="295" y="-600" type="move" name="L"/>
    </contour>
    <contour>
      <point x="345" y="0" type="move" name="O"/>
    </contour>
    <contour>
      <point x="580" y="1100" type="move" name="R"/>
    </contour>
    <contour>
      <point x="295" y="1370" type="move" name="U"/>
    </contour>
  </outline>
</glyph>
<glyph name="LtnSmIDotBlw" format="1">
  <advance width="555"/>
  <unicode hex="1ECB"/>
  <outline>
    <component base="LtnSmI"/>
    <component base="CombDotBlw" xOffset="800"/>
    <contour>
      <point x="285" y="0" type="move" name="H"/>
    </contour>
    <contour>
      <point x="285" y="-600" type="move" name="L"/>
    </contour>
    <contour>
      <point x="335" y="0" type="move" name="O"/>
    </contour>
    <contour>
      <point x="555" y="900" type="move" name="R"/>
    </contour>
    <contour>
      <point x="285" y="1050" type="move" name="U"/>
    </contour>
  </outline>
</glyph>
<glyph name="LtnCapODotBlw" format="1">
  <advance width="1229"/>
  <unicode hex="1ECC"/>
  <outline>
    <component base="LtnCapO"/>
    <component base="CombDotBlw" xOffset="1132"/>
    <contour>
      <point x="587" y="0" type="move" name="H"/>
    </contour>
    <contour>
      <point x="617" y="-600" type="move" name="L"/>
    </contour>
    <contour>
      <point x="678" y="0" type="move" name="O"/>
    </contour>
    <contour>
      <point x="1258" y="1100" type="move" name="R"/>
    </contour>
    <contour>
      <point x="617" y="1370" type="move" name="U"/>
    </contour>
  </outline>
</glyph>
<glyph name="LtnSmODotBlw" format="1">
  <advance width="1030"/>
  <unicode hex="1ECD"/>
  <outline>
    <component base="LtnSmO"/>
    <component base="CombDotBlw" xOffset="1050"/>
    <contour>
      <point x="535" y="0" type="move" name="H"/>
    </contour>
    <contour>
      <point x="1044" y="900" type="move" name="R"/>
    </contour>
    <contour>
      <point x="535" y="1050" type="move" name="U"/>
    </contour>
    <contour>
      <point x="535" y="-600" type="move" name="L"/>
    </contour>
    <contour>
      <point x="575" y="0" type="move" name="O"/>
    </contour>
  </outline>
</glyph>
<glyph name="LtnSmOHookAbv" format="1">
  <advance width="1030"/>
  <unicode hex="1ECF"/>
  <outline>
    <component base="LtnSmO"/>
    <component base="CombHookAbv" xOffset="1053"/>
    <contour>
      <point x="535" y="0" type="move" name="H"/>
    </contour>
    <contour>
      <point x="535" y="-100" type="move" name="L"/>
    </contour>
    <contour>
      <point x="575" y="0" type="move" name="O"/>
    </contour>
    <contour>
      <point x="1044" y="900" type="move" name="R"/>
    </contour>
    <contour>
      <point x="535" y="1370" type="move" name="U"/>
    </contour>
  </outline>
</glyph>
<glyph name="LtnCapOCircumGrave" format="1">
  <advance width="1229"/>
  <unicode hex="1ED2"/>
  <outline>
    <component base="LtnCapO"/>
    <component base="CombCircum.LP" xOffset="1131" yOffset="320"/>
    <component base="CombGrave.LP" xOffset="1050" yOffset="720"/>
    <contour>
      <point x="587" y="0" type="move" name="H"/>
    </contour>
    <contour>
      <point x="617" y="-100" type="move" name="L"/>
    </contour>
    <contour>
      <point x="678" y="0" type="move" name="O"/>
    </contour>
    <contour>
      <point x="1258" y="1100" type="move" name="R"/>
    </contour>
    <contour>
      <point x="617" y="2090" type="move" name="U"/>
    </contour>
  </outline>
</glyph>
<glyph name="LtnSmOCircumGrave" format="1">
  <advance width="1030"/>
  <unicode hex="1ED3"/>
  <outline>
    <component base="LtnSmO"/>
    <component base="CombCircum" xOffset="1049"/>
    <component base="CombGrave" xOffset="968" yOffset="450"/>
    <contour>
      <point x="535" y="0" type="move" name="H"/>
    </contour>
    <contour>
      <point x="1044" y="900" type="move" name="R"/>
    </contour>
    <contour>
      <point x="535" y="1860" type="move" name="U"/>
    </contour>
    <contour>
      <point x="535" y="-100" type="move" name="L"/>
    </contour>
    <contour>
      <point x="575" y="0" type="move" name="O"/>
    </contour>
  </outline>
</glyph>
<glyph name="LtnCapOCircumHookAbv" format="1">
  <advance width="1229"/>
  <unicode hex="1ED4"/>
  <outline>
    <component base="LtnCapO"/>
    <component base="CombCircum.LP" xOffset="1131" yOffset="320"/>
    <component base="CombHookAbv" xOffset="1135" yOffset="720"/>
    <contour>
      <point x="587" y="0" type="move" name="H"/>
    </contour>
    <contour>
      <point x="617" y="-100" type="move" name="L"/>
    </contour>
    <contour>
      <point x="678" y="0" type="move" name="O"/>
    </contour>
    <contour>
      <point x="1258" y="1100" type="move" name="R"/>
    </contour>
    <contour>
      <point x="617" y="2090" type="move" name="U"/>
    </contour>
  </outline>
</glyph>
<glyph name="LtnSmOCircumHookAbv" format="1">
  <advance width="1030"/>
  <unicode hex="1ED5"/>
  <outline>
    <component base="LtnSmO"/>
    <component base="CombCircum" xOffset="1049"/>
    <component base="CombHookAbv" xOffset="1053" yOffset="450"/>
    <contour>
      <point x="535" y="0" type="move" name="H"/>
    </contour>
    <contour>
      <point x="535" y="-100" type="move" name="L"/>
    </contour>
    <contour>
      <point x="575" y="0" type="move" name="O"/>
    </contour>
    <contour>
      <point x="1044" y="900" type="move" name="R"/>
    </contour>
    <contour>
      <point x="535" y="1820" type="move" name="U"/>
    </contour>
  </outline>
</glyph>
<glyph name="LtnCapOCircumDotBlw" format="1">
  <advance width="1229"/>
  <unicode hex="1ED8"/>
  <outline>
    <component base="LtnCapO"/>
    <component base="CombDotBlw" xOffset="1132"/>
    <component base="CombCircum.LP" xOffset="1131" yOffset="320"/>
    <contour>
      <point x="587" y="0" type="move" name="H"/>
    </contour>
    <contour>
      <point x="617" y="-600" type="move" name="L"/>
    </contour>
    <contour>
      <point x="678" y="0" type="move" name="O"/>
    </contour>
    <contour>
      <point x="1258" y="1100" type="move" name="R"/>
    </contour>
    <contour>
      <point x="617" y="1770" type="move" name="U"/>
    </contour>
  </outline>
</glyph>
<glyph name="LtnSmOCircumDotBlw" format="1">
  <advance width="1030"/>
  <unicode hex="1ED9"/>
  <outline>
    <component base="LtnSmO"/>
    <component base="CombDotBlw" xOffset="1050"/>
    <component base="CombCircum" xOffset="1049"/>
    <contour>
      <point x="535" y="0" type="move" name="H"/>
    </contour>
    <contour>
      <point x="535" y="-600" type="move" name="L"/>
    </contour>
    <contour>
      <point x="575" y="0" type="move" name="O"/>
    </contour>
    <contour>
      <point x="1044" y="900" type="move" name="R"/>
    </contour>
    <contour>
      <point x="535" y="1500" type="move" name="U"/>
    </contour>
  </outline>
</glyph>
<glyph name="LtnCapOHornGrave" format="1">
  <advance width="1229"/>
  <unicode hex="1EDC"/>
  <outline>
    <component base="LtnCapO" xOffset="-2"/>
    <component base="CombHorn" xOffset="1150" yOffset="350"/>
    <component base="CombGrave.LP" xOffset="1048" yOffset="320"/>
    <contour>
      <point x="615" y="-100" type="move" name="L"/>
    </contour>
    <contour>
      <point x="615" y="1690" type="move" name="U"/>
    </contour>
  </outline>
</glyph>
<glyph name="LtnCapOHornTilde" format="1">
  <advance width="1229"/>
  <unicode hex="1EE0"/>
  <outline>
    <component base="LtnCapO" xOffset="-2"/>
    <component base="CombHorn" xOffset="1150" yOffset="350"/>
    <component base="CombTilde.LP" xOffset="1130" yOffset="320"/>
    <contour>
      <point x="615" y="-100" type="move" name="L"/>
    </contour>
    <contour>
      <point x="615" y="1690" type="move" name="U"/>
    </contour>
  </outline>
</glyph>
<glyph name="LtnSmOHornTilde" format="1">
  <advance width="1100"/>
  <unicode hex="1EE1"/>
  <outline>
    <component base="LtnSmO"/>
    <component base="CombHorn" xOffset="1073"/>
    <component base="CombTilde" xOffset="1050"/>
    <contour>
      <point x="535" y="-100" type="move" name="L"/>
    </contour>
    <contour>
      <point x="535" y="1410" type="move" name="U"/>
    </contour>
  </outline>
</glyph>
<glyph name="LtnCapUDotBlw" format="1">
  <advance width="1339"/>
  <unicode hex="1EE4"/>
  <outline>
    <component base="LtnCapU"/>
    <component base="CombDotBlw" xOffset="1192"/>
    <contour>
      <point x="677" y="0" type="move" name="H"/>
    </contour>
    <contour>
      <point x="677" y="-600" type="move" name="L"/>
    </contour>
    <contour>
      <point x="760" y="0" type="move" name="O"/>
    </contour>
    <contour>
      <point x="1330" y="1100" type="move" name="R"/>
    </contour>
    <contour>
      <point x="677" y="1370" type="move" name="U"/>
    </contour>
  </outline>
</glyph>
<glyph name="LtnSmUHookAbv" format="1">
  <advance width="1085"/>
  <unicode hex="1EE7"/>
  <outline>
    <component base="LtnSmU"/>
    <component base="CombHookAbv" xOffset="1063"/>
    <contour>
      <point x="546" y="0" type="move" name="H"/>
    </contour>
    <contour>
      <point x="545" y="-100" type="move" name="L"/>
    </contour>
    <contour>
      <point x="860" y="0" type="move" name="O"/>
    </contour>
    <contour>
      <point x="1084" y="900" type="move" name="R"/>
    </contour>
    <contour>
      <point x="545" y="1370" type="move" name="U"/>
    </contour>
  </outline>
</glyph>
<glyph name="LtnCapUHornAcute" format="1">
  <advance width="1400"/>
  <unicode hex="1EE8"/>
  <outline>
    <component base="LtnCapU"/>
    <component base="CombHorn" xOffset="1330" yOffset="350"/>
    <component base="CombAcute.LP" xOffset="1220" yOffset="320"/>
    <contour>
      <point x="677" y="1690" type="move" name="U"/>
    </contour>
    <contour>
      <point x="677" y="-100" type="move" name="L"/>
    </contour>
  </outline>
</glyph>
<glyph name="LtnSmUHornAcute" format="1">
  <advance width="1255"/>
  <unicode hex="1EE9"/>
  <outline>
    <component base="LtnSmU"/>
    <component base="CombHorn" xOffset="1185"/>
    <component base="CombAcute" xOffset="1088"/>
    <contour>
      <point x="545" y="1410" type="move" name="U"/>
    </contour>
    <contour>
      <point x="545" y="-100" type="move" name="L"/>
    </contour>
  </outline>
</glyph>
<glyph name="LtnSmUHornGrave" format="1">
  <advance width="1255"/>
  <unicode hex="1EEB"/>
  <outline>
    <component base="LtnSmU"/>
    <component base="CombHorn" xOffset="1185"/>
    <component base="CombGrave" xOffset="978"/>
    <contour>
      <point x="545" y="-100" type="move" name="L"/>
    </contour>
    <contour>
      <point x="545" y="1410" type="move" name="U"/>
    </contour>
  </outline>
</glyph>
<glyph name="LtnSmUHornDotBlw" format="1">
  <advance width="1255"/>
  <unicode hex="1EF1"/>
  <outline>
    <component base="LtnSmU"/>
    <component base="CombHorn" xOffset="1185"/>
    <component base="CombDotBlw" xOffset="1060"/>
    <contour>
      <point x="545" y="-600" type="move" name="L"/>
    </contour>
    <contour>
      <point x="545" y="1050" type="move" name="U"/>
    </contour>
  </outline>
</glyph>
<glyph name="LtnCapYGrave" format="1">
  <advance width="1217"/>
  <unicode hex="1EF2"/>
  <outline>
    <component base="LtnCapY"/>
    <component base="CombGrave.LP" xOffset="1037" yOffset="320"/>
    <contour>
      <point x="604" y="-100" type="move" name="L"/>
    </contour>
    <contour>
      <point x="604" y="1690" type="move" name="U"/>
    </contour>
  </outline>
</glyph>
<glyph name="LtnSmYGrave" format="1">
  <advance width="1010"/>
  <unicode hex="1EF3"/>
  <outline>
    <component base="LtnSmY"/>
    <component base="CombGrave" xOffset="963"/>
    <contour>
      <point x="770" y="-100" type="move" name="L"/>
    </contour>
    <contour>
      <point x="1044" y="900" type="move" name="R"/>
    </contour>
    <contour>
      <point x="530" y="1410" type="move" name="U"/>
    </contour>
  </outline>
</glyph>
<glyph name="LtnCapYDotBlw" format="1">
  <advance width="1217"/>
  <unicode hex="1EF4"/>
  <outline>
    <component base="LtnCapY"/>
    <component base="CombDotBlw" xOffset="1119"/>
    <contour>
      <point x="604" y="-600" type="move" name="L"/>
    </contour>
    <contour>
      <point x="604" y="1370" type="move" name="U"/>
    </contour>
  </outline>
</glyph>
<glyph name="LtnSmYHookAbv" format="1">
  <advance width="1010"/>
  <unicode hex="1EF7"/>
  <outline>
    <component base="LtnSmY"/>
    <component base="CombHookAbv" xOffset="1048"/>
    <contour>
      <point x="770" y="-100" type="move" name="L"/>
    </contour>
    <contour>
      <point x="1044" y="900" type="move" name="R"/>
    </contour>
    <contour>
      <point x="530" y="1370" type="move" name="U"/>
    </contour>
  </outline>
</glyph>
<glyph name="GrDasiaVaria" format="1">
  <advance width="740"/>
  <unicode hex="1FDD"/>
  <outline>
    <contour>
      <point x="51" y="1329" type="curve"/>
      <point x="60" y="1219"/>
      <point x="119" y="1145"/>
      <point x="249" y="1092" type="curve"/>
      <point x="288" y="1125" type="line"/>
      <point x="224" y="1174"/>
      <point x="194" y="1217"/>
      <point x="190" y="1278" type="curve" smooth="yes"/>
      <point x="186" y="1334"/>
      <point x="203" y="1417"/>
      <point x="327" y="1441" type="curve"/>
      <point x="339" y="1482" type="line"/>
      <point x="278" y="1507"/>
      <point x="183" y="1531"/>
      <point x="137" y="1528" type="curve"/>
      <point x="68" y="1480"/>
      <point x="45" y="1402"/>
    </contour>
    <contour>
      <point x="700" y="1100" type="curve"/>
      <point x="575" y="1539" type="line"/>
      <point x="542" y="1540"/>
      <point x="467" y="1542"/>
      <point x="439" y="1533" type="curve"/>
      <point x="410" y="1497" type="line"/>
      <point x="639" y="1084" type="line"/>
      <point x="663" y="1082"/>
      <point x="674" y="1088"/>
    </contour>
    <contour>
      <point x="400" y="1050" type="move" name="_U"/>
    </contour>
  </outline>
</glyph>
<glyph name="GrVaria" format="1">
  <advance width="454"/>
  <unicode hex="1FEF"/>
  <outline>
    <contour>
      <point x="401" y="1100" type="curve"/>
      <point x="276" y="1539" type="line"/>
      <point x="243" y="1540"/>
      <point x="168" y="1542"/>
      <point x="140" y="1533" type="curve"/>
      <point x="111" y="1497" type="line"/>
      <point x="340" y="1084" type="line"/>
      <point x="364" y="1082"/>
      <point x="375" y="1088"/>
    </contour>
    <contour>
      <point x="320" y="1050" type="move" name="_U"/>
    </contour>
  </outline>
</glyph>
<glyph name="EmSpace" format="1">
  <advance width="1569"/>
  <unicode hex="2003"/>
  <outline>
    <contour>
      <point x="784" y="0" type="move" name="H"/>
    </contour>
    <contour>
      <point x="784" y="-100" type="move" name="L"/>
    </contour>
    <contour>
      <point x="834" y="0" type="move" name="O"/>
    </contour>
    <contour>
      <point x="1569" y="900" type="move" name="R"/>
    </contour>
    <contour>
      <point x="784" y="1435" type="move" name="U"/>
    </contour>
  </outline>
</glyph>
<glyph name="ThreePerEmSpace" format="1">
  <advance width="525"/>
  <unicode hex="2004"/>
  <outline>
    <contour>
      <point x="262" y="0" type="move" name="H"/>
    </contour>
    <contour>
      <point x="262" y="-100" type="move" name="L"/>
    </contour>
    <contour>
      <point x="287" y="0" type="move" name="O"/>
    </contour>
    <contour>
      <point x="524" y="900" type="move" name="R"/>
    </contour>
    <contour>
      <point x="262" y="1435" type="move" name="U"/>
    </contour>
  </outline>
</glyph>
<glyph name="FourPerEmSpace" format="1">
  <advance width="400"/>
  <unicode hex="2005"/>
  <outline>
    <contour>
      <point x="200" y="0" type="move" name="H"/>
    </contour>
    <contour>
      <point x="200" y="-100" type="move" name="L"/>
    </contour>
    <contour>
      <point x="225" y="0" type="move" name="O"/>
    </contour>
    <contour>
      <point x="400" y="900" type="move" name="R"/>
    </contour>
    <contour>
      <point x="200" y="1435" type="move" name="U"/>
    </contour>
  </outline>
</glyph>
<glyph name="SixPerEmSpace" format="1">
  <advance width="260"/>
  <unicode hex="2006"/>
  <outline>
    <contour>
      <point x="130" y="0" type="move" name="H"/>
    </contour>
    <contour>
      <point x="130" y="-100" type="move" name="L"/>
    </contour>
    <contour>
      <point x="150" y="0" type="move" name="O"/>
    </contour>
    <contour>
      <point x="260" y="900" type="move" name="R"/>
    </contour>
    <contour>
      <point x="130" y="1435" type="move" name="U"/>
    </contour>
  </outline>
</glyph>
<glyph name="PuncSpace" format="1">
  <advance width="469"/>
  <unicode hex="2008"/>
  <outline>
    <contour>
      <point x="234" y="0" type="move" name="H"/>
    </contour>
    <contour>
      <point x="234" y="-100" type="move" name="L"/>
    </contour>
    <contour>
      <point x="259" y="0" type="move" name="O"/>
    </contour>
    <contour>
      <point x="468" y="900" type="move" name="R"/>
    </contour>
    <contour>
      <point x="234" y="1435" type="move" name="U"/>
    </contour>
  </outline>
</glyph>
<glyph name="ThinSpace" format="1">
  <advance width="300"/>
  <unicode hex="2009"/>
  <outline>
    <contour>
      <point x="150" y="0" type="move" name="H"/>
    </contour>
    <contour>
      <point x="150" y="-100" type="move" name="L"/>
    </contour>
    <contour>
      <point x="170" y="0" type="move" name="O"/>
    </contour>
    <contour>
      <point x="300" y="900" type="move" name="R"/>
    </contour>
    <contour>
      <point x="150" y="1435" type="move" name="U"/>
    </contour>
  </outline>
</glyph>
<glyph name="Hyphen" format="1">
  <advance width="690"/>
  <unicode hex="2010"/>
  <outline>
    <contour>
      <point x="621" y="517"/>
      <point x="629" y="546" type="curve"/>
      <point x="604" y="570" type="line"/>
      <point x="92" y="570" type="line"/>
      <point x="80" y="544"/>
      <point x="68" y="508"/>
      <point x="61" y="479" type="curve"/>
      <point x="86" y="455" type="line"/>
      <point x="598" y="455" type="line"/>
      <point x="608" y="477"/>
    </contour>
    <contour>
      <point x="352" y="1050" type="move" name="U"/>
    </contour>
  </outline>
</glyph>
<glyph name="TriangularBullet" format="1">
  <advance width="523"/>
  <unicode hex="2023"/>
  <outline>
    <contour>
      <point x="120" y="820" type="line"/>
      <point x="120" y="440" type="line"/>
      <point x="443" y="630" type="line"/>
    </contour>
  </outline>
</glyph>
<glyph name="SwingDash" format="1">
  <advance width="1420"/>
  <unicode hex="2053"/>
  <outline>
    <contour>
      <point x="1360" y="744" type="curve"/>
      <point x="1302" y="769" type="line"/>
      <point x="1247" y="660"/>
      <point x="1189" y="609"/>
      <point x="1106" y="609" type="curve" smooth="yes"/>
      <point x="919" y="609"/>
      <point x="585" y="769"/>
      <point x="392" y="769" type="curve" smooth="yes"/>
      <point x="235" y="769"/>
      <point x="122" y="593"/>
      <point x="60" y="472" type="curve"/>
      <point x="117" y="435" type="line"/>
      <point x="173" y="546"/>
      <point x="226" y="587"/>
      <point x="311" y="587" type="curve" smooth="yes"/>
      <point x="506" y="587"/>
      <point x="745" y="437"/>
      <point x="1027" y="437" type="curve" smooth="yes"/>
      <point x="1184" y="437"/>
      <point x="1295" y="603"/>
    </contour>
  </outline>
</glyph>
